<svg xmlns="http://www.w3.org/2000/svg" xmlns:xlink="http://www.w3.org/1999/xlink" width="130" height="130" viewBox="0 0 130 130"><defs><style>.a,.g{fill:#fff;}.a{stroke:#707070;}.b{clip-path:url(#a);}.c{fill:#42444c;}.d{fill:#2c2e35;}.e{fill:#20a5d3;}.f{fill:#1090b2;}</style><clipPath id="a"><rect class="a" width="130" height="130" transform="translate(182 688)"/></clipPath></defs><g class="b" transform="translate(-182 -688)"><g transform="translate(182 694.265)"><path class="c" d="M91.018,115.48H38.979l3.813-10.612,3.621-10.081H83.585l3.621,10.081Zm0,0"/><path class="d" d="M87.206,104.867H42.791l3.621-10.081,21.656-6.432,15.516,6.432Zm0,0"/><path class="d" d="M106.149,117.47h-82.3a1.99,1.99,0,0,1,0-3.98h82.3a1.99,1.99,0,0,1,0,3.98Zm0,0"/><path class="e" d="M130,9.93V84.855a9.932,9.932,0,0,1-9.93,9.931H9.928A9.93,9.93,0,0,1,0,84.855V9.93A9.929,9.929,0,0,1,9.928,0H120.07A9.931,9.931,0,0,1,130,9.93Zm0,0"/><path class="f" d="M130,9.93V84.855a9.932,9.932,0,0,1-9.93,9.931H50.8L75.182,0H120.07A9.931,9.931,0,0,1,130,9.93Zm0,0"/><path class="c" d="M130,78.223v6.632a9.932,9.932,0,0,1-9.93,9.931H9.928A9.93,9.93,0,0,1,0,84.855V78.223Zm0,0"/><path class="g" d="M46.145,50.538H44.667V43.26c0-1.564-1.362-2.656-3.312-2.656S38.043,41.7,38.043,43.26v7.278H32.448L42.606,30.317a2.429,2.429,0,0,0,.346-1.277c0-1.77-1.9-2.858-3.261-2.858a3.306,3.306,0,0,0-2.98,1.865l-12.43,24.5a2.9,2.9,0,0,0-.409,1.551,2.688,2.688,0,0,0,2.757,2.858H38.043v5.765c0,1.568,1.393,2.706,3.312,2.706s3.312-1.138,3.312-2.706V56.96h1.479a3.024,3.024,0,0,0,2.707-3.212C48.852,51.888,47.714,50.538,46.145,50.538Zm0,0"/><path class="g" d="M65.025,26.181c-7.65,0-12.037,4.442-12.037,12.188V53.547c0,7.745,4.387,12.188,12.037,12.188,7.681,0,12.086-4.442,12.086-12.187V38.369C77.111,30.623,72.705,26.181,65.025,26.181Zm5.463,12.188V53.547c0,4.015-1.787,5.967-5.463,5.967-3.642,0-5.412-1.952-5.412-5.967V38.369c0-4.015,1.77-5.967,5.412-5.967C68.7,32.4,70.488,34.354,70.488,38.369Zm0,0"/><path class="g" d="M103.419,50.538H101.94V43.26c0-1.564-1.362-2.656-3.312-2.656S95.317,41.7,95.317,43.26v7.278H89.722L99.879,30.317a2.429,2.429,0,0,0,.346-1.277c0-1.77-1.9-2.858-3.261-2.858a3.306,3.306,0,0,0-2.98,1.865l-12.43,24.5a2.9,2.9,0,0,0-.408,1.551A2.688,2.688,0,0,0,83.9,56.96H95.317v5.765c0,1.568,1.393,2.706,3.312,2.706s3.312-1.138,3.312-2.706V56.96h1.479a3.024,3.024,0,0,0,2.707-3.212C106.126,51.888,104.987,50.538,103.419,50.538Zm0,0"/></g></g></svg>