<svg xmlns="http://www.w3.org/2000/svg" xmlns:xlink="http://www.w3.org/1999/xlink" width="130" height="130" viewBox="0 0 130 130"><defs><style>.a{fill:#fff;stroke:#707070;}.b{clip-path:url(#a);}.c{fill:#e5646e;}.d{fill:#bce8f1;}.e{fill:#e04955;}.f{fill:#93dcfc;}.g{fill:#ffcd50;}.h{fill:#ffbc27;}</style><clipPath id="a"><rect class="a" width="130" height="130" transform="translate(749 151)"/></clipPath></defs><g class="b" transform="translate(-749 -151)"><g transform="translate(749 172.539)"><path class="c" d="M119.431,86.794H10.569A10.57,10.57,0,0,1,0,76.224V10.7A10.569,10.569,0,0,1,10.569.127H119.431A10.569,10.569,0,0,1,130,10.7V76.224A10.57,10.57,0,0,1,119.431,86.794Zm0,0"/><path class="d" d="M85.874.127H99.085V15.98H85.874Zm0,0"/><path class="e" d="M124.716,1.544v74.68a5.285,5.285,0,0,1-5.284,5.284H1.417a10.562,10.562,0,0,0,9.152,5.285H119.431A10.57,10.57,0,0,0,130,76.224V10.7a10.563,10.563,0,0,0-5.284-9.152Zm0,0"/><path class="d" d="M85.874,28.752H99.085V86.793H85.874Zm0,0"/><path class="f" d="M95.122.127h3.963V15.98H95.122Zm0,0"/><path class="f" d="M95.122,28.752V78.867a2.642,2.642,0,0,1-2.642,2.642H85.874v5.285H99.085V28.752Zm0,0"/><path class="g" d="M37.256,36.062H16.118a5.284,5.284,0,0,1-5.284-5.284V16.245a5.284,5.284,0,0,1,5.284-5.284H37.256a5.285,5.285,0,0,1,5.285,5.284V30.777A5.285,5.285,0,0,1,37.256,36.062Zm0,0"/><path class="h" d="M37.256,10.961h-3.7a5.285,5.285,0,0,1,5.284,5.284V30.777a5.285,5.285,0,0,1-5.284,5.284h3.7a5.285,5.285,0,0,0,5.285-5.284V16.245A5.285,5.285,0,0,0,37.256,10.961Zm0,0"/><path class="d" d="M92.479,21v4.757l20.387,8.834a2.429,2.429,0,0,0,3.394-2.229V14.4a2.429,2.429,0,0,0-3.394-2.229Zm0,0"/><path class="f" d="M112.866,12.167l-.305.132V28.31a1.585,1.585,0,0,1-2.216,1.454L92.479,22.022v3.734l20.387,8.834a2.428,2.428,0,0,0,3.394-2.228V14.394A2.429,2.429,0,0,0,112.866,12.167Zm0,0"/><path class="d" d="M92.479,21v4.757L72.094,34.592A2.429,2.429,0,0,1,68.7,32.363V14.4a2.429,2.429,0,0,1,3.394-2.229Zm0,0"/><path class="f" d="M80.6,15.853a14.152,14.152,0,0,0-2.05,10.074,2.625,2.625,0,0,1-1.557,2.842L68.7,32.363a2.429,2.429,0,0,0,3.394,2.229l20.386-8.834V21Zm0,0"/><path class="d" d="M102.521,23.511a10.041,10.041,0,1,1-10.041-10.04A10.042,10.042,0,0,1,102.521,23.511Zm0,0"/><path class="f" d="M97.441,14.784A10.038,10.038,0,0,1,83.752,28.473,10.04,10.04,0,1,0,97.441,14.784Zm0,0"/><path class="h" d="M42.541,25.625v3.963H33.557a.661.661,0,0,0-.661.662v5.812H28.932V30.25a4.629,4.629,0,0,1,4.624-4.624h8.985Zm0,0"/><path class="h" d="M24.441,30.249v5.813H20.477V30.249a.661.661,0,0,0-.661-.661H10.834V25.625h8.984A4.63,4.63,0,0,1,24.441,30.249Zm0,0"/><path class="h" d="M24.441,10.961v5.813A4.63,4.63,0,0,1,19.818,21.4H10.834V17.433h8.984a.661.661,0,0,0,.661-.661V10.961Zm0,0"/><path class="h" d="M42.541,17.434V21.4H33.557a4.629,4.629,0,0,1-4.624-4.624V10.961H32.9v5.813a.661.661,0,0,0,.661.661Zm0,0"/><path class="g" d="M22.459,56.54a1.982,1.982,0,1,0,0-3.963H13.211a3.306,3.306,0,0,0-3.3,3.3v14.8a3.306,3.306,0,0,0,3.3,3.3h7.928a3.306,3.306,0,0,0,3.3-3.3v-5.02a3.306,3.306,0,0,0-3.3-3.3H18.232a1.982,1.982,0,0,0,0,3.963h2.246v3.7H13.872V56.54Zm0,0"/><path class="g" d="M46.768,52.576H36.2a1.981,1.981,0,0,0-1.982,1.982V72a1.982,1.982,0,0,0,3.963,0V65.524h4.624a1.982,1.982,0,0,0,0-3.964H38.181V56.54h8.587a1.982,1.982,0,1,0,0-3.963Zm0,0"/><path class="g" d="M29.329,52.576a1.982,1.982,0,0,0-1.982,1.982V72a1.982,1.982,0,0,0,3.963,0V54.558A1.981,1.981,0,0,0,29.329,52.576Zm0,0"/><path class="g" d="M63.415,52.576H52.845a1.982,1.982,0,1,0,0,3.963h3.3V72a1.982,1.982,0,0,0,3.963,0V56.54h3.3a1.982,1.982,0,1,0,0-3.963Zm0,0"/></g></g></svg>