<svg xmlns="http://www.w3.org/2000/svg" xmlns:xlink="http://www.w3.org/1999/xlink" width="130" height="130" viewBox="0 0 130 130"><defs><style>.a{fill:#fff;stroke:#707070;}.b{clip-path:url(#a);}.c{fill:#cbafea;}.d{fill:#bc95e2;}.e{fill:#f9f6f6;}.f{fill:#dddaec;}.g{fill:#ffe07d;}.h{fill:#b3e59f;}.i{fill:#95d6a4;}.j{fill:#ffd064;}.k{fill:#30579d;}</style><clipPath id="a"><rect class="a" width="130" height="130" transform="translate(1304 314)"/></clipPath></defs><g class="b" transform="translate(-1304 -314)"><g transform="translate(1304 314)"><path class="c" d="M84.128,93.1a6.916,6.916,0,0,1,13.279-2.709,6.917,6.917,0,0,1,11.8,6.382c.163-.011.326-.019.491-.019a6.915,6.915,0,0,1,0,13.83H79.222"/><path class="d" d="M97.964,95.055a6.845,6.845,0,0,0,.215,1.716c-.162-.01-.327-.018-.492-.018a6.915,6.915,0,1,0,0,13.829H79.223L84.13,93.1a6.916,6.916,0,0,1,13.277-2.71,6.9,6.9,0,0,1,5.1-2.247,6.81,6.81,0,0,1,1.185.1,6.91,6.91,0,0,0-5.731,6.811Z"/><path class="e" d="M45.3,6.543h10.96V30.018H45.3Z"/><path class="f" d="M45.3,6.543h10.96V14.45H45.3Z"/><path class="f" d="M45.3,6.543h5.48V30.018H45.3Z"/><path class="e" d="M63.247,27.212H38.31A8.407,8.407,0,0,0,29.9,35.619V47.043H71.654V35.619A8.407,8.407,0,0,0,63.247,27.212Z"/><path class="f" d="M51.184,27.212a8.407,8.407,0,0,0-8.407,8.407V47.044H29.9V35.619a8.409,8.409,0,0,1,8.409-8.407Z"/><path class="g" d="M101.837,52.572a1.962,1.962,0,0,1-1.962-1.962v-8.7a1.962,1.962,0,0,1,3.923,0v8.7A1.961,1.961,0,0,1,101.837,52.572Z"/><path class="g" d="M106.186,48.223h-8.7a1.962,1.962,0,1,1,0-3.923h8.7a1.962,1.962,0,1,1,0,3.923Z"/><path class="h" d="M64.766,40.259H36.791A24.372,24.372,0,0,0,12.419,64.631v53.894A11.474,11.474,0,0,0,23.894,130h53.77a11.474,11.474,0,0,0,11.474-11.474V64.631A24.372,24.372,0,0,0,64.766,40.259Z"/><path class="i" d="M45.115,130H23.892A11.474,11.474,0,0,1,12.42,118.524V64.631A24.371,24.371,0,0,1,36.79,40.258H58.013a24.371,24.371,0,0,0-24.37,24.373v53.893A11.474,11.474,0,0,0,45.115,130Z"/><path class="e" d="M35.9,4.674a4.674,4.674,0,0,0,4.674,4.674H73.386V16.6h9.548V4.674A4.675,4.675,0,0,0,78.259,0H40.579A4.674,4.674,0,0,0,35.9,4.674Z"/><path class="f" d="M73.386,9.349h3.827V16.6H73.386Z"/><path class="f" d="M49.624,9.348H40.579a4.674,4.674,0,0,1,0-9.348h9.045a4.674,4.674,0,0,0,0,9.348Z"/><path class="g" d="M77.21,109.149h36.21a10.425,10.425,0,1,1,0,20.851H77.21a10.425,10.425,0,1,1,0-20.851Z"/><path class="j" d="M95.3,130H77.21a10.425,10.425,0,1,1,0-20.85H95.3a10.425,10.425,0,1,0,0,20.85Z"/><path class="e" d="M67.432,97.863a23.549,23.549,0,0,1-33.308,0c-.165-.165-.324-.33-.481-.5a23.549,23.549,0,0,1,0-32.314c.157-.167.316-.332.481-.5A23.552,23.552,0,0,1,67.432,97.863Z"/><path class="f" d="M33.643,65.052V97.366A23.549,23.549,0,0,1,33.643,65.052Z"/><path class="g" d="M120.321,65.571H118.1V63.353a4.175,4.175,0,0,0-8.35,0v2.218h-2.218a4.175,4.175,0,0,0,0,8.35h2.218v2.218a4.175,4.175,0,1,0,8.35,0V73.921h2.218a4.175,4.175,0,0,0,0-8.35Z"/><path class="g" d="M22.466,46.782H20.248V44.564a4.175,4.175,0,0,0-8.35,0v2.218H9.679a4.175,4.175,0,1,0,0,8.35H11.9v2.218a4.175,4.175,0,1,0,8.35,0V55.133h2.218a4.175,4.175,0,1,0,0-8.35Z"/><circle class="k" cx="8.853" cy="8.853" r="8.853" transform="matrix(0.383, -0.924, 0.924, 0.383, 39.238, 91.756)"/><path class="k" d="M50.779,75.858a4.906,4.906,0,1,0-4.906-4.906,4.911,4.911,0,0,0,4.906,4.906Z"/><path class="k" d="M37.782,72.774a4.906,4.906,0,1,0,4.906,4.906,4.911,4.911,0,0,0-4.906-4.906Z"/><path class="k" d="M63.777,72.774a4.906,4.906,0,1,0,4.906,4.906,4.911,4.911,0,0,0-4.906-4.906Z"/></g></g></svg>