<svg xmlns="http://www.w3.org/2000/svg" xmlns:xlink="http://www.w3.org/1999/xlink" width="130" height="130" viewBox="0 0 130 130"><defs><style>.a{fill:#fff;stroke:#707070;}.b{clip-path:url(#a);}.c{fill:#ff7043;}.d{fill:#e64a19;}.e{fill:#ffee58;}.f{fill:#fbc02d;}.g{fill:#cfd8dc;}.h{fill:#90a4ae;}.i{fill:#29b6f6;}.j{fill:#0288d1;}</style><clipPath id="a"><rect class="a" width="130" height="130" transform="translate(1304 651)"/></clipPath></defs><g class="b" transform="translate(-1304 -651)"><g transform="translate(1304 651)"><path class="c" d="M23.059,47.381H17.189A17.208,17.208,0,0,0,0,64.569v56.689a5.671,5.671,0,0,0,5.664,5.664H34.583a5.671,5.671,0,0,0,5.664-5.664V64.569A17.208,17.208,0,0,0,23.059,47.381Z"/><path class="d" d="M25.222,47.522a17.127,17.127,0,0,1,4.869,11.969v48.54a13.812,13.812,0,0,1-13.812,13.812H.03a5.672,5.672,0,0,0,5.634,5.078H34.583a5.664,5.664,0,0,0,5.664-5.664V64.569A17.211,17.211,0,0,0,25.222,47.522Z"/><path class="e" d="M67.935,47.381H62.065A17.208,17.208,0,0,0,44.876,64.569v56.689a5.671,5.671,0,0,0,5.664,5.664H79.46a5.671,5.671,0,0,0,5.664-5.664V64.569A17.208,17.208,0,0,0,67.935,47.381Z"/><path class="f" d="M70.1,47.522a17.127,17.127,0,0,1,4.869,11.969v48.54a13.812,13.812,0,0,1-13.812,13.812H44.907a5.672,5.672,0,0,0,5.634,5.078H79.459a5.664,5.664,0,0,0,5.664-5.664V64.569A17.211,17.211,0,0,0,70.1,47.522Z"/><rect class="g" width="40.248" height="43.35" transform="translate(44.876 67.504)"/><path class="h" d="M74.967,67.5V98.351a7.425,7.425,0,0,1-7.425,7.425H44.876v5.078H85.124V67.5Z"/><rect class="g" width="40.248" height="43.35" transform="translate(0 67.504)"/><path class="h" d="M30.091,67.5V98.351a7.425,7.425,0,0,1-7.425,7.425H0v5.078H40.248V67.5Z"/><path class="i" d="M112.811,47.381h-5.871A17.208,17.208,0,0,0,89.752,64.569v56.689a5.671,5.671,0,0,0,5.664,5.664h28.919A5.671,5.671,0,0,0,130,121.258V64.569A17.208,17.208,0,0,0,112.811,47.381Z"/><path class="j" d="M114.974,47.522a17.127,17.127,0,0,1,4.869,11.969v48.54a13.812,13.812,0,0,1-13.812,13.812H89.783a5.672,5.672,0,0,0,5.634,5.078h28.919A5.664,5.664,0,0,0,130,121.258V64.569A17.211,17.211,0,0,0,114.974,47.522Z"/><path class="g" d="M34.389,49.285H5.859a1.421,1.421,0,0,1-1.421-1.421V38.055A3.872,3.872,0,0,1,8.31,34.182H31.938a3.872,3.872,0,0,1,3.872,3.872v9.809A1.422,1.422,0,0,1,34.389,49.285Z"/><path class="g" d="M27.552,27.558H12.7L14.071,16.8a.887.887,0,0,1,.88-.775H25.3a.887.887,0,0,1,.88.775Z"/><path class="g" d="M24.388,16.023H15.859L16.871,4.769a1.857,1.857,0,0,1,1.85-1.691h2.807a1.857,1.857,0,0,1,1.85,1.691Z"/><path class="g" d="M29.854,34.183H10.394V28.675a1.117,1.117,0,0,1,1.117-1.117H28.737a1.117,1.117,0,0,1,1.117,1.117v5.508Z"/><path class="c" d="M29.014,92.365a8.89,8.89,0,0,1-17.779,0c0-4.91,7.409-15.26,8.89-15.26S29.014,87.455,29.014,92.365Z"/><path class="g" d="M79.265,49.285H50.735a1.421,1.421,0,0,1-1.421-1.421V38.055a3.872,3.872,0,0,1,3.872-3.872H76.814a3.872,3.872,0,0,1,3.872,3.872v9.809A1.422,1.422,0,0,1,79.265,49.285Z"/><path class="g" d="M72.429,27.558H57.571L58.947,16.8a.887.887,0,0,1,.88-.775H70.173a.887.887,0,0,1,.88.775Z"/><path class="g" d="M69.264,16.023H60.736L61.747,4.769A1.857,1.857,0,0,1,63.6,3.078H66.4a1.857,1.857,0,0,1,1.85,1.691Z"/><path class="g" d="M74.73,34.183H55.27V28.675a1.117,1.117,0,0,1,1.117-1.117H73.613a1.117,1.117,0,0,1,1.117,1.117v5.508Z"/><path class="e" d="M73.89,92.365a8.89,8.89,0,0,1-17.779,0c0-4.91,7.409-15.26,8.89-15.26S73.89,87.455,73.89,92.365Z"/><rect class="g" width="40.248" height="43.35" transform="translate(89.752 67.504)"/><path class="h" d="M119.844,67.5V98.351a7.425,7.425,0,0,1-7.425,7.425H89.752v5.078H130V67.5Z"/><path class="g" d="M124.141,49.285H95.611a1.421,1.421,0,0,1-1.421-1.421V38.055a3.872,3.872,0,0,1,3.872-3.872H121.69a3.872,3.872,0,0,1,3.872,3.872v9.809A1.421,1.421,0,0,1,124.141,49.285Z"/><path class="g" d="M117.3,27.558H102.447l1.375-10.76a.887.887,0,0,1,.88-.775h10.346a.887.887,0,0,1,.88.775Z"/><path class="h" d="M31.938,34.183H30.732v3.948a6.076,6.076,0,0,1-6.076,6.076H4.438v3.657a1.421,1.421,0,0,0,1.421,1.421h28.53a1.421,1.421,0,0,0,1.421-1.421V38.055A3.872,3.872,0,0,0,31.938,34.183Z"/><path class="h" d="M26.177,16.8a.887.887,0,0,0-.88-.775H21.649l.384,3a3.067,3.067,0,0,1-3.043,3.456H13.344L12.7,27.557H27.553Z"/><path class="h" d="M76.814,34.183H75.608v3.948a6.076,6.076,0,0,1-6.076,6.076H49.314v3.657a1.421,1.421,0,0,0,1.421,1.421h28.53a1.421,1.421,0,0,0,1.421-1.421V38.055A3.872,3.872,0,0,0,76.814,34.183Z"/><path class="h" d="M71.053,16.8a.887.887,0,0,0-.88-.775H66.525l.384,3a3.067,3.067,0,0,1-3.043,3.456H58.221l-.649,5.078H72.429Z"/><path class="h" d="M121.69,34.183h-1.206v3.948a6.076,6.076,0,0,1-6.076,6.076H94.19v3.657a1.421,1.421,0,0,0,1.421,1.421h28.53a1.421,1.421,0,0,0,1.421-1.421V38.055A3.872,3.872,0,0,0,121.69,34.183Z"/><path class="h" d="M115.929,16.8a.887.887,0,0,0-.88-.775H111.4l.384,3a3.067,3.067,0,0,1-3.043,3.456H103.1l-.649,5.078H117.3Z"/><path class="g" d="M114.14,16.023h-8.528l1.011-11.254a1.857,1.857,0,0,1,1.85-1.691h2.807a1.857,1.857,0,0,1,1.85,1.691Z"/><path class="h" d="M23.377,4.769a1.857,1.857,0,0,0-1.85-1.691h-.613l.635,7.069A3.063,3.063,0,0,1,18.5,13.484H16.088l-.228,2.539h8.528Z"/><path class="h" d="M68.253,4.769A1.857,1.857,0,0,0,66.4,3.078H65.79l.635,7.069a3.063,3.063,0,0,1-3.051,3.337H60.964l-.228,2.539h8.528Z"/><path class="h" d="M113.129,4.769a1.857,1.857,0,0,0-1.85-1.691h-.613l.635,7.069a3.063,3.063,0,0,1-3.051,3.337H105.84l-.228,2.539h8.528Z"/><path class="g" d="M119.606,34.183h-19.46V28.675a1.117,1.117,0,0,1,1.117-1.117h17.226a1.117,1.117,0,0,1,1.117,1.117v5.508Z"/><path class="h" d="M28.737,27.558H24.776v1.711A2.375,2.375,0,0,1,22.4,31.644H10.394v2.539h19.46V28.675A1.117,1.117,0,0,0,28.737,27.558Z"/><path class="h" d="M73.613,27.558H69.652v1.711a2.375,2.375,0,0,1-2.375,2.375H55.27v2.539H74.73V28.675A1.116,1.116,0,0,0,73.613,27.558Z"/><path class="h" d="M118.489,27.558h-3.961v1.711a2.375,2.375,0,0,1-2.375,2.375H100.146v2.539h19.46V28.675A1.117,1.117,0,0,0,118.489,27.558Z"/><path class="i" d="M118.766,92.365a8.89,8.89,0,0,1-17.779,0c0-4.91,7.409-15.26,8.89-15.26S118.766,87.455,118.766,92.365Z"/><path class="d" d="M20.124,77.1c-.37,0-1.11.646-2.011,1.691C19.9,81.769,21.4,85.078,21.4,87.287a8.89,8.89,0,0,1-9.31,8.88,8.891,8.891,0,0,0,16.928-3.8C29.014,87.455,21.6,77.1,20.124,77.1Z"/><path class="f" d="M65,77.1c-.37,0-1.11.646-2.011,1.691,1.784,2.973,3.284,6.283,3.284,8.491a8.89,8.89,0,0,1-9.31,8.88,8.891,8.891,0,0,0,16.928-3.8C73.89,87.455,66.481,77.1,65,77.1Z"/><path class="j" d="M109.876,77.1c-.37,0-1.11.646-2.011,1.691,1.784,2.973,3.284,6.283,3.284,8.491a8.89,8.89,0,0,1-9.31,8.88,8.891,8.891,0,0,0,16.928-3.8C118.766,87.455,111.357,77.1,109.876,77.1Z"/></g></g></svg>