<svg xmlns="http://www.w3.org/2000/svg" xmlns:xlink="http://www.w3.org/1999/xlink" width="130" height="130" viewBox="0 0 130 130"><defs><style>.a{fill:#fff;stroke:#707070;}.b{clip-path:url(#a);}.c{fill:#fe4fb7;}.d{fill:#fe2aa8;}.e{fill:#efedef;}.f{fill:#e5e1e5;}.g{fill:#feaee1;}.h{fill:#fe93d3;}.i{fill:#7ca1b1;}.j{fill:#678d98;}.k{fill:#fdb441;}.l{fill:#fea613;}.m{fill:#fee8c7;}.n{fill:#fedba6;}</style><clipPath id="a"><rect class="a" width="130" height="130" transform="translate(250 583)"/></clipPath></defs><g class="b" transform="translate(-250 -583)"><g transform="translate(250 583)"><path class="c" d="M61.156,110.068H19.848l.335,2.605h0v14.181A3.145,3.145,0,0,0,23.328,130H57.676a3.145,3.145,0,0,0,3.145-3.145V112.675Z"/><path class="d" d="M60.82,112.674v14.264A3.061,3.061,0,0,1,57.758,130H50.816a3.061,3.061,0,0,0,3.062-3.062V112.674Z"/><path class="e" d="M48.591,130H32.413v-5.63a3.032,3.032,0,0,1,3.032-3.032H45.559a3.032,3.032,0,0,1,3.032,3.032Z"/><path class="f" d="M48.592,124.291V130h-4.2v-5.709a2.953,2.953,0,0,0-2.956-2.953h4.2A2.954,2.954,0,0,1,48.592,124.291Z"/><path class="g" d="M40.5,0H13.213a2.022,2.022,0,0,0-1.966,2.21l8.937,110.465H60.82L69.757,2.21A2.022,2.022,0,0,0,67.792,0Z"/><path class="h" d="M69.758,2.209,60.82,112.674H53.877L62.816,2.209A2.023,2.023,0,0,0,60.85,0h6.943a2.024,2.024,0,0,1,1.966,2.209Z"/><path class="e" d="M41.409,45.384a1.316,1.316,0,0,0-1.814,0c-3.058,3.014-12.666,13.45-10.29,23.48a12.23,12.23,0,0,0,6.58,7.981l.039.02a10.229,10.229,0,0,0,9.155,0l.039-.02a12.229,12.229,0,0,0,6.58-7.981c2.377-10.029-7.232-20.466-10.289-23.48Z"/><path class="f" d="M51.7,68.864a12.231,12.231,0,0,1-6.579,7.982l-.04.02a10.232,10.232,0,0,1-7.051.779,10.113,10.113,0,0,0,2.1-.779l.04-.02a12.23,12.23,0,0,0,6.579-7.982C48.8,60.2,41.914,51.229,38.031,47.007c.611-.665,1.15-1.212,1.566-1.622a1.312,1.312,0,0,1,1.813,0C44.466,48.4,54.075,58.834,51.7,68.864Z"/><path class="c" d="M69.757,2.119l-.628,8.38H11.876l-.628-8.38A1.971,1.971,0,0,1,13.213,0H67.791a1.971,1.971,0,0,1,1.966,2.119Z"/><path class="d" d="M69.761,1.942v.027c0,.05,0,.1-.005.151l-.628,8.38H62.22l.6-8.291A2.023,2.023,0,0,0,60.85,0h6.943a1.84,1.84,0,0,1,.2.01,2.027,2.027,0,0,1,1.766,1.932Z"/><path class="i" d="M115.048,99.738H60.47V87.254l.245-1.243,54.1-.047.235,1.29Z"/><path class="j" d="M108.706,87.254h6.343V97.444h-6.343Z"/><path class="k" d="M113,130H62.521a5.761,5.761,0,0,1-5.761-5.761V99.207a1.763,1.763,0,0,1,1.762-1.762H117a1.763,1.763,0,0,1,1.762,1.762v25.033A5.761,5.761,0,0,1,113,130Z"/><path class="l" d="M111.877,97.443h5.064a1.819,1.819,0,0,1,1.818,1.82v24.793A5.944,5.944,0,0,1,112.816,130h-6.93a5.943,5.943,0,0,0,5.943-5.943V99.263Z"/><path class="m" d="M60.47,87.254q-.023-1.075-.034-2.151a8.13,8.13,0,0,1,2.136-5.966,16.465,16.465,0,0,1,7.672-3.981c3.97-.889,8.042-1.177,12.056-1.794a37.311,37.311,0,0,0,8.82-2.3c2.376-1,4.578-2.385,6.866-3.606a1.307,1.307,0,0,1,1.853.7,8.956,8.956,0,0,0,.422,1.012,16.073,16.073,0,0,0,1.955,3.3,14.248,14.248,0,0,0,1.458,1.47,67.976,67.976,0,0,0,7.057,5.134q.531.361,1.057.729a6.971,6.971,0,0,1,3.229,5.54c.005.132.071,1.914.032,1.914H60.47Z"/><path class="n" d="M115.047,87.254H108.7c-.01-.521-.034-1.166-.039-1.244-.123-3.138-2.507-4.649-5.016-5.98-3.172-1.687-5.461-4.133-7.784-6.894a16.521,16.521,0,0,1-2.006-3.4C95.24,69,96.6,68.2,97.986,67.455a1.305,1.305,0,0,1,1.852.7,9.467,9.467,0,0,0,.422,1.011,15.982,15.982,0,0,0,1.957,3.3,14.259,14.259,0,0,0,1.456,1.469,67.8,67.8,0,0,0,7.059,5.136q.531.358,1.055.728a6.965,6.965,0,0,1,3.229,5.54c.005.131.071,1.915.031,1.915Z"/><path class="e" d="M105.054,120.6H70.464a2.017,2.017,0,0,1-2.017-2.017v-9.719a2.017,2.017,0,0,1,2.017-2.017h34.591a2.017,2.017,0,0,1,2.017,2.017v9.719a2.017,2.017,0,0,1-2.017,2.017Z"/><path class="f" d="M107.072,108.926v9.592a2.082,2.082,0,0,1-2.082,2.082H99.578a2.082,2.082,0,0,0,2.08-2.082v-9.592a2.081,2.081,0,0,0-2.08-2.08h5.411A2.082,2.082,0,0,1,107.072,108.926Z"/></g></g></svg>