<svg xmlns="http://www.w3.org/2000/svg" xmlns:xlink="http://www.w3.org/1999/xlink" width="130" height="130" viewBox="0 0 130 130"><defs><style>.a{fill:#fff;stroke:#707070;}.b{clip-path:url(#a);}.c{fill:#f5fcff;}.d{fill:#ffe04a;}.e{fill:#ffcb39;}.f{fill:#dff1f7;}.g{fill:#356487;}.h{fill:#ef6074;}.i{fill:#e2546c;}.j{fill:#8af9ba;}.k{fill:#77eda6;}</style><clipPath id="a"><rect class="a" width="130" height="130" transform="translate(476 536)"/></clipPath></defs><g class="b" transform="translate(-476 -536)"><g transform="translate(476 536)"><path class="c" d="M105.625,126.918H24.375V31.2a1.777,1.777,0,0,1,1.777-1.777h77.7a1.777,1.777,0,0,1,1.777,1.777Z"/><path class="d" d="M97.515,118.793H32.5V39.321a1.777,1.777,0,0,1,1.777-1.777H95.738a1.777,1.777,0,0,1,1.777,1.777Z"/><path class="e" d="M97.515,64.812H77.8a1.777,1.777,0,0,0-1.777,1.777v52.2h21.5Z"/><path class="f" d="M24.375,31.2v95.723H32.5v-97.5H26.152A1.777,1.777,0,0,0,24.375,31.2Z"/><path class="e" d="M37.731,54.91V37.544H34.277A1.777,1.777,0,0,0,32.5,39.321v79.473H53.981V58.464A1.777,1.777,0,0,0,52.2,56.687h-12.7a1.777,1.777,0,0,1-1.777-1.777Z"/><path class="g" d="M81.25,47.63a1.962,1.962,0,0,1-1.962-1.962V21.294a14.288,14.288,0,1,0-28.576,0V45.669a1.962,1.962,0,1,1-3.923,0V21.294a18.212,18.212,0,1,1,36.423,0V45.669A1.962,1.962,0,0,1,81.25,47.63Z"/><circle class="c" cx="4.063" cy="4.063" r="4.063" transform="translate(77.188 45.668)"/><circle class="c" cx="4.063" cy="4.063" r="4.063" transform="translate(44.688 45.668)"/><path class="h" d="M46.973,126.918H1.777A1.777,1.777,0,0,1,0,125.141V63.7a1.777,1.777,0,0,1,1.777-1.777h45.2A1.777,1.777,0,0,1,48.75,63.7v61.445A1.777,1.777,0,0,1,46.973,126.918Z"/><path class="i" d="M0,63.7v61.445a1.777,1.777,0,0,0,1.777,1.777H5.231v-65H1.777A1.777,1.777,0,0,0,0,63.7Z"/><path class="j" d="M128.223,126.918h-45.2a1.777,1.777,0,0,1-1.777-1.777V71.821a1.777,1.777,0,0,1,1.777-1.777h45.2A1.777,1.777,0,0,1,130,71.821v53.32A1.777,1.777,0,0,1,128.223,126.918Z"/><path class="k" d="M81.25,71.821v53.32a1.777,1.777,0,0,0,1.777,1.777h3.454V70.043H83.027A1.777,1.777,0,0,0,81.25,71.821Z"/><path class="g" d="M32.5,72.005a1.962,1.962,0,0,1-1.962-1.962V53.794a6.163,6.163,0,0,0-12.326,0v16.25a1.962,1.962,0,1,1-3.923,0V53.794a10.087,10.087,0,0,1,20.174,0v16.25A1.962,1.962,0,0,1,32.5,72.005Z"/><path class="g" d="M105.548,112.63a10.1,10.1,0,0,1-10.087-10.087V86.293a1.962,1.962,0,1,1,3.923,0v16.25a6.163,6.163,0,0,0,12.327,0V86.293a1.962,1.962,0,1,1,3.923,0v16.25a10.1,10.1,0,0,1-10.086,10.087Z"/><circle class="c" cx="4.063" cy="4.063" r="4.063" transform="translate(12.188 70.043)"/><circle class="c" cx="4.063" cy="4.063" r="4.063" transform="translate(28.438 70.043)"/><circle class="c" cx="4.063" cy="4.063" r="4.063" transform="translate(93.361 78.168)"/><circle class="c" cx="4.063" cy="4.063" r="4.063" transform="translate(109.611 78.168)"/></g></g></svg>