<svg xmlns="http://www.w3.org/2000/svg" xmlns:xlink="http://www.w3.org/1999/xlink" width="130" height="130" viewBox="0 0 130 130"><defs><style>.a{fill:#fff;stroke:#707070;}.b{clip-path:url(#a);}.c{fill:#f4fbff;}.d{fill:#e4f6ff;}.e{fill:#3b66c1;}.f{fill:#30579d;}.g{fill:#ecbe6b;}.h{fill:#eab14d;}.i{fill:#90d8f9;}.j{fill:#75cef9;}.k{fill:#ffddce;}.l{fill:#ffcbbe;}</style><clipPath id="a"><rect class="a" width="130" height="130" transform="translate(130 119)"/></clipPath></defs><g class="b" transform="translate(-130 -119)"><g transform="translate(130 119)"><path class="c" d="M99.806,130H30.194a4.258,4.258,0,0,1-4.258-4.258V27.722a4.258,4.258,0,0,1,4.258-4.258H99.805a4.258,4.258,0,0,1,4.258,4.258v98.02A4.258,4.258,0,0,1,99.806,130Z"/><path class="d" d="M99.805,23.464h-7.2a4.258,4.258,0,0,1,4.258,4.258v98.02A4.258,4.258,0,0,1,92.605,130h7.2a4.258,4.258,0,0,0,4.258-4.258V27.722a4.258,4.258,0,0,0-4.258-4.258Z"/><path class="e" d="M81.317,34.061H48.683a1.841,1.841,0,0,1-1.841-1.841V19.662a1.841,1.841,0,0,1,1.841-1.841H81.317a1.841,1.841,0,0,1,1.841,1.841V32.219A1.841,1.841,0,0,1,81.317,34.061Z"/><path class="f" d="M81.317,17.821H76.057A1.841,1.841,0,0,1,77.9,19.662V32.219a1.841,1.841,0,0,1-1.841,1.841h5.259a1.841,1.841,0,0,0,1.841-1.841V19.662a1.841,1.841,0,0,0-1.841-1.841Z"/><path class="g" d="M75.694,25.941H54.305V2.545A2.545,2.545,0,0,1,56.85,0h16.3a2.545,2.545,0,0,1,2.545,2.545Z"/><path class="h" d="M73.15,0H67.083a2.545,2.545,0,0,1,2.545,2.545v23.4h6.067V2.545A2.545,2.545,0,0,0,73.15,0Z"/><path class="f" d="M77.9,27.9H52.1a1.962,1.962,0,1,1,0-3.923H77.9a1.962,1.962,0,1,1,0,3.923Z"/><path class="e" d="M79.452,81.255h-28.9a2.809,2.809,0,0,1-2.809-2.809V56A15.536,15.536,0,0,1,63.275,40.467h3.45A15.536,15.536,0,0,1,82.26,56V78.446A2.809,2.809,0,0,1,79.452,81.255Z"/><path class="f" d="M66.725,40.467h-3.45c-.153,0-.3.007-.456.011A15.532,15.532,0,0,1,77.9,56V78.446a2.809,2.809,0,0,1-2.809,2.809h4.362a2.809,2.809,0,0,0,2.809-2.809V56A15.536,15.536,0,0,0,66.725,40.467Z"/><path class="i" d="M69.924,75.06H60.076a7.288,7.288,0,0,0-7.288,7.288v8.941a.928.928,0,0,0,.928.928H76.285a.928.928,0,0,0,.928-.928V82.348a7.289,7.289,0,0,0-7.289-7.288Z"/><path class="j" d="M69.924,75.06H65.4a7.288,7.288,0,0,1,7.288,7.288v8.941a.928.928,0,0,1-.928.928h4.525a.928.928,0,0,0,.928-.928V82.348A7.288,7.288,0,0,0,69.924,75.06Z"/><path class="k" d="M65,76.781A12.483,12.483,0,0,1,52.517,64.3v-7.55a.329.329,0,0,1,.329-.328c5.777-.011,10.884-.838,15.438-3.781a.309.309,0,0,1,.415.07c2.057,2.731,4.862,3.486,8.456,3.694a.346.346,0,0,1,.327.345V64.3A12.483,12.483,0,0,1,65,76.781Z"/><path class="l" d="M77.156,56.4a17.291,17.291,0,0,1-4.035-.637V64.3a12.484,12.484,0,0,1-10.3,12.289A12.474,12.474,0,0,0,77.483,64.3V56.747a.346.346,0,0,0-.327-.345Z"/><path class="e" d="M83.757,111.656H46.243a1.94,1.94,0,0,1-1.94-1.94v-6.148a1.94,1.94,0,0,1,1.94-1.94H83.757a1.94,1.94,0,0,1,1.94,1.94v6.148A1.94,1.94,0,0,1,83.757,111.656Z"/><path class="f" d="M83.757,101.627h-5.2a1.94,1.94,0,0,1,1.94,1.94v6.148a1.94,1.94,0,0,1-1.94,1.94h5.2a1.94,1.94,0,0,0,1.94-1.94v-6.148A1.94,1.94,0,0,0,83.757,101.627Z"/><path class="f" d="M79.051,121.684h-28.1a1.962,1.962,0,1,1,0-3.923h28.1a1.962,1.962,0,0,1,0,3.923Z"/><path class="f" d="M96.864,31.954A1.961,1.961,0,0,1,94.9,29.992v-.43a1.962,1.962,0,0,1,3.923,0v.43A1.962,1.962,0,0,1,96.864,31.954Z"/><path class="f" d="M33.136,31.954a1.962,1.962,0,0,1-1.962-1.962v-.43a1.962,1.962,0,0,1,3.923,0v.43A1.962,1.962,0,0,1,33.136,31.954Z"/><path class="f" d="M96.864,125.863A1.962,1.962,0,0,1,94.9,123.9v-.43a1.962,1.962,0,0,1,3.923,0v.43A1.962,1.962,0,0,1,96.864,125.863Z"/><path class="f" d="M33.136,125.863a1.962,1.962,0,0,1-1.962-1.962v-.43a1.962,1.962,0,0,1,3.923,0v.43A1.962,1.962,0,0,1,33.136,125.863Z"/></g></g></svg>