<svg xmlns="http://www.w3.org/2000/svg" xmlns:xlink="http://www.w3.org/1999/xlink" width="130" height="130" viewBox="0 0 130 130"><defs><style>.a{fill:#fff;stroke:#707070;}.b{clip-path:url(#a);}.c{fill:#eab14d;}.d{fill:#e49542;}.e{fill:#f4fbff;}.f{fill:#daf1f4;}.g{fill:#2b4d66;}.h{fill:#da4a54;}.i{fill:#365e7d;}</style><clipPath id="a"><rect class="a" width="130" height="130" transform="translate(1364 772)"/></clipPath></defs><g class="b" transform="translate(-1364 -772)"><g transform="translate(1364 772)"><circle class="c" cx="65" cy="65" r="65"/><path class="d" d="M65,0q-1.741,0-3.459.092a65,65,0,0,1,0,129.817Q63.259,130,65,130A65,65,0,0,0,65,0Z"/><circle class="e" cx="50.651" cy="50.651" r="50.651" transform="translate(14.349 14.349)"/><path class="f" d="M65,14.349c-1.4,0-2.791.06-4.165.171a50.651,50.651,0,0,1,0,100.959c1.374.112,2.763.172,4.165.172a50.651,50.651,0,0,0,0-101.3Z"/><path class="g" d="M65,29.938a1.962,1.962,0,0,1-1.962-1.962V25.1a1.962,1.962,0,0,1,3.924,0v2.879A1.962,1.962,0,0,1,65,29.938Z"/><path class="g" d="M91.073,40.827a1.962,1.962,0,0,1-1.387-3.349l2.036-2.036A1.962,1.962,0,1,1,94.5,38.216L92.46,40.252a1.957,1.957,0,0,1-1.387.574Z"/><path class="g" d="M104.689,66.962H101.81a1.962,1.962,0,1,1,0-3.923h2.879a1.962,1.962,0,1,1,0,3.923Z"/><path class="g" d="M92.958,95.071A1.957,1.957,0,0,1,91.57,94.5L89.534,92.46a1.962,1.962,0,0,1,2.775-2.775l2.036,2.036a1.962,1.962,0,0,1-1.387,3.349Z"/><path class="g" d="M64.786,106.652a1.962,1.962,0,0,1-1.962-1.962v-2.879a1.962,1.962,0,1,1,3.923,0v2.879A1.962,1.962,0,0,1,64.786,106.652Z"/><path class="g" d="M36.677,94.92A1.962,1.962,0,0,1,35.29,91.57l2.036-2.036A1.962,1.962,0,1,1,40.1,92.309l-2.036,2.036A1.955,1.955,0,0,1,36.677,94.92Z"/><path class="g" d="M27.976,66.748H25.1a1.962,1.962,0,0,1,0-3.923h2.879a1.962,1.962,0,0,1,0,3.923Z"/><path class="g" d="M38.865,40.676a1.955,1.955,0,0,1-1.387-.575l-2.036-2.036a1.962,1.962,0,0,1,2.774-2.775l2.036,2.036a1.962,1.962,0,0,1-1.387,3.349Z"/><path class="g" d="M65,66.962H48.339a1.962,1.962,0,0,1,0-3.924h14.7V38.08a1.962,1.962,0,0,1,3.923,0V65A1.961,1.961,0,0,1,65,66.962Z"/><path class="h" d="M85.126,77.312a1.955,1.955,0,0,1-.9-.218L64.1,66.744A1.962,1.962,0,1,1,65.9,63.255l20.128,10.35a1.962,1.962,0,0,1-.9,3.707Z"/><circle class="i" cx="5.236" cy="5.236" r="5.236" transform="translate(59.764 59.764)"/></g></g></svg>