<svg xmlns="http://www.w3.org/2000/svg" xmlns:xlink="http://www.w3.org/1999/xlink" width="130" height="130" viewBox="0 0 130 130"><defs><style>.a,.h{fill:#fff;}.a{stroke:#707070;}.b{clip-path:url(#a);}.c{fill:#3a6fd8;}.d{fill:#3b88f5;}.e{fill:#93b7c0;}.f{fill:#acd5df;}.g{fill:#c4f3ff;}.i{fill:#94e368;}.j{fill:#ffd06a;}.k{fill:#ff3e3a;}.l{fill:#ffb820;}.m{fill:#373e9f;}</style><clipPath id="a"><rect class="a" width="130" height="130" transform="translate(1352 452)"/></clipPath></defs><g class="b" transform="translate(-1352 -452)"><g transform="translate(1352 452)"><path class="c" d="M122.153,0,106.459,31.388,130,23.541V1.962A1.962,1.962,0,0,0,128.038,0Z"/><path class="d" d="M0,1.962V23.541l7.847,7.847H122.153V0H1.962A1.962,1.962,0,0,0,0,1.962Z"/><path class="e" d="M122.153,23.541,90.765,59.115l31.388,35.573h5.885A1.962,1.962,0,0,0,130,92.726V23.541Z"/><path class="f" d="M0,23.541V92.726a1.962,1.962,0,0,0,1.962,1.962H122.153V86.841L90.765,59.115l31.388-27.726V23.541Z"/><path class="g" d="M114.306,31.388,67.223,86.841h54.93V31.388Z"/><path class="h" d="M7.847,31.388V86.841H98.612L114.306,41.2V31.388Z"/><circle class="i" cx="3.924" cy="3.924" r="3.924" transform="translate(114.306 7.847)"/><circle class="j" cx="3.924" cy="3.924" r="3.924" transform="translate(98.612 7.847)"/><circle class="k" cx="3.924" cy="3.924" r="3.924" transform="translate(82.918 7.847)"/><path class="h" d="M7.847,7.847H75.07v7.847H7.847Z"/><path class="l" d="M106.459,39.235,75.07,84.618,106.459,130h5.885a1.962,1.962,0,0,0,1.962-1.962V41.2a1.962,1.962,0,0,0-1.962-1.962Z"/><path class="j" d="M106.459,130h-88.8a1.962,1.962,0,0,1-1.962-1.962V41.2a1.962,1.962,0,0,1,1.962-1.962h88.8V67.223l-7.847,5.885,7.847,5.885V94.688l-7.847,5.885,7.847,5.885v7.847l-7.847,3.924,7.847,3.924Z"/><path class="g" d="M98.612,67.223,86.841,73.109l11.771,5.885h7.847V67.223Z"/><path class="h" d="M23.541,67.223h75.07V78.994H23.541Z"/><path class="m" d="M65,61.338H23.541a1.962,1.962,0,0,1,0-3.924H65a1.962,1.962,0,0,1,0,3.924Z"/><path class="c" d="M98.612,114.306l-3.924,3.924,3.924,3.924h7.847v-7.847Z"/><path class="d" d="M72.847,114.306H98.612v7.847H72.847Z"/><path class="g" d="M98.612,94.688l-31.388,5.885,31.388,5.885h7.847V94.688Z"/><path class="h" d="M23.541,94.688h75.07v11.771H23.541Z"/><path class="m" d="M65,88.8H23.541a1.962,1.962,0,0,1,0-3.924H65A1.962,1.962,0,0,1,65,88.8Z"/></g></g></svg>