<svg id="Layer_1" data-name="Layer 1" xmlns="http://www.w3.org/2000/svg" viewBox="0 0 82.17 89.19"><defs><style>.cls-1{fill:#9fe66d;}.cls-2{fill:#678eec;}.cls-3{fill:#230037;}</style></defs><circle class="cls-1" cx="10.09" cy="26.07" r="9.37"/><circle class="cls-1" cx="29.02" cy="9.37" r="9.37"/><circle class="cls-1" cx="72.8" cy="26.07" r="9.37"/><circle class="cls-1" cx="53.87" cy="9.37" r="9.37"/><path class="cls-2" d="M70.41,46.63l0-.05-3.51-6a7.2,7.2,0,1,0-12.44,7.25l3.49,6c3.11,5.48,1.83,11.88-3.27,16.31a20,20,0,0,1-13.19,4.68h0a20,20,0,0,1-13.18-4.68C23.14,65.68,21.85,59.28,25,53.8l3.49-6A7.2,7.2,0,1,0,16,40.56l-3.51,6,0,.05a26.88,26.88,0,0,0-3.17,18A28.07,28.07,0,0,0,18.8,81a34.4,34.4,0,0,0,22.62,8.2h0A34.41,34.41,0,0,0,64.09,81a28.12,28.12,0,0,0,9.49-16.33A26.88,26.88,0,0,0,70.41,46.63Z"/><path class="cls-3" d="M41.44,58a7.84,7.84,0,0,1-7.83-7.83V29.48a7.84,7.84,0,0,1,15.67,0V50.12A7.84,7.84,0,0,1,41.44,58Z"/></svg>