<svg id="Layer_1" data-name="Layer 1" xmlns="http://www.w3.org/2000/svg" viewBox="0 0 91.55 90.57"><defs><style>.cls-1{fill:#5ac0b3;}.cls-2{fill:#230037;}.cls-3{fill:#fff;}</style></defs><path class="cls-1" d="M77.75,13.34a7.09,7.09,0,0,0-10,0l-22,22-5,5-5,5-22,22a7.07,7.07,0,0,0,0,10h0a7.07,7.07,0,0,0,10,0l14.91-14.9V83.49a7.08,7.08,0,0,0,7.08,7.08h0a7.08,7.08,0,0,0,7.07-7.08V62.42l14.91,14.9a7.09,7.09,0,0,0,10,0h0a7.09,7.09,0,0,0,0-10L62.84,52.41H83.92A7.08,7.08,0,0,0,91,45.33h0a7.08,7.08,0,0,0-7.08-7.08H62.84l14.91-14.9a7.09,7.09,0,0,0,0-10Z"/><path class="cls-2" d="M38.59,7.08V28.16L23.68,13.25a7.07,7.07,0,0,0-10,0h0a7.07,7.07,0,0,0,0,10l14.9,14.9H7.5A7.07,7.07,0,0,0,.43,45.24h0A7.07,7.07,0,0,0,7.5,52.32H52.74V7.08A7.07,7.07,0,0,0,45.67,0h0A7.08,7.08,0,0,0,38.59,7.08Z"/><polygon class="cls-3" points="40.75 40.33 35.75 45.33 28.76 52.32 38.59 52.32 52.74 52.32 52.74 42.31 52.74 38.16 52.74 28.33 45.76 35.32 40.75 40.33"/></svg>