<svg xmlns="http://www.w3.org/2000/svg" width="360" height="87.324" viewBox="0 0 360 87.324"><defs><style>.a{fill:#190d30;}.b{fill:none;}.c{fill:#fa7a71;}.d{fill:#7d7179;}</style></defs><g transform="translate(-0.005 0.003)"><path class="a" d="M119.13,14.7h12.16c11.269,0,18.589,5.932,18.589,20.284S142.6,55.26,131.29,55.26H119.13Zm12.16,35.729c8.343,0,13.173-3.73,13.173-15.445s-4.9-15.453-13.173-15.453h-6.735v30.9Z" transform="translate(-15.037 -1.859)"/><path class="a" d="M169.273,39.634l10.692-.437V37.581c0-4.167-2.123-6.587-7.32-6.587s-7.251,2.42-7.4,5.495H160c.218-5.565,4.176-9.889,12.588-9.889s12.3,4.324,12.3,11.278V56.764h-5V53.619a.341.341,0,0,0-.367-.367c-.218,0-.367.07-.585.367-2.123,2.778-5.049,3.949-9,3.949-7.251,0-11.5-3.8-11.5-9.443C158.511,43.075,161.953,39.931,169.273,39.634Zm1.389,13.619c5.643,0,9.3-3.223,9.3-9.443v-.367l-10.692.515c-3.949.14-5.634,1.677-5.634,4.246C163.639,51.278,166.129,53.252,170.662,53.252Z" transform="translate(-20 -3.356)"/><path class="a" d="M191.88,27.61H197l8.421,24.748c.149.358.218.437.585.437s.437-.149.585-.437l8.421-24.748h5.119v1.1L209.15,60.273c-1.9,5.486-4.752,7.32-10.9,7.32h-5.39V63.112h9.076c.585,0,.952-.14,1.092-.585l1.616-4.368c.148-.446.218-.734.07-.952s-.288-.3-.734-.3h-2.263l-9.836-28.2Z" transform="translate(-24.22 -3.482)"/><path class="a" d="M258.319,26.145h-5.495c-.288-5.241-4.027-7.609-9.609-7.609s-9.085,2.271-9.085,6.587,3.59,5.783,7.687,6.517l5.128.874c5.932,1.022,11.714,3.73,11.714,11.417s-6.447,12-14.789,12-16-4.307-16.3-14.012h5.495c.367,6.6,4.9,9.3,10.9,9.3s9.443-2.708,9.443-7.181-3.949-5.932-8.194-6.735l-5.128-.874c-5.416-.952-11.2-3.66-11.2-11.2s6.587-11.5,14.492-11.5S258.022,17.654,258.319,26.145Z" transform="translate(-28.725 -1.738)"/><path class="a" d="M269.3,27.472h5.049v3.293c0,.3.149.367.367.367s.367-.149.585-.515c1.607-2.49,4.315-4.027,8.343-4.027,4.543,0,7.617,1.983,9.225,5.128.149.3.218.437.585.437s.367-.14.585-.585c1.538-3.215,4.543-5.049,9.522-5.049,6.805,0,10.684,4.543,10.684,11.566v18.6h-5.032V38.75c0-5.058-2.49-7.617-7.32-7.617-3.957,0-7.617,2.56-7.617,9.006v16.6h-5.067V38.75c0-5.058-2.49-7.617-7.32-7.617-3.957,0-7.617,2.56-7.617,9.006v16.6H269.22V27.472Z" transform="translate(-33.98 -3.346)"/><path class="a" d="M336.8,39.634,347.48,39.2V37.581c0-4.167-2.123-6.587-7.32-6.587s-7.242,2.42-7.39,5.495h-5.241c.227-5.565,4.176-9.889,12.6-9.889s12.3,4.324,12.3,11.278V56.764h-4.979V53.619a.349.349,0,0,0-.367-.367c-.218,0-.367.07-.585.367-2.123,2.778-5.049,3.949-9.006,3.949-7.242,0-11.5-3.8-11.5-9.443C326,43.075,329.4,39.931,336.8,39.634Zm1.433,13.619c5.635,0,9.295-3.223,9.295-9.443v-.367l-10.684.515c-3.957.14-5.643,1.677-5.643,4.246C331.153,51.278,333.642,53.252,338.229,53.252Z" transform="translate(-41.137 -3.356)"/><path class="a" d="M362.25,27.589h5.023v3.957c0,.288.149.358.367.358.367,0,.437-.14.585-.437,1.319-2.857,3.293-4.027,7.32-4.027h3.293v4.979h-4.027c-4.9,0-7.469,2.193-7.469,7.862v16.6h-5.049V27.589Z" transform="translate(-45.722 -3.462)"/><path class="a" d="M384,26.472h6.735V18.61h5.049v7.906h8.421v4.543h-8.421V50.486c0,.288.079.507.227.585a.7.7,0,0,0,.585.218h7.609v4.543h-4.979c-5.7,0-8.412-2.717-8.412-8.421v-16.4H384Z" transform="translate(-48.472 -2.347)"/><path class="a" d="M326.016,96.456a10.57,10.57,0,0,1-4.481-.874,6.988,6.988,0,0,1-3.005-2.56,7.251,7.251,0,0,1-1.109-3.949h3.721a4.464,4.464,0,0,0,1.293,3.154,5.565,5.565,0,0,0,6.718.314,3.136,3.136,0,0,0,1.153-2.507,3.354,3.354,0,0,0-.55-1.992,4.254,4.254,0,0,0-1.494-1.258,14.2,14.2,0,0,0-2.175-.874q-1.232-.393-2.621-.874a9.539,9.539,0,0,1-4.027-2.324,5.241,5.241,0,0,1-1.345-3.748,5.923,5.923,0,0,1,.874-3.416,6.3,6.3,0,0,1,2.621-2.28,9.242,9.242,0,0,1,4-.812,8.989,8.989,0,0,1,3.966.874,6.4,6.4,0,0,1,2.769,2.219,6.29,6.29,0,0,1,1,3.442h-3.713a3.433,3.433,0,0,0-.463-1.747A3.73,3.73,0,0,0,327.78,75.9a4.2,4.2,0,0,0-2.193-.533,4.141,4.141,0,0,0-2.743.874,2.9,2.9,0,0,0-1.074,2.394,2.682,2.682,0,0,0,.795,2.088,6.185,6.185,0,0,0,2.193,1.214l3.189,1.109A15.875,15.875,0,0,1,331.03,84.4a6.307,6.307,0,0,1,2.175,2.088,6.115,6.115,0,0,1,.812,3.293,6.315,6.315,0,0,1-.874,3.267,6.639,6.639,0,0,1-2.691,2.455,9.426,9.426,0,0,1-4.438.952Z" transform="translate(-40.069 -9.143)"/><path class="a" d="M345.106,97.426a7.556,7.556,0,0,1-3.451-.7,4.8,4.8,0,0,1-2.062-1.861,4.893,4.893,0,0,1-.664-2.507,4.473,4.473,0,0,1,1.861-3.783,8.683,8.683,0,0,1,5.311-1.4h4.315v-.3a3.748,3.748,0,0,0-1.048-2.892,3.861,3.861,0,0,0-2.708-.961,4.446,4.446,0,0,0-2.533.716,2.944,2.944,0,0,0-1.31,2.105h-3.494a5.556,5.556,0,0,1,1.205-3.075,6.858,6.858,0,0,1,2.621-1.957,8.919,8.919,0,0,1,3.494-.681,7.417,7.417,0,0,1,5.346,1.808,6.508,6.508,0,0,1,1.9,4.936V97.024h-3.057l-.3-2.822a6.264,6.264,0,0,1-1.931,2.289,5.94,5.94,0,0,1-3.494.935Zm.7-2.857a4.08,4.08,0,0,0,2.4-.681,4.612,4.612,0,0,0,1.529-1.808,7.188,7.188,0,0,0,.612-2.455h-3.914a4.726,4.726,0,0,0-2.97.725,2.271,2.271,0,0,0-.874,1.826,2.123,2.123,0,0,0,.874,1.747,3.713,3.713,0,0,0,2.306.646Z" transform="translate(-42.773 -10.112)"/><path class="a" d="M360.13,96.011V72.11h3.494v23.9Z" transform="translate(-45.454 -9.099)"/><path class="a" d="M375.908,97.425a8.343,8.343,0,0,1-4.228-1.083,7.862,7.862,0,0,1-2.97-3.023,9.032,9.032,0,0,1-1.1-4.569,8.936,8.936,0,0,1,1.118-4.525,7.862,7.862,0,0,1,3-3.023,8.8,8.8,0,0,1,8.456,0,7.941,7.941,0,0,1,2.988,3.023,9.8,9.8,0,0,1,0,9.059,7.984,7.984,0,0,1-2.988,3.057,8.491,8.491,0,0,1-4.272,1.083Zm0-3.023a4.473,4.473,0,0,0,2.341-.638A4.648,4.648,0,0,0,380,91.9a6.63,6.63,0,0,0,.664-3.11,6.735,6.735,0,0,0-.646-3.1,4.574,4.574,0,0,0-8.177,0,7.591,7.591,0,0,0,0,6.211,4.6,4.6,0,0,0,1.747,1.869A4.368,4.368,0,0,0,375.908,94.4Z" transform="translate(-46.399 -10.111)"/><path class="a" d="M390.06,97.029V80.562h3.119l.271,2.892a5.67,5.67,0,0,1,2.236-2.411,6.552,6.552,0,0,1,3.407-.874,6.115,6.115,0,0,1,4.7,1.861,7.835,7.835,0,0,1,1.747,5.547v9.452h-3.494V87.935q0-4.787-3.914-4.787a4.219,4.219,0,0,0-3.241,1.4,5.7,5.7,0,0,0-1.275,3.983v8.5Z" transform="translate(-49.238 -10.117)"/><path class="b" d="M39.8,25.94h0L29.339,36.58h0Z" transform="translate(-3.708 -3.275)"/><path class="b" d="M54.281,41.421l4.988-5.075L48.62,25.88h0L59.269,36.345Z" transform="translate(-6.147 -3.267)"/><path class="c" d="M53.122,36.193h0l-4.988,5.078-6.115,6.187a3.642,3.642,0,0,1-5.163,0L25.622,36.421h0L14.991,25.933a4.524,4.524,0,0,0-6.386.052L1.294,33.432a4.528,4.528,0,0,0,.052,6.38L11.995,50.3h0L25.579,63.67c7.775,7.6,20.538,7.673,28.033-.262a19.451,19.451,0,0,0-.48-27.223h0Z" transform="translate(0 -3.116)"/><path class="d" d="M80.265,29.7,69.616,19.218h0L55.753,5.582A19.44,19.44,0,1,0,28.48,33.291h0l10.483-10.64h0L39.4,22.2a3.887,3.887,0,0,1,5.495-.044l.446.446h0L55.989,33.081h0L66.637,43.547a4.516,4.516,0,0,0,6.386-.061l7.3-7.425a4.508,4.508,0,0,0-.061-6.36Z" transform="translate(-2.866)"/><path class="a" d="M29.33,36.35h0L40.59,47.427a3.643,3.643,0,0,0,5.163,0l6.115-6.185,4.988-5.075L46.207,25.684l-.446-.446a3.887,3.887,0,0,0-5.495.044l-.437.454L29.347,36.377Z" transform="translate(-3.708 -3.044)"/><path class="a" d="M404.007,18.407V14.913h-1.2v-.6h3.145v.6h-1.232v3.494Z" transform="translate(-50.85 -1.81)"/><path class="a" d="M407.05,18.406V14.3h.874l1.3,2.621,1.293-2.621h.874v4.106h-.751V15.532L409.5,17.777H408.9l-1.136-2.245v2.874Z" transform="translate(-51.386 -1.808)"/></g></svg>