<svg id="Layer_1" data-name="Layer 1" xmlns="http://www.w3.org/2000/svg" viewBox="0 0 413.04 109.85"><defs><style>.cls-1{fill:#190d30;}.cls-2{fill:#b8abf1;}.cls-3{fill:#60cf86;}</style></defs><path class="cls-1" d="M119.33,16.72h13.91c12.91,0,21.29,6.79,21.29,23.21s-8.38,23.22-21.29,23.22H119.33Zm13.91,40.9c9.56,0,15.09-4.28,15.09-17.69s-5.62-17.68-15.09-17.68h-7.71V57.62Z"/><path class="cls-1" d="M171,43.54l12.24-.5V41.19c0-4.78-2.43-7.54-8.38-7.54s-8.3,2.76-8.47,6.28h-6c.25-6.36,4.77-11.31,14.41-11.31s14.08,4.95,14.08,12.91V63.15h-5.7v-3.6a.39.39,0,0,0-.42-.42c-.25,0-.42.08-.67.42-2.43,3.18-5.78,4.52-10.31,4.52-8.29,0-13.15-4.36-13.15-10.81C158.72,47.48,162.66,43.87,171,43.54Zm1.59,15.59c6.46,0,10.65-3.69,10.65-10.81V47.9L171,48.48c-4.53.17-6.45,1.93-6.45,4.86C164.59,56.86,167.44,59.13,172.63,59.13Z"/><path class="cls-1" d="M192.08,29.63h5.86L207.58,58c.17.42.25.51.67.51s.5-.17.67-.51l9.64-28.32h5.86v1.25L211.85,67c-2.18,6.29-5.44,8.38-12.48,8.38h-6.21V70.27h10.4c.67,0,1.09-.17,1.25-.67l1.85-5c.16-.5.25-.83.08-1.09s-.33-.33-.84-.33h-2.59L192.08,30.88Z"/><path class="cls-1" d="M263,30h-6.29c-.33-6-4.61-8.71-11-8.71s-10.39,2.59-10.39,7.54,4.11,6.62,8.8,7.46l5.87,1c6.79,1.18,13.41,4.28,13.41,13.08S256,64.07,246.46,64.07,228.11,59.13,227.77,48h6.29c.41,7.54,5.61,10.64,12.48,10.64s10.81-3.1,10.81-8.21-4.52-6.79-9.38-7.71l-5.87-1c-6.2-1.08-12.82-4.19-12.82-12.82s7.54-13.15,16.59-13.15S262.63,20.24,263,30Z"/><path class="cls-1" d="M269.51,29.63h5.78V33.4c0,.33.17.42.42.42s.42-.17.67-.59c1.84-2.85,4.94-4.61,9.55-4.61,5.2,0,8.72,2.26,10.56,5.87.17.33.25.5.67.5s.42-.17.67-.67c1.76-3.69,5.2-5.78,10.9-5.78,7.79,0,12.23,5.19,12.23,13.24V63.06h-5.78V42.53c0-5.78-2.85-8.71-8.38-8.71-4.53,0-8.72,2.93-8.72,10.3v19H292.3V42.53c0-5.78-2.85-8.71-8.38-8.71-4.53,0-8.72,2.93-8.72,10.3v19h-5.78V29.63Z"/><path class="cls-1" d="M338.56,43.54l12.23-.5V41.19c0-4.78-2.43-7.54-8.38-7.54s-8.3,2.76-8.46,6.28h-6c.25-6.36,4.78-11.31,14.42-11.31s14.08,4.95,14.08,12.91V63.15h-5.7v-3.6a.39.39,0,0,0-.42-.42c-.25,0-.42.08-.67.42-2.43,3.18-5.78,4.52-10.31,4.52-8.3,0-13.16-4.36-13.16-10.81C326.24,47.48,330.09,43.87,338.56,43.54Zm1.59,15.59c6.45,0,10.64-3.69,10.64-10.81V47.9l-12.23.58c-4.53.17-6.46,1.93-6.46,4.86C332.1,56.86,335,59.13,340.15,59.13Z"/><path class="cls-1" d="M362.44,29.63h5.79v4.52c0,.34.16.42.42.42.41,0,.5-.17.67-.5,1.5-3.27,3.77-4.61,8.38-4.61h3.77v5.7h-4.61c-5.62,0-8.55,2.51-8.55,9v19h-5.78V29.63Z"/><path class="cls-1" d="M384.15,29.63h7.71v-9h5.78v9.05h9.64v5.19h-9.64V57.11c0,.34.09.59.25.68a.86.86,0,0,0,.67.25h8.72v5.19h-5.7c-6.54,0-9.64-3.1-9.64-9.64V34.82h-7.71V29.63Z"/><path class="cls-1" d="M355.07,101.94a12.11,12.11,0,0,1-5.13-1A8.1,8.1,0,0,1,346.5,98a8.41,8.41,0,0,1-1.27-4.52h4.26A5.11,5.11,0,0,0,351,97.08a6.37,6.37,0,0,0,7.69.36A3.59,3.59,0,0,0,360,94.57a3.8,3.8,0,0,0-.63-2.28,4.87,4.87,0,0,0-1.71-1.44,15.31,15.31,0,0,0-2.49-1c-.94-.3-1.93-.63-3-1a10.9,10.9,0,0,1-4.62-2.66A6,6,0,0,1,346,81.88a6.81,6.81,0,0,1,1-3.92,7.32,7.32,0,0,1,3-2.6,10.58,10.58,0,0,1,4.58-.93,10.15,10.15,0,0,1,4.54.95A7.33,7.33,0,0,1,362.29,78,7.19,7.19,0,0,1,363.43,82h-4.25a3.92,3.92,0,0,0-.53-2,4.19,4.19,0,0,0-1.56-1.54,4.81,4.81,0,0,0-2.51-.61,4.69,4.69,0,0,0-3.14,1,3.31,3.31,0,0,0-1.23,2.73,3.09,3.09,0,0,0,.91,2.4,7.17,7.17,0,0,0,2.51,1.39l3.65,1.27a17.9,17.9,0,0,1,3.53,1.56,7.13,7.13,0,0,1,2.49,2.39,7,7,0,0,1,.93,3.76,7.24,7.24,0,0,1-1,3.75,7.6,7.6,0,0,1-3.08,2.81A10.79,10.79,0,0,1,355.07,101.94Z"/><path class="cls-1" d="M367.63,109.85V82.64h3.61l.42,2.92a8.63,8.63,0,0,1,2.51-2.35,7.4,7.4,0,0,1,4.1-1,9,9,0,0,1,4.83,1.29A9.13,9.13,0,0,1,386.39,87a10.71,10.71,0,0,1,1.19,5.09,10.6,10.6,0,0,1-1.19,5.07,9,9,0,0,1-3.29,3.5,9.19,9.19,0,0,1-4.87,1.27,8.35,8.35,0,0,1-3.89-.87,6.72,6.72,0,0,1-2.68-2.47v11.25Zm9.92-11.4a5.62,5.62,0,0,0,4.26-1.77,6.47,6.47,0,0,0,1.67-4.62,7,7,0,0,0-.76-3.3,5.58,5.58,0,0,0-5.17-3.08,5.52,5.52,0,0,0-4.24,1.78,7.27,7.27,0,0,0,0,9.22A5.55,5.55,0,0,0,377.55,98.45Z"/><path class="cls-1" d="M397.13,101.94a8.68,8.68,0,0,1-3.95-.79A5.56,5.56,0,0,1,390.86,99a5.7,5.7,0,0,1-.76-2.87,5.14,5.14,0,0,1,2.13-4.34,10,10,0,0,1,6.08-1.59h4.94V89.9a4.27,4.27,0,0,0-1.2-3.31,4.39,4.39,0,0,0-3.09-1.1,5.17,5.17,0,0,0-2.91.81,3.45,3.45,0,0,0-1.5,2.42h-4a6.37,6.37,0,0,1,1.39-3.52A7.81,7.81,0,0,1,395,83a10.25,10.25,0,0,1,4-.78,8.49,8.49,0,0,1,6.12,2.07,7.42,7.42,0,0,1,2.17,5.65v11.59h-3.5l-.34-3.23a7.08,7.08,0,0,1-2.32,2.62A6.8,6.8,0,0,1,397.13,101.94Zm.8-3.27a4.8,4.8,0,0,0,2.76-.77,5.22,5.22,0,0,0,1.74-2.08,8.23,8.23,0,0,0,.78-2.85h-4.48a5.34,5.34,0,0,0-3.4.84,2.61,2.61,0,0,0-1,2.09,2.4,2.4,0,0,0,1,2A4.22,4.22,0,0,0,397.93,98.67Z"/><path class="cls-2" d="M27.23,12.87A24.44,24.44,0,0,0,16.61,15.3a4.91,4.91,0,0,0-1.88,6.83A36.46,36.46,0,0,0,37.07,39.39a33.26,33.26,0,0,0,8.2,1V20.69A25.08,25.08,0,0,0,27.23,12.87Z"/><path class="cls-2" d="M73.92,15.3a24.4,24.4,0,0,0-10.61-2.43,25.06,25.06,0,0,0-18,7.82h0V40.42a33.12,33.12,0,0,0,8.19-1h0A36.51,36.51,0,0,0,75.81,22.13,4.91,4.91,0,0,0,73.92,15.3Z"/><path class="cls-1" d="M55.61,19.37v.4c0,8.14-4,15.47-10.34,20.65C38.9,35.24,34.92,27.91,34.92,19.77c0-.13,0-.27,0-.4s0-.27,0-.4A25.93,25.93,0,0,1,42,1.42a4.54,4.54,0,0,1,6.59,0,25.88,25.88,0,0,1,7,17.55Z"/><path class="cls-3" d="M27.94,78.43A43,43,0,0,1,45.27,51.86,42.92,42.92,0,0,0,2.94,47.73,5,5,0,0,0,.57,54.56,50.72,50.72,0,0,0,27.94,78.43Z"/><path class="cls-3" d="M45.27,51.86A42.92,42.92,0,0,1,62.59,78.43,50.71,50.71,0,0,0,90,54.56a5,5,0,0,0-2.38-6.83,42.9,42.9,0,0,0-42.32,4.13Z"/><path class="cls-1" d="M45.27,51.86A43,43,0,0,0,27.94,78.43a50.73,50.73,0,0,0,34.65,0A42.92,42.92,0,0,0,45.27,51.86Z"/><path class="cls-1" d="M404.72,22.45v-4h-1.37v-.69H407v.69h-1.37v4Z"/><path class="cls-1" d="M407.59,22.45v-4.7h1l1.49,3,1.48-3h1v4.7h-.86V19.21l-1.31,2.57h-.68l-1.3-2.57v3.24Z"/></svg>