<svg xmlns="http://www.w3.org/2000/svg" width="360" height="100.305" viewBox="0 0 360 100.305"><defs><style>.a{fill:#190d30;}.b{fill:#5ac0b3;}.c{fill:#230037;}.d{fill:#fff;}</style></defs><g transform="translate(-0.43)"><path class="a" d="M267.65,103.3V80.26h8.722a7.845,7.845,0,0,1,5.434,1.675,5.443,5.443,0,0,1,1.849,4.2,4.989,4.989,0,0,1-1.186,3.489,5.922,5.922,0,0,1-2.861,1.744,5.652,5.652,0,0,1,2.355,1.047,5.721,5.721,0,0,1,1.631,1.98,5.652,5.652,0,0,1,.584,2.564,6.027,6.027,0,0,1-.872,3.21,5.9,5.9,0,0,1-2.547,2.25,9.255,9.255,0,0,1-4.117.872Zm3.489-13.171h4.771a4.431,4.431,0,0,0,3.061-.933,3.262,3.262,0,0,0,1.055-2.617,3.314,3.314,0,0,0-1.038-2.564,4.492,4.492,0,0,0-3.14-.959h-4.71Zm0,10.3h5.007a4.884,4.884,0,0,0,3.271-.986,3.428,3.428,0,0,0,1.169-2.765,3.489,3.489,0,0,0-1.221-2.809,4.9,4.9,0,0,0-3.288-1.038h-4.937Z" transform="translate(-34.145 -10.256)"/><path class="a" d="M296.562,104.613a8.225,8.225,0,0,1-4.2-1.073,7.771,7.771,0,0,1-2.948-2.992,9.725,9.725,0,0,1,0-8.984,7.85,7.85,0,0,1,2.983-2.992,8.722,8.722,0,0,1,8.382,0,7.85,7.85,0,0,1,2.957,2.992,9.725,9.725,0,0,1,0,8.984,7.85,7.85,0,0,1-2.974,2.992A8.365,8.365,0,0,1,296.562,104.613Zm0-2.992a4.518,4.518,0,0,0,2.32-.628,4.693,4.693,0,0,0,1.744-1.858,6.542,6.542,0,0,0,.654-3.079,6.655,6.655,0,0,0-.637-3.079,4.544,4.544,0,0,0-6.358-1.858,4.692,4.692,0,0,0-1.744,1.858,7.571,7.571,0,0,0,0,6.158,4.675,4.675,0,0,0,1.744,1.858,4.361,4.361,0,0,0,2.277.628Z" transform="translate(-36.787 -11.181)"/><path class="a" d="M317.128,103.591a7.649,7.649,0,0,1-6.978-4.178A9.359,9.359,0,0,1,309.13,95a9.228,9.228,0,0,1,1.021-4.361A7.65,7.65,0,0,1,313,87.6a7.963,7.963,0,0,1,4.2-1.1,7.292,7.292,0,0,1,3.4.759,5.573,5.573,0,0,1,2.285,2.137V79.5h3.489v23.7h-3.123l-.366-2.538a7.431,7.431,0,0,1-2.172,2.041,6.428,6.428,0,0,1-3.585.89Zm.628-3.027a4.736,4.736,0,0,0,3.663-1.553,6.271,6.271,0,0,0,0-7.972,4.788,4.788,0,0,0-3.681-1.509,4.858,4.858,0,0,0-3.689,1.535A5.556,5.556,0,0,0,312.6,95.06a6.105,6.105,0,0,0,.654,2.861,4.919,4.919,0,0,0,4.483,2.669Z" transform="translate(-39.446 -10.159)"/><path class="a" d="M333.969,111.55l3.916-8.591h-.951L330.48,88h3.785l5.007,12.08L344.505,88h3.69l-10.528,23.55Z" transform="translate(-42.174 -11.245)"/><path class="a" d="M359,103.3l8.5-23.035h3.812l8.426,23.035h-3.681l-1.98-5.626h-9.411L362.69,103.3Zm6.646-8.391h7.44l-3.716-10.467Z" transform="translate(-45.818 -10.256)"/><path class="a" d="M384.49,104.226V87.942h3.131l.3,3.1a6.438,6.438,0,0,1,2.381-2.547,6.978,6.978,0,0,1,3.707-.942V91.2h-.959a6.55,6.55,0,0,0-2.617.48,3.742,3.742,0,0,0-1.805,1.6,6.106,6.106,0,0,0-.68,3.149v7.85Z" transform="translate(-49.075 -11.187)"/><path class="a" d="M404.484,103.677a5.818,5.818,0,0,1-3.812-1.169c-.951-.776-1.422-2.172-1.422-4.169V90.28H396.46V87.393h2.791l.427-4.143h3.061v4.143h4.605v2.931H402.74v8.059a2.425,2.425,0,0,0,.576,1.867,3.026,3.026,0,0,0,2,.506h1.875v2.966Z" transform="translate(-50.605 -10.638)"/><path class="a" d="M119.34,22.11h12.133c11.252,0,18.561,5.922,18.561,20.253s-7.309,20.244-18.561,20.244H119.34Zm12.133,35.665c8.33,0,13.153-3.724,13.153-15.421s-4.893-15.43-13.153-15.43h-6.725v30.85Z" transform="translate(-15.194 -2.825)"/><path class="a" d="M169.421,47.022l10.676-.436V44.973c0-4.16-2.119-6.577-7.309-6.577s-7.239,2.416-7.388,5.486h-5.233c.227-5.521,4.178-9.882,12.577-9.882s12.281,4.361,12.281,11.26V64.126h-4.972v-3.14a.34.34,0,0,0-.366-.366c-.218,0-.358.07-.584.366-2.119,2.774-5.041,3.942-8.984,3.942-7.239,0-11.478-3.794-11.478-9.429C158.71,50.459,162.146,47.319,169.421,47.022Zm1.387,13.6c5.635,0,9.289-3.218,9.289-9.429v-.366l-10.676.515c-3.942.14-5.626,1.675-5.626,4.239.035,3.07,2.521,5.041,7.048,5.041Z" transform="translate(-20.216 -4.345)"/><path class="a" d="M192.08,35h5.111L205.6,59.71c.148.358.218.436.584.436s.436-.148.584-.436L215.176,35h5.12v1.1L209.333,67.621c-1.9,5.478-4.754,7.309-10.894,7.309h-5.408V70.464h9.062c.584,0,.951-.14,1.1-.584l1.6-4.361c.148-.445.218-.733.07-.951s-.288-.3-.724-.3h-2.268l-9.8-28.155Z" transform="translate(-24.489 -4.472)"/><path class="a" d="M258.5,33.53h-5.486c-.288-5.233-4.012-7.6-9.594-7.6s-9.071,2.268-9.071,6.577,3.585,5.774,7.676,6.507l5.12.872c5.922,1.02,11.7,3.724,11.7,11.4s-6.446,11.993-14.767,11.993-16.005-4.309-16.3-14.034h5.486c.366,6.585,4.893,9.289,10.885,9.289s9.437-2.7,9.437-7.17-3.951-5.931-8.164-6.725l-5.12-.872c-5.408-.951-11.182-3.655-11.182-11.182s6.577-11.478,14.47-11.478S258.184,25.052,258.5,33.53Z" transform="translate(-29.05 -2.697)"/><path class="a" d="M269.5,34.861h5.041v3.288c0,.3.148.366.366.366s.366-.148.584-.515c1.6-2.486,4.309-4.021,8.33-4.021,4.536,0,7.606,1.98,9.211,5.12.148.3.218.436.584.436s.366-.14.584-.584c1.535-3.21,4.536-5.041,9.507-5.041,6.795,0,10.667,4.536,10.667,11.548V64.045h-5.041V46.139c0-5.05-2.486-7.606-7.309-7.606-3.951,0-7.606,2.556-7.606,8.993V64.1h-5.041V46.139c0-5.05-2.486-7.606-7.309-7.606-3.942,0-7.6,2.556-7.6,8.993V64.1h-5.05V34.861Z" transform="translate(-34.372 -4.333)"/><path class="a" d="M336.976,47.022l10.667-.436V44.973c0-4.16-2.12-6.577-7.309-6.577s-7.231,2.416-7.379,5.486h-5.233c.192-5.521,4.134-9.882,12.543-9.882s12.281,4.361,12.281,11.26V64.126h-4.972v-3.14a.349.349,0,0,0-.366-.366c-.218,0-.366.07-.584.366-2.12,2.774-5.041,3.942-8.993,3.942-7.231,0-11.47-3.794-11.47-9.429C326.23,50.459,329.588,47.319,336.976,47.022Zm1.387,13.6c5.626,0,9.28-3.218,9.28-9.429v-.366l-10.667.515c-3.951.14-5.626,1.675-5.626,4.239,0,3.07,2.521,5.041,7.013,5.041Z" transform="translate(-41.622 -4.345)"/><path class="a" d="M362.45,34.978h5.041v3.951c0,.288.148.358.366.358.366,0,.436-.14.584-.436,1.317-2.852,3.288-4.021,7.309-4.021h3.288V39.8h-4.021c-4.893,0-7.457,2.189-7.457,7.85V64.224H362.52V34.978Z" transform="translate(-46.259 -4.451)"/><path class="a" d="M384.15,33.85h6.725V26h5.05v7.85h8.4v4.536h-8.4V57.845c0,.288.07.506.218.584a.7.7,0,0,0,.584.218h7.6v4.536h-4.972c-5.7,0-8.4-2.713-8.4-8.408V38.4h-6.725V33.85Z" transform="translate(-49.032 -3.322)"/><path class="b" d="M69.307,13.076a6.184,6.184,0,0,0-8.722,0L41.4,32.265l-4.361,4.361-4.361,4.361L13.485,60.176a6.167,6.167,0,0,0,0,8.722h0a6.167,6.167,0,0,0,8.722,0l13-13v18.36a6.175,6.175,0,0,0,6.175,6.175h0a6.175,6.175,0,0,0,6.167-6.175V55.885l13,13a6.184,6.184,0,0,0,8.722,0h0a6.184,6.184,0,0,0,0-8.722l-12.979-13H74.689a6.175,6.175,0,0,0,6.175-6.175h0A6.175,6.175,0,0,0,74.689,34.8H56.3l13-13a6.184,6.184,0,0,0,0-8.722Z" transform="translate(-1.437 -1.441)"/><path class="c" d="M33.714,6.175V24.562l-13-13a6.167,6.167,0,0,0-8.722,0h0a6.167,6.167,0,0,0,0,8.722l13,13H6.6A6.167,6.167,0,0,0,.43,39.459h0A6.167,6.167,0,0,0,6.6,45.635H46.056V6.175A6.167,6.167,0,0,0,39.889,0h0a6.175,6.175,0,0,0-6.175,6.175Z" transform="translate(0 0)"/><path class="d" d="M39.218,38.8l-4.361,4.361-6.1,6.1H49.676V28.33l-6.088,6.1Z" transform="translate(-3.62 -3.62)"/><path class="a" d="M405.16,26.541V23.052H404v-.6h3.14v.6h-1.195v3.489Z" transform="translate(-51.568 -2.869)"/><path class="a" d="M408.2,26.541V22.45h.872l1.3,2.617,1.291-2.617h.872v4.091h-.75V23.715l-1.143,2.242h-.584l-1.143-2.242v2.826Z" transform="translate(-52.105 -2.869)"/></g></svg>