<svg id="Layer_1" data-name="Layer 1" xmlns="http://www.w3.org/2000/svg" viewBox="0 0 403.35 106.65"><defs><style>.cls-1{fill:#190d30;}.cls-2{fill:#9fe66d;}.cls-3{fill:#678eec;}.cls-4{fill:#230037;}</style></defs><path class="cls-1" d="M109.64,21.42h13.91c12.91,0,21.29,6.79,21.29,23.22s-8.38,23.21-21.29,23.21H109.64Zm13.91,40.9c9.56,0,15.09-4.27,15.09-17.68S133,27,123.55,27h-7.71V62.32Z"/><path class="cls-1" d="M161.35,48.24l12.23-.5V45.89c0-4.77-2.43-7.54-8.38-7.54s-8.29,2.77-8.46,6.29h-6c.25-6.37,4.77-11.32,14.41-11.32s14.08,5,14.08,12.91V67.85h-5.7v-3.6a.4.4,0,0,0-.42-.42c-.25,0-.42.08-.67.42-2.43,3.18-5.78,4.52-10.31,4.52C153.81,68.77,149,64.42,149,58,149,52.18,153,48.58,161.35,48.24Zm1.59,15.59c6.45,0,10.64-3.69,10.64-10.81V52.6l-12.23.59c-4.53.16-6.45,1.92-6.45,4.86C154.9,61.57,157.75,63.83,162.94,63.83Z"/><path class="cls-1" d="M182.38,34.33h5.87l9.64,28.33c.17.41.25.5.67.5s.5-.17.67-.5l9.64-28.33h5.86v1.26L202.16,71.71c-2.18,6.28-5.45,8.38-12.48,8.38h-6.21V75h10.4c.67,0,1.08-.16,1.25-.67l1.85-5c.16-.51.25-.84.08-1.09s-.34-.34-.84-.34h-2.6L182.38,35.59Z"/><path class="cls-1" d="M253.28,34.66H247c-.33-6-4.61-8.71-11-8.71s-10.39,2.6-10.39,7.54,4.11,6.62,8.8,7.46l5.87,1c6.79,1.17,13.41,4.27,13.41,13.07s-7.38,13.74-16.93,13.74-18.36-4.94-18.69-16.09h6.28c.42,7.55,5.62,10.65,12.49,10.65s10.81-3.1,10.81-8.22-4.52-6.79-9.38-7.71l-5.87-1c-6.2-1.09-12.82-4.19-12.82-12.82s7.54-13.16,16.59-13.16S252.94,24.94,253.28,34.66Z"/><path class="cls-1" d="M259.81,34.33h5.79V38.1c0,.34.16.42.42.42s.41-.17.67-.59c1.84-2.85,4.94-4.61,9.55-4.61,5.2,0,8.72,2.27,10.56,5.87.17.34.25.5.67.5s.42-.16.67-.67c1.76-3.68,5.2-5.78,10.89-5.78,7.8,0,12.24,5.2,12.24,13.24V67.77h-5.78V47.24c0-5.79-2.85-8.72-8.38-8.72-4.53,0-8.72,2.93-8.72,10.31v19h-5.78V47.24c0-5.79-2.85-8.72-8.38-8.72-4.53,0-8.72,2.93-8.72,10.31v19h-5.78V34.33Z"/><path class="cls-1" d="M328.86,48.24l12.24-.5V45.89c0-4.77-2.43-7.54-8.38-7.54s-8.3,2.77-8.46,6.29h-6c.25-6.37,4.78-11.32,14.42-11.32s14.07,5,14.07,12.91V67.85H341v-3.6a.4.4,0,0,0-.42-.42c-.25,0-.42.08-.67.42-2.43,3.18-5.79,4.52-10.31,4.52-8.3,0-13.16-4.35-13.16-10.81C316.55,52.18,320.4,48.58,328.86,48.24Zm1.6,15.59c6.45,0,10.64-3.69,10.64-10.81V52.6l-12.24.59c-4.52.16-6.45,1.92-6.45,4.86C322.41,61.57,325.26,63.83,330.46,63.83Z"/><path class="cls-1" d="M352.75,34.33h5.79v4.53c0,.33.16.41.41.41.42,0,.51-.16.68-.5,1.5-3.27,3.77-4.61,8.38-4.61h3.77v5.7h-4.61c-5.62,0-8.55,2.51-8.55,9v19h-5.78V34.33Z"/><path class="cls-1" d="M374.46,34.33h7.71v-9H388v9h9.64v5.2H388V61.82a.75.75,0,0,0,.25.67.83.83,0,0,0,.67.25h8.72v5.2h-5.7c-6.54,0-9.64-3.11-9.64-9.64V39.53h-7.71v-5.2Z"/><path class="cls-1" d="M344.83,106.19V79.59h9.31a11.31,11.31,0,0,1,5.17,1,7.18,7.18,0,0,1,3.06,2.85,8.74,8.74,0,0,1,0,8.06,6.9,6.9,0,0,1-3,2.87,11.33,11.33,0,0,1-5.24,1.06h-5.28v10.72Zm4-14H354A5.62,5.62,0,0,0,358,90.93a4.51,4.51,0,0,0,1.24-3.36A4.62,4.62,0,0,0,358,84.13,5.58,5.58,0,0,0,354,82.89h-5.09Z"/><path class="cls-1" d="M374.23,106.65a9.72,9.72,0,0,1-4.92-1.24A8.75,8.75,0,0,1,366,102a10.46,10.46,0,0,1-1.22-5.13,10.89,10.89,0,0,1,1.2-5.21,8.7,8.7,0,0,1,3.34-3.49,9.72,9.72,0,0,1,5-1.26,9.14,9.14,0,0,1,4.83,1.24,8.68,8.68,0,0,1,3.19,3.29,9.12,9.12,0,0,1,1.14,4.52c0,.25,0,.52,0,.82s0,.61-.05,1H368.69a5.79,5.79,0,0,0,1.8,4.17,5.5,5.5,0,0,0,3.74,1.42,5,5,0,0,0,2.87-.78,4.66,4.66,0,0,0,1.73-2.11h4a8.54,8.54,0,0,1-3,4.45A8.79,8.79,0,0,1,374.23,106.65Zm0-16.46a5.7,5.7,0,0,0-3.57,1.2,5.21,5.21,0,0,0-1.9,3.59H379.4a4.77,4.77,0,0,0-1.56-3.5A5.2,5.2,0,0,0,374.23,90.19Z"/><path class="cls-1" d="M394.28,106.19a6.71,6.71,0,0,1-4.41-1.35q-1.64-1.35-1.63-4.81V90.72H385V87.34h3.23l.49-4.79h3.54v4.79h5.32v3.38h-5.32V100a2.8,2.8,0,0,0,.66,2.15,3.51,3.51,0,0,0,2.3.59h2.17v3.42Z"/><circle class="cls-2" cx="10.09" cy="26.07" r="9.37"/><circle class="cls-2" cx="29.02" cy="9.37" r="9.37"/><circle class="cls-2" cx="72.8" cy="26.07" r="9.37"/><circle class="cls-2" cx="53.87" cy="9.37" r="9.37"/><path class="cls-3" d="M70.41,46.63l0-.05-3.51-6a7.2,7.2,0,1,0-12.44,7.25l3.49,6c3.11,5.48,1.83,11.88-3.27,16.31a20,20,0,0,1-13.19,4.68h0a20,20,0,0,1-13.18-4.68C23.14,65.68,21.85,59.28,25,53.8l3.49-6A7.2,7.2,0,1,0,16,40.56l-3.51,6,0,.05a26.88,26.88,0,0,0-3.17,18A28.07,28.07,0,0,0,18.8,81a34.4,34.4,0,0,0,22.62,8.2h0A34.41,34.41,0,0,0,64.09,81a28.12,28.12,0,0,0,9.49-16.33A26.88,26.88,0,0,0,70.41,46.63Z"/><path class="cls-4" d="M41.44,58a7.84,7.84,0,0,1-7.83-7.83V29.48a7.84,7.84,0,0,1,15.67,0V50.12A7.84,7.84,0,0,1,41.44,58Z"/><path class="cls-1" d="M395.47,26.12v-4H394.1v-.69h3.6v.69h-1.37v4Z"/><path class="cls-1" d="M398.34,26.12v-4.7h1l1.49,3,1.48-3h1v4.7h-.86V22.88l-1.31,2.57h-.67l-1.31-2.57v3.24Z"/></svg>