<svg xmlns="http://www.w3.org/2000/svg" viewBox="0 0 90.54 81.48"><defs><style>.cls-1{fill:#b8abf1;}.cls-2{fill:#190d30;}.cls-3{fill:#60cf86;}</style></defs><g id="Layer_2" data-name="Layer 2"><g id="Layer_1-2" data-name="Layer 1"><path class="cls-1" d="M27.23,12.87A24.44,24.44,0,0,0,16.61,15.3a4.91,4.91,0,0,0-1.88,6.83A36.46,36.46,0,0,0,37.07,39.39a33.26,33.26,0,0,0,8.2,1V20.69A25.08,25.08,0,0,0,27.23,12.87Z"/><path class="cls-1" d="M73.92,15.3a24.4,24.4,0,0,0-10.61-2.43,25.06,25.06,0,0,0-18,7.82h0V40.42a33.12,33.12,0,0,0,8.19-1h0A36.51,36.51,0,0,0,75.81,22.13,4.91,4.91,0,0,0,73.92,15.3Z"/><path class="cls-2" d="M55.61,19.37v.4c0,8.14-4,15.47-10.34,20.65C38.9,35.24,34.92,27.91,34.92,19.77c0-.13,0-.27,0-.4s0-.27,0-.4A25.93,25.93,0,0,1,42,1.42a4.54,4.54,0,0,1,6.59,0,25.88,25.88,0,0,1,7,17.55Z"/><path class="cls-3" d="M27.94,78.43A43,43,0,0,1,45.27,51.86,42.92,42.92,0,0,0,2.94,47.73,5,5,0,0,0,.57,54.56,50.72,50.72,0,0,0,27.94,78.43Z"/><path class="cls-3" d="M45.27,51.86A42.92,42.92,0,0,1,62.59,78.43,50.71,50.71,0,0,0,90,54.56a5,5,0,0,0-2.38-6.83,42.9,42.9,0,0,0-42.32,4.13Z"/><path class="cls-2" d="M45.27,51.86A43,43,0,0,0,27.94,78.43a50.73,50.73,0,0,0,34.65,0A42.92,42.92,0,0,0,45.27,51.86Z"/></g></g></svg>