<svg id="Layer_1" data-name="Layer 1" xmlns="http://www.w3.org/2000/svg" viewBox="0 0 90.14 75.84"><defs><style>.cls-1{fill:none;}.cls-2{fill:#fa7a71;}.cls-3{fill:#7d7179;}.cls-4{fill:#190d30;}</style></defs><polygon class="cls-1" points="41.32 25.94 41.32 25.94 29.34 38.12 29.33 38.12 29.34 38.12 41.32 25.94"/><polygon class="cls-1" points="55.1 43.67 60.81 37.86 48.62 25.88 48.62 25.88 60.81 37.86 55.1 43.67"/><path class="cls-2" d="M60.81,37.86h0L55.1,43.67l-7,7.08a4.17,4.17,0,0,1-5.91,0L29.33,38.12h0l-12.17-12a5.18,5.18,0,0,0-7.31.06L1.48,34.7A5.18,5.18,0,0,0,1.54,42L13.73,54h0l15.55,15.3C38.18,78,52.79,78.08,61.37,69a22.25,22.25,0,0,0-.55-31.15v0Z"/><path class="cls-3" d="M88.6,34,76.41,22h0L60.54,6.39A22.25,22.25,0,0,0,29.32,38.11h0l12-12.18h0l.5-.52a4.45,4.45,0,0,1,6.29-.05l.51.51h0l12.19,12h0v0L73,49.85a5.17,5.17,0,0,0,7.31-.07l8.36-8.5A5.16,5.16,0,0,0,88.6,34Z"/><path class="cls-4" d="M29.33,38.12h0L42.22,50.8a4.17,4.17,0,0,0,5.91,0l7-7.08,5.71-5.81-12.19-12-.51-.51a4.45,4.45,0,0,0-6.29.05l-.5.52-12,12.18Z"/></svg>