<svg xmlns="http://www.w3.org/2000/svg" xmlns:xlink="http://www.w3.org/1999/xlink" width="130" height="130" viewBox="0 0 130 130"><defs><style>.a,.l{fill:#fff;}.a{stroke:#707070;}.b{clip-path:url(#a);}.c{fill:#ffe2ce;}.d{fill:#ffd9bf;}.e{fill:#ff5781;}.f{fill:#ff4170;}.g{fill:#ffe563;}.h{fill:#ffcba0;}.i{fill:#65b9d7;}.j{fill:#56aac7;}.k{fill:#cce7f0;}.m{fill:#b5e6a8;}.n{fill:#3aa673;}.o{fill:#a5d998;}</style><clipPath id="a"><rect class="a" width="130" height="130" transform="translate(1644 452)"/></clipPath></defs><g class="b" transform="translate(-1644 -452)"><g transform="translate(1644 452)"><path class="c" d="M97.919,67.375H32.866a3.3,3.3,0,0,1-3.3-3.3V8.888a3.578,3.578,0,0,1,3.581-3.574H97.64a3.578,3.578,0,0,1,3.581,3.574V64.079A3.3,3.3,0,0,1,97.919,67.375Z"/><path class="d" d="M97.64,5.314H87.332a3.578,3.578,0,0,1,3.581,3.574V64.079a3.3,3.3,0,0,1-3.3,3.3H97.919a3.3,3.3,0,0,0,3.3-3.3V8.888A3.578,3.578,0,0,0,97.64,5.314Z"/><path class="e" d="M101.221,18.053H29.564V8.892a3.578,3.578,0,0,1,3.578-3.578h64.5a3.578,3.578,0,0,1,3.578,3.578Z"/><path class="f" d="M97.643,5.314H87.336a3.578,3.578,0,0,1,3.578,3.578v9.162h10.307V8.892a3.578,3.578,0,0,0-3.578-3.578Z"/><path class="g" d="M43.135,0A1.933,1.933,0,0,0,41.2,1.932V8.695a1.933,1.933,0,0,0,3.865,0V1.932A1.932,1.932,0,0,0,43.135,0Z"/><path class="g" d="M52.016,0a1.932,1.932,0,0,0-1.932,1.932V8.695a1.932,1.932,0,1,0,3.865,0V1.932A1.932,1.932,0,0,0,52.016,0Z"/><path class="g" d="M78.657,0a1.933,1.933,0,0,0-1.933,1.932V8.695a1.933,1.933,0,0,0,3.865,0V1.932A1.932,1.932,0,0,0,78.657,0Z"/><path class="g" d="M87.538,0a1.932,1.932,0,0,0-1.932,1.932V8.695a1.933,1.933,0,0,0,3.865,0V1.932A1.933,1.933,0,0,0,87.538,0Z"/><path class="h" d="M39.1,27.627H50.477V38.981H39.1Z"/><path class="h" d="M59.7,27.627H71.08V38.981H59.7Z"/><path class="h" d="M80.308,27.627H91.684V38.981H80.308Z"/><path class="h" d="M39.1,46.338H50.477V57.693H39.1Z"/><path class="h" d="M59.7,46.338H71.08V57.693H59.7Z"/><path class="h" d="M80.308,46.338H91.684V57.693H80.308Z"/><path class="i" d="M118.245,103.775H84.2a5.441,5.441,0,0,1-5.441-5.441V50.514A5.441,5.441,0,0,1,84.2,45.073h34.047a5.441,5.441,0,0,1,5.441,5.441V98.335a5.441,5.441,0,0,1-5.441,5.441Z"/><path class="j" d="M118.245,45.073H107.937a5.441,5.441,0,0,1,5.441,5.441V98.335a5.441,5.441,0,0,1-5.441,5.441h10.307a5.441,5.441,0,0,0,5.441-5.441V50.514A5.44,5.44,0,0,0,118.245,45.073Z"/><path class="k" d="M86.109,53.09h30.224V65.32H86.109Z"/><path class="g" d="M87.275,72.2c-2.487,0-2.491,3.865,0,3.865S89.766,72.2,87.275,72.2Z"/><path class="g" d="M94.247,72.2c-2.487,0-2.491,3.865,0,3.865S96.738,72.2,94.247,72.2Z"/><path class="g" d="M101.219,72.2c-2.487,0-2.491,3.865,0,3.865S103.71,72.2,101.219,72.2Z"/><path class="g" d="M108.191,72.2c-2.487,0-2.491,3.865,0,3.865S110.683,72.2,108.191,72.2Z"/><path class="g" d="M115.164,76.068c2.487,0,2.491-3.865,0-3.865S112.673,76.068,115.164,76.068Z"/><path class="l" d="M87.275,79.216c-2.487,0-2.491,3.865,0,3.865S89.766,79.216,87.275,79.216Z"/><path class="l" d="M94.247,79.216c-2.487,0-2.491,3.865,0,3.865S96.738,79.216,94.247,79.216Z"/><path class="l" d="M101.219,79.216c-2.487,0-2.491,3.865,0,3.865S103.71,79.216,101.219,79.216Z"/><path class="l" d="M108.191,79.216c-2.487,0-2.491,3.865,0,3.865S110.683,79.216,108.191,79.216Z"/><path class="l" d="M115.164,79.216c-2.487,0-2.491,3.865,0,3.865S117.655,79.216,115.164,79.216Z"/><path class="l" d="M87.275,86.229c-2.487,0-2.491,3.865,0,3.865S89.766,86.229,87.275,86.229Z"/><path class="l" d="M94.247,86.229c-2.487,0-2.491,3.865,0,3.865S96.738,86.229,94.247,86.229Z"/><path class="l" d="M101.219,86.229c-2.487,0-2.491,3.865,0,3.865S103.71,86.229,101.219,86.229Z"/><path class="l" d="M108.191,86.229c-2.487,0-2.491,3.865,0,3.865S110.683,86.229,108.191,86.229Z"/><path class="l" d="M87.275,93.242c-2.487,0-2.491,3.865,0,3.865S89.766,93.242,87.275,93.242Z"/><path class="l" d="M94.247,93.242c-2.487,0-2.491,3.865,0,3.865S96.738,93.242,94.247,93.242Z"/><path class="l" d="M101.219,93.242c-2.487,0-2.491,3.865,0,3.865S103.71,93.242,101.219,93.242Z"/><path class="l" d="M108.191,93.242c-2.487,0-2.491,3.865,0,3.865S110.683,93.242,108.191,93.242Z"/><path class="e" d="M115.164,97.107a1.933,1.933,0,0,1-1.933-1.933V88.162a1.933,1.933,0,1,1,3.865,0v7.013A1.932,1.932,0,0,1,115.164,97.107Z"/><path class="m" d="M22.7,72.889,73.053,96.3a3.97,3.97,0,0,1,1.927,5.28L64.25,124.571a3.979,3.979,0,0,1-5.284,1.922L8.615,103.08A3.97,3.97,0,0,1,6.688,97.8l10.731-22.99A3.979,3.979,0,0,1,22.7,72.889Z"/><path class="n" d="M67.142,118.36l.006,0-2.9,6.208a3.979,3.979,0,0,1-5.284,1.922l-6.22-2.892,0-.006a10.839,10.839,0,0,1,14.393-5.235Z"/><path class="n" d="M14.831,105.97l-6.216-2.89A3.97,3.97,0,0,1,6.688,97.8l2.9-6.2A10.81,10.81,0,0,1,14.831,105.97Z"/><path class="n" d="M14.527,81.022l-.006,0,2.9-6.208A3.979,3.979,0,0,1,22.7,72.889l6.22,2.892,0,.006a10.839,10.839,0,0,1-14.393,5.235Z"/><path class="n" d="M66.837,93.411l6.216,2.89a3.97,3.97,0,0,1,1.927,5.28l-2.9,6.2A10.81,10.81,0,0,1,66.837,93.411Z"/><ellipse class="n" cx="10.54" cy="10.516" rx="10.54" ry="10.516" transform="translate(25.947 99.66) rotate(-45)"/><path class="m" d="M54.338,68.269,97.4,103.284a3.968,3.968,0,0,1,.573,5.589L81.924,128.538a3.982,3.982,0,0,1-5.6.569L38.581,98.414,37.024,83.2,48.743,68.838a3.981,3.981,0,0,1,5.595-.57Z"/><path class="o" d="M97.4,103.284,54.338,68.269a3.982,3.982,0,0,0-5.6.569l-4.614,5.653a4.032,4.032,0,0,1,5.645-.48l43.064,35.016a3.969,3.969,0,0,1,1.041,4.865l4.1-5.018a3.968,3.968,0,0,0-.573-5.59Z"/><path class="n" d="M86.255,123.226l0,0-4.334,5.31a3.982,3.982,0,0,1-5.6.569l-5.319-4.325,0-.006A10.846,10.846,0,0,1,86.255,123.226Z"/><path class="n" d="M38.584,98.411l0,0-5.316-4.323a3.968,3.968,0,0,1-.573-5.589L37.024,83.2a10.8,10.8,0,0,1,1.559,15.216Z"/><path class="n" d="M44.411,74.15l0,0,4.334-5.31a3.982,3.982,0,0,1,5.6-.569l5.319,4.325,0,.006A10.846,10.846,0,0,1,44.411,74.15Z"/><path class="n" d="M92.083,98.965l0,0,5.316,4.323a3.968,3.968,0,0,1,.573,5.589l-4.332,5.307a10.8,10.8,0,0,1-1.559-15.216Z"/><ellipse class="n" cx="10.549" cy="10.515" rx="10.549" ry="10.515" transform="translate(50.759 95.666) rotate(-32.88)"/></g></g></svg>