<?xml version="1.0" encoding="utf-8"?>
<!-- Generator: Adobe Illustrator 22.1.0, SVG Export Plug-In . SVG Version: 6.00 Build 0)  -->
<svg version="1.1" id="Layer_1" xmlns="http://www.w3.org/2000/svg" xmlns:xlink="http://www.w3.org/1999/xlink" x="0px" y="0px"
	 viewBox="0 0 612 792" style="enable-background:new 0 0 612 792;" xml:space="preserve">
<style type="text/css">
	.st0{fill:none;}
	.st1{fill:#E3E3E3;}
</style>
<path class="st0" d="M0,0h24v24H0V0z"/>
<path class="st1" d="M306,271c-69,0-125,56-125,125s56,125,125,125s125-56,125-125S375,271,306,271z M306,496
	c-55.2,0-100-44.8-100-100c0-23.1,7.9-44.4,21.1-61.2l140.1,140.1C350.4,488.1,329.1,496,306,496z M384.9,457.2L244.8,317.1
	c16.9-13.2,38.1-21.1,61.2-21.1c55.2,0,100,44.8,100,100C406,419.1,398.1,440.4,384.9,457.2z"/>
</svg>
