<svg xmlns="http://www.w3.org/2000/svg" xmlns:xlink="http://www.w3.org/1999/xlink" viewBox="0 0 1080 435">
  <defs>
    <style>
      .cls-1 {
        clip-path: url(#clip-Artboard_1);
      }

      .cls-2 {
        fill: #e8eaed;
      }

      .cls-3 {
        fill: #fff;
      }

      .cls-4, .cls-5, .cls-6, .cls-9 {
        fill: none;
      }

      .cls-4, .cls-5 {
        stroke: #e8eaed;
      }

      .cls-4, .cls-6 {
        stroke-width: 3px;
      }

      .cls-5 {
        stroke-width: 5px;
      }

      .cls-6 {
        stroke: #f1f3f4;
      }

      .cls-7 {
        fill: #f1f3f4;
      }

      .cls-8 {
        fill: rgba(255,255,98,0.2);
      }

      .cls-10 {
        fill: #f7eafa;
      }

      .cls-11 {
        fill: rgba(250,166,114,0.2);
      }

      .cls-12 {
        fill: rgba(106,119,221,0.2);
      }

      .cls-13 {
        fill: rgba(222,7,7,0.2);
      }

      .cls-14 {
        fill: rgba(93,250,184,0.2);
      }

      .cls-15 {
        fill: rgba(201,162,0,0.2);
      }

      .cls-16 {
        stroke: none;
      }
    </style>
    <clipPath id="clip-Artboard_1">
      <rect width="1080" height="435"/>
    </clipPath>
  </defs>
  <g id="Artboard_1" data-name="Artboard – 1" class="cls-1">
    <rect class="cls-3" width="1080" height="435"/>
    <rect id="Rectangle_1417" data-name="Rectangle 1417" class="cls-2" width="1080" height="435"/>
    <path id="Rectangle_1418" data-name="Rectangle 1418" class="cls-3" d="M10,0H861a10,10,0,0,1,10,10V400a0,0,0,0,1,0,0H0a0,0,0,0,1,0,0V10A10,10,0,0,1,10,0Z" transform="translate(104 33)"/>
    <line id="Line_744" data-name="Line 744" class="cls-4" x2="871" transform="translate(103.5 101.5)"/>
    <line id="Line_745" data-name="Line 745" class="cls-4" x2="504" transform="translate(470.5 151.5)"/>
    <line id="Line_748" data-name="Line 748" class="cls-4" x2="504" transform="translate(470.5 201.5)"/>
    <line id="Line_747" data-name="Line 747" class="cls-5" x2="878" transform="translate(103.5 432.5)"/>
    <g id="Rectangle_1419" data-name="Rectangle 1419" class="cls-6" transform="translate(126 137)">
      <rect class="cls-16" width="100" height="120"/>
      <rect class="cls-9" x="1.5" y="1.5" width="97" height="117"/>
    </g>
    <g id="Rectangle_1432" data-name="Rectangle 1432" class="cls-6" transform="translate(126 287)">
      <rect class="cls-16" width="100" height="120"/>
      <rect class="cls-9" x="1.5" y="1.5" width="97" height="117"/>
    </g>
    <g id="Rectangle_1428" data-name="Rectangle 1428" class="cls-6" transform="translate(236 137)">
      <rect class="cls-16" width="100" height="120"/>
      <rect class="cls-9" x="1.5" y="1.5" width="97" height="117"/>
    </g>
    <g id="Rectangle_1431" data-name="Rectangle 1431" class="cls-6" transform="translate(236 287)">
      <rect class="cls-16" width="100" height="120"/>
      <rect class="cls-9" x="1.5" y="1.5" width="97" height="117"/>
    </g>
    <g id="Rectangle_1429" data-name="Rectangle 1429" class="cls-6" transform="translate(346 137)">
      <rect class="cls-16" width="100" height="120"/>
      <rect class="cls-9" x="1.5" y="1.5" width="97" height="117"/>
    </g>
    <g id="Rectangle_1430" data-name="Rectangle 1430" class="cls-6" transform="translate(346 287)">
      <rect class="cls-16" width="100" height="120"/>
      <rect class="cls-9" x="1.5" y="1.5" width="97" height="117"/>
    </g>
    <rect id="Rectangle_1422" data-name="Rectangle 1422" class="cls-7" width="412" height="20" transform="translate(487 167)"/>
    <rect id="Rectangle_1423" data-name="Rectangle 1423" class="cls-7" width="187" height="20" transform="translate(487 117)"/>
    <rect id="Rectangle_1434" data-name="Rectangle 1434" class="cls-7" width="152" height="20" transform="translate(210 59)"/>
    <rect id="Rectangle_1435" data-name="Rectangle 1435" class="cls-7" width="226" height="20" transform="translate(610 59)"/>
    <path id="Path_71" data-name="Path 71" class="cls-4" d="M-5557.7,2782v397.665" transform="translate(6027 -2749)"/>
    <g id="baseline-star_border-24px" transform="translate(156 176.696)">
      <path id="Path_72" data-name="Path 72" class="cls-8" d="M34.629,13.731l-11.73-1L18.315,2,13.73,12.743,2,13.731,10.908,21.4,8.232,32.786l10.082-6.044L28.4,32.786,25.738,21.4Z" transform="translate(1.685 1.685)"/>
      <path id="Path_73" data-name="Path 73" class="cls-9" d="M0,0H40V40H0Z"/>
    </g>
    <g id="baseline-edit-24px" transform="translate(673 277)">
      <path id="Path_74" data-name="Path 74" class="cls-10" d="M3,61.789V77.258H18.469L64.091,31.635,48.622,16.167ZM76.054,19.673a4.108,4.108,0,0,0,0-5.816L66.4,4.2a4.108,4.108,0,0,0-5.816,0l-7.549,7.549L68.5,27.222l7.549-7.549Z" transform="translate(9.375 9.367)"/>
      <path id="Path_75" data-name="Path 75" class="cls-9" d="M0,0H99V99H0Z"/>
    </g>
    <g id="birthday-cake" transform="translate(271 182)">
      <g id="cake">
        <path id="Path_78" data-name="Path 78" class="cls-11" d="M15,6.136a2.1,2.1,0,0,0,2.045-2.045A3.209,3.209,0,0,0,16.773,3L15,0,13.227,3a2.569,2.569,0,0,0-.273,1.091A2.1,2.1,0,0,0,15,6.136Zm8.864,3.409h-7.5V7.5H13.636V9.545h-7.5A6.111,6.111,0,0,0,0,15.682a5.964,5.964,0,0,0,2.727,5.045V30H27.273V20.727A6.1,6.1,0,0,0,23.864,9.545Zm0,9.545a3.92,3.92,0,0,1-2.455-.955l-2.045-2.045-2.045,2.045A3.29,3.29,0,0,1,15,19.091a3.92,3.92,0,0,1-2.455-.955L10.5,16.091,8.455,18.136a3.29,3.29,0,0,1-2.318.955,3.409,3.409,0,1,1,0-6.818H23.864a3.409,3.409,0,1,1,0,6.818Z"/>
      </g>
    </g>
    <g id="thumbs-up" transform="translate(2142.717 -319.624)">
      <path id="Path_84" data-name="Path 84" class="cls-12" d="M42.967,15.439a4.8,4.8,0,0,0,.813-2.706A4.308,4.308,0,0,0,39.531,8.5H36.61a7.289,7.289,0,0,0,.8-3.187,6.888,6.888,0,0,0-.581-3.088A3.648,3.648,0,0,0,35.132.539,5.67,5.67,0,0,0,32.625,0a2.106,2.106,0,0,0-1.494.614A3.992,3.992,0,0,0,30.1,2.407q-.315,1.1-.506,2.1a2.818,2.818,0,0,1-.589,1.419q-.814.88-1.776,2.125a14.683,14.683,0,0,1-2.274,2.573H20.408a2.125,2.125,0,0,0-2.125,2.125V23.374A2.126,2.126,0,0,0,20.408,25.5h4.781a12.276,12.276,0,0,1,2.291.664q2.042.714,3.594,1.087a13.4,13.4,0,0,0,3.146.374H36.36a5.291,5.291,0,0,0,3.768-1.337,4.7,4.7,0,0,0,1.411-3.644,4.673,4.673,0,0,0,1-2.955,5.022,5.022,0,0,0-.05-.714,4.767,4.767,0,0,0,.631-2.39A4.335,4.335,0,0,0,42.967,15.439Zm-20.75,7.62a1.042,1.042,0,1,1,.315-.747A1.022,1.022,0,0,1,22.217,23.058ZM41.3,14.095q-.357.763-.888.78a2.242,2.242,0,0,1,.415.789,2.985,2.985,0,0,1,.166.921,2.624,2.624,0,0,1-.879,1.975,2.3,2.3,0,0,1,.3,1.145,2.8,2.8,0,0,1-.29,1.22,1.851,1.851,0,0,1-.788.871,5.676,5.676,0,0,1,.083.93q0,2.772-3.188,2.772H34.22a18.34,18.34,0,0,1-5.678-1.212q-.083-.033-.481-.174l-.589-.207q-.191-.067-.581-.191t-.631-.183q-.241-.058-.548-.108a3.346,3.346,0,0,0-.523-.05h-.531V12.75h.531a1.427,1.427,0,0,0,.589-.149,2.806,2.806,0,0,0,.664-.448q.34-.3.639-.589a9.445,9.445,0,0,0,.664-.73q.365-.44.573-.706t.523-.681q.315-.415.382-.5Q30.136,7.82,30.5,7.438a4.216,4.216,0,0,0,.988-1.818q.307-1.1.506-2.083a2.747,2.747,0,0,1,.631-1.411,2.415,2.415,0,0,1,2.125.78,4.335,4.335,0,0,1,.531,2.407,6.781,6.781,0,0,1-.8,2.664,6.772,6.772,0,0,0-.8,2.648h5.843a2.2,2.2,0,0,1,2.125,2.125A3.262,3.262,0,0,1,41.3,14.095Z" transform="translate(-1778 503)"/>
    </g>
    <g id="yelp-logo" transform="translate(110.039 332)">
      <path id="Yelp" class="cls-13" d="M58.711,1.367A8.631,8.631,0,0,1,64.33.069c1.2.231,1.824.9,1.831,1.717l.069,10.4c.005.817-.419,1.568-.943,1.669a2.021,2.021,0,0,1-1.73-1.082L58.1,3.856C57.675,3.16,56.822,2.853,58.711,1.367ZM56.9,21.149l5.5-1.945a2.38,2.38,0,0,0,1.529-1.684,1.873,1.873,0,0,0-1.237-1.734l-5.805-2.3c-.756-.3-1.627.41-1.857,1.569,0,0-.138,4.036,0,4.872A1.554,1.554,0,0,0,56.9,21.149Zm9.586.972c.016-.819-.421-1.526-.972-1.577a2.764,2.764,0,0,0-1.948,1.043l-3.833,4.6a1.721,1.721,0,0,0,.5,2.369l4.008,1.392a1.847,1.847,0,0,0,2.122-1.361Zm9.529-1.07-4.807-1.382a2.639,2.639,0,0,0-1.963.051c-.3.251-.226,1.043.167,1.758l3.033,5.552c.392.715,1.961.592,2.393-.1A27.146,27.146,0,0,0,77,23.22,1.656,1.656,0,0,0,76.013,21.051Zm1.171-7.806A12.88,12.88,0,0,0,74.65,9.765a1.531,1.531,0,0,0-2.268,0l-3.1,3.69a2.045,2.045,0,0,0-.315,2.185,2.029,2.029,0,0,0,2.074.729l5.358-.993C77.369,15.147,77.4,13.946,77.183,13.244Z"/>
    </g>
    <g id="heart-shape-outline" transform="translate(272 298.455)">
      <path id="Path_85" data-name="Path 85" class="cls-14" d="M26.016,38.483a7.515,7.515,0,0,0-5.485-1.938,6.231,6.231,0,0,0-1.977.336,7.988,7.988,0,0,0-1.875.906q-.868.57-1.492,1.07A14.438,14.438,0,0,0,14,39.92a14.458,14.458,0,0,0-1.187-1.062q-.625-.5-1.492-1.07a8,8,0,0,0-1.875-.906,6.232,6.232,0,0,0-1.977-.336,7.515,7.515,0,0,0-5.484,1.938A7.166,7.166,0,0,0,0,43.857a6.845,6.845,0,0,0,.367,2.156A9.458,9.458,0,0,0,1.2,47.9a13.828,13.828,0,0,0,1.062,1.523q.594.742.867,1.023a5.177,5.177,0,0,0,.43.406l9.75,9.406a.98.98,0,0,0,1.375,0l9.734-9.375Q28,47.311,28,43.857A7.164,7.164,0,0,0,26.016,38.483ZM23.062,49.42,14,58.154,4.922,49.4Q2,46.483,2,43.857a6.812,6.812,0,0,1,.336-2.234A4.364,4.364,0,0,1,3.2,40.084a4.128,4.128,0,0,1,1.273-.93,5.646,5.646,0,0,1,1.469-.484,8.949,8.949,0,0,1,1.531-.125,4.494,4.494,0,0,1,1.75.4,7.988,7.988,0,0,1,1.726,1q.789.6,1.352,1.125a12.138,12.138,0,0,1,.937.961,1.024,1.024,0,0,0,1.531,0,12.1,12.1,0,0,1,.938-.961q.562-.523,1.351-1.125a7.986,7.986,0,0,1,1.727-1,4.494,4.494,0,0,1,1.75-.4,8.952,8.952,0,0,1,1.531.125,5.64,5.64,0,0,1,1.469.484,4.127,4.127,0,0,1,1.273.93,4.364,4.364,0,0,1,.859,1.539A6.818,6.818,0,0,1,26,43.857Q26,46.482,23.062,49.42Z" transform="translate(0 0)"/>
    </g>
    <g id="icon" transform="translate(379.296 332)">
      <g id="Group_3295" data-name="Group 3295" transform="translate(1.704 0)">
        <path id="Path_86" data-name="Path 86" class="cls-15" d="M30.756,5.917,21.061,7.579l-2.727,1.5-2.186.135-4.973,1.567A4.214,4.214,0,0,0,9.4,8.231a4.631,4.631,0,0,0-3.963-.495,5.234,5.234,0,0,0-3.608,6.017,4.215,4.215,0,0,0,1.785,2.574,4.628,4.628,0,0,0,3.961.5,5.22,5.22,0,0,0,1.7-.905h0a.018.018,0,0,1,.015-.008c.038-.036.081-.068.123-.108,2.995-2.564,5.061-3.253,6.229-3.4-.128,1.349-.725,3.737-2.943,7.2-.033.047-.062.1-.093.14,0,.008,0,.011,0,.017h0a7.184,7.184,0,0,0-.355,6.546,3.843,3.843,0,0,0,2.23,2.06.848.848,0,0,0,.1.025,9.38,9.38,0,0,0,2.182,5.656.029.029,0,0,1,.005.008.936.936,0,0,0,1.448.008,1.321,1.321,0,0,0,.016-1.679,6.8,6.8,0,0,1-1.6-4.133A5.672,5.672,0,0,0,19.679,24.2a6.923,6.923,0,0,0-.43-4.581,3.843,3.843,0,0,0-2.206-2.05L18.4,11.816c1.058-.406,4.412-1.428,4.412-1.428s6.207-3.065,7.443-3.452C31.433,6.109,30.756,5.917,30.756,5.917ZM7,14.382a2.717,2.717,0,0,1-2.3-.25,1.733,1.733,0,0,1-.76-1.043,2.739,2.739,0,0,1,2.072-2.91,2.694,2.694,0,0,1,2.3.25,1.737,1.737,0,0,1,.758,1.045A2.731,2.731,0,0,1,7,14.382Zm10.352,6.491a4.047,4.047,0,0,1,.214,2.659c-.379,1.607-1.53,2.7-2.519,2.392a1.617,1.617,0,0,1-.9-.874,4.1,4.1,0,0,1-.216-2.661c.379-1.607,1.532-2.7,2.519-2.394A1.66,1.66,0,0,1,17.351,20.873Z" transform="translate(-1.704 1.082)"/>
        <path id="Path_87" data-name="Path 87" class="cls-15" d="M12.016,6.62,12.837.169s-.172-.595-.455.444c-.151.561-2.012,5.03-2.012,5.03S9.813,7.558,9.6,8.212l1.412-.075Z" transform="translate(5.907 0)"/>
      </g>
    </g>
    <g id="baseline-check-24px" transform="translate(166 425)">
      <path id="Path_76" data-name="Path 76" class="cls-9" d="M0,0H24V24H0Z"/>
    </g>
  </g>
</svg>
