<?xml version="1.0" encoding="iso-8859-1"?>
<!-- Generator: Adobe Illustrator 19.0.0, SVG Export Plug-In . SVG Version: 6.00 Build 0)  -->
<svg xmlns="http://www.w3.org/2000/svg" xmlns:xlink="http://www.w3.org/1999/xlink" version="1.1" id="Capa_1" x="0px" y="0px" viewBox="0 0 480 480" style="enable-background:new 0 0 480 480;" xml:space="preserve" width="512px" height="512px">
<g>
	<g>
		<path d="M472,0H8C3.576,0,0,3.576,0,8v464c0,4.424,3.576,8,8,8h464c4.424,0,8-3.576,8-8V8C480,3.576,476.424,0,472,0z M344,464    H136v-16c0-30.872,25.128-56,56-56h96c30.872,0,56,25.128,56,56V464z M368,176v200H112V176H368z M232,120c0-4.416,3.584-8,8-8    s8,3.584,8,8s-3.584,8-8,8C235.584,128,232,124.416,232,120z M464,464H360v-16c0-22.608-10.496-42.792-26.84-56H376    c4.424,0,8-3.576,8-8v-64h24c4.424,0,8-3.576,8-8v-96c0-4.424-3.576-8-8-8h-24v-40c0-4.424-3.576-8-8-8H248v-17.472    c9.288-3.312,16-12.112,16-22.528c0-13.232-10.768-24-24-24s-24,10.768-24,24c0,10.416,6.712,19.216,16,22.528V160H104    c-4.424,0-8,3.576-8,8v40H72c-4.424,0-8,3.576-8,8v96c0,4.424,3.576,8,8,8h24v64c0,4.424,3.576,8,8,8h42.84    C130.496,405.208,120,425.392,120,448v16H16V80h448V464z M384,304v-80h16v80H384z M96,224v80H80v-80H96z M464,64H16V16h448V64z" fill="#707070"/>
	</g>
</g>
<g>
	<g>
		<rect x="32" y="32" width="16" height="16" fill="#707070"/>
	</g>
</g>
<g>
	<g>
		<rect x="64" y="32" width="16" height="16" fill="#707070"/>
	</g>
</g>
<g>
	<g>
		<rect x="96" y="32" width="16" height="16" fill="#707070"/>
	</g>
</g>
<g>
	<g>
		<rect x="208" y="32" width="240" height="16" fill="#707070"/>
	</g>
</g>
<g>
	<g>
		<polygon points="213.656,229.656 202.344,218.344 180,240.688 157.656,218.344 146.344,229.656 168.688,252 146.344,274.344     157.656,285.656 180,263.312 202.344,285.656 213.656,274.344 191.312,252   " fill="#707070"/>
	</g>
</g>
<g>
	<g>
		<polygon points="333.656,229.656 322.344,218.344 300,240.688 277.656,218.344 266.344,229.656 288.688,252 266.344,274.344     277.656,285.656 300,263.312 322.344,285.656 333.656,274.344 311.312,252   " fill="#707070"/>
	</g>
</g>
<g>
	<g>
		<path d="M240,296c-30.872,0-56,25.128-56,56c0,4.424,3.576,8,8,8h96c4.424,0,8-3.576,8-8C296,321.128,270.872,296,240,296z     M200.8,344c3.72-18.232,19.88-32,39.2-32s35.48,13.768,39.192,32H200.8z" fill="#707070"/>
	</g>
</g>
<g>
</g>
<g>
</g>
<g>
</g>
<g>
</g>
<g>
</g>
<g>
</g>
<g>
</g>
<g>
</g>
<g>
</g>
<g>
</g>
<g>
</g>
<g>
</g>
<g>
</g>
<g>
</g>
<g>
</g>
</svg>
