<svg height="512pt" viewBox="0 0 512 512" width="512pt" xmlns="http://www.w3.org/2000/svg"><path d="m410.769531 52.238281-60.621093 60.625c7.097656 7.097657 41.886718 41.890625 48.988281 48.988281l60.625-60.621093c-7.101563-7.101563-41.890625-41.890625-48.992188-48.992188zm0 0" fill="#d1d0cf"/><path d="m376.976562 119.394531c-3.609374-3.609375-3.605468-9.457031 0-13.066406l43.941407-43.941406c-4.597657-4.597657-8.308594-8.308594-10.148438-10.148438l-60.625 60.625c7.101563 7.097657 41.890625 41.890625 48.992188 48.988281l10.148437-10.148437c-9.816406-9.816406-23.71875-23.71875-32.308594-32.308594zm0 0" fill="#afafaf"/><path d="m2.230469 509.769531c-2.972657-2.972656-2.972657-7.792969 0-10.765625l100.160156-100.160156c2.972656-2.972656 7.792969-2.972656 10.765625 0s2.972656 7.792969 0 10.765625l-100.160156 100.160156c-2.972656 2.972657-7.792969 2.972657-10.765625 0zm0 0" fill="#e4e3e1"/><path d="m107.921875 380.964844-17.582031 17.582031c-3.21875 3.21875-3.21875 8.4375 0 11.65625l11.457031 11.457031c3.21875 3.21875 8.4375 3.21875 11.65625 0l17.582031-17.582031zm0 0" fill="#f3a334"/><path d="m110.445312 410.203125c-3.21875-3.21875-3.21875-8.4375 0-11.65625l7.527344-7.527344-10.050781-10.054687-17.582031 17.582031c-3.21875 3.21875-3.21875 8.433594 0 11.65625l11.457031 11.457031c3.21875 3.21875 8.4375 3.21875 11.65625 0l4.226563-4.226562zm0 0" fill="#ee911c"/><path d="m216.742188 411.335938c4.910156-4.914063 32.089843-32.089844 35.570312-35.574219l155.625-155.625-116.074219-116.074219-155.625 155.625c-3.183593 3.183594-30.617187 30.617188-35.574219 35.570312-23.015624 23.019532-23.273437 60.917969 0 84.195313 3.378907 3.378906 28.503907 28.503906 31.882813 31.882813 23.089844 23.089843 61.003906 23.1875 84.195313 0zm0 0" fill="#e4e3e1"/><path d="m152.847656 411.335938c-3.378906-3.378907-28.5-28.503907-31.882812-31.882813-23.273438-23.277344-23.015625-61.175781 0-84.195313 4.957031-4.953124 32.390625-32.386718 35.574218-35.570312l145.476563-145.476562-10.152344-10.148438-155.625 155.625c-3.183593 3.183594-30.617187 30.617188-35.574219 35.570312-23.015624 23.019532-23.273437 60.917969 0 84.195313 3.378907 3.378906 28.503907 28.503906 31.882813 31.882813 14.125 14.125 33.800781 19.628906 52.257813 16.476562-11.734376-2.003906-22.96875-7.492188-31.957032-16.476562zm0 0" fill="#d1d0cf"/><path d="m391.753906 34.21875 86.027344 86.027344c4.480469 4.476562 11.742188 4.476562 16.21875 0l14.640625-14.640625c4.480469-4.476563 4.480469-11.738281 0-16.21875l-86.027344-86.027344c-4.480469-4.480469-11.742187-4.480469-16.21875 0l-14.640625 14.640625c-4.476562 4.476562-4.476562 11.738281 0 16.21875zm0 0" fill="#e4e3e1"/><path d="m412.054688 34.21875c-4.480469-4.480469-4.480469-11.742188 0-16.21875l12.597656-12.601562-2.039063-2.039063c-4.480469-4.480469-11.742187-4.480469-16.21875 0l-14.640625 14.640625c-4.480468 4.476562-4.480468 11.738281 0 16.21875l86.027344 86.027344c4.480469 4.476562 11.742188 4.476562 16.21875 0l2.039062-2.039063zm0 0" fill="#d1d0cf"/><path d="m252.3125 375.761719 35.945312-35.945313 110.269532-110.265625c-11.671875 6.203125-26.289063 3.074219-34.351563-7.75-1.105469-1.484375-3.277343-1.484375-4.382812 0-10.832031 14.539063-32.554688 14.53125-43.382813 0-1.101562-1.484375-3.277344-1.484375-4.382812 0-10.832032 14.539063-32.550782 14.53125-43.378906 0-1.105469-1.484375-3.277344-1.484375-4.382813 0-10.832031 14.539063-32.554687 14.53125-43.378906 0-1.105469-1.484375-3.277344-1.484375-4.382813 0-10.644531 14.285157-31.898437 14.589844-42.9375.558594-79.824218 79.824219-74.636718 74.378906-77.917968 78.632813-.964844 1.519531-14.789063 17.605468-11.960938 43.058593 1.511719 13.511719 7.519531 25.945313 16.976562 35.402344l31.882813 31.882813c27.472656 27.472656 67.304687 16.171874 78.460937 5.015624 4.144532-3.199218 2.273438-1.558593 41.304688-40.589843zm0 0" fill="#ffc964"/><path d="m152.148438 424.289062c10.859374 4.292969 22.117187 4.859376 32.011718 3.398438-11.503906-2.089844-22.492187-7.53125-31.3125-16.355469-3.378906-3.378906-28.5-28.5-31.882812-31.878906-23.273438-23.277344-23.015625-61.179687 0-84.195313 4.957031-4.957031 32.390625-32.386718 35.574218-35.574218l28.726563-28.722656c-4.421875-1.667969-8.492187-4.523438-11.699219-8.601563-80.910156 80.910156-82.167968 78.96875-87.824218 98.070313-6.589844 22.445312 1.003906 45.972656 14.921874 59.023437 33.472657 33.472656 37.101563 39.019531 51.484376 44.835937zm0 0" fill="#f3a334"/><path d="m264.265625 221.800781c1.105469-1.484375 3.277344-1.484375 4.382813 0 10.832031 14.539063 32.554687 14.53125 43.378906 0 1.105468-1.484375 3.28125-1.484375 4.382812 0 3.292969 4.414063 7.898438 7.785157 13.238282 9.542969l44.75-44.75c-7.101563-7.097656-41.890626-41.890625-48.992188-48.992188l-93.078125 93.078126c11.316406 4.644531 24.472656 1.140624 31.9375-8.878907zm0 0" fill="#d1d0cf"/><path d="m252.628906 230.679688 82.925782-82.925782c-4.597657-4.597656-8.308594-8.308594-10.148438-10.148437l-93.078125 93.074219c6.671875 2.738281 13.976563 2.625 20.386719.03125-.03125-.011719-.058594-.019532-.085938-.03125zm0 0" fill="#afafaf"/><path d="m145.140625 284.226562c2.972656-2.972656 2.972656-7.792968 0-10.765624l-11.339844-11.339844c-3.675781 3.679687-7.3125 7.3125-10.765625 10.765625l11.339844 11.339843c2.972656 2.972657 7.792969 2.972657 10.765625 0zm0 0" fill="#ee911c"/><path d="m150.367188 245.558594 11.335937 11.339844c2.976563 2.972656 7.792969 2.972656 10.765625 0 2.972656-2.972657 2.972656-7.792969 0-10.765626l-11.339844-11.339843c-3.230468 3.234375-6.886718 6.886719-10.761718 10.765625zm0 0" fill="#ee911c"/><path d="m117.8125 311.554688c2.972656-2.972657 2.972656-7.792969 0-10.765626l-11.339844-11.335937c-6.34375 6.339844-7.695312 7.558594-10.453125 11.074219l11.027344 11.027344c2.972656 2.972656 7.792969 2.972656 10.765625 0zm0 0" fill="#ee911c"/><path d="m451.195312 213.707031-152.902343-152.902343c-4.480469-4.476563-11.839844-4.378907-16.441407.222656l-8.753906 8.753906c-4.601562 4.601562-4.699218 11.964844-.222656 16.441406l152.902344 152.902344c4.480468 4.480469 11.839844 4.378906 16.441406-.222656l8.753906-8.753906c4.601563-4.601563 4.699219-11.960938.222656-16.441407zm0 0" fill="#72bdf6"/><path d="m293.171875 86.222656c-4.476563-4.480468-4.378906-11.839844.222656-16.441406l6.9375-6.9375-2.039062-2.039062c-4.480469-4.476563-11.839844-4.378907-16.441407.222656l-8.753906 8.753906c-4.601562 4.601562-4.699218 11.964844-.222656 16.441406l152.902344 152.902344c4.480468 4.480469 11.839844 4.378906 16.441406-.222656l1.816406-1.816406zm0 0" fill="#4b98d4"/><g fill="#a0634a"><path d="m244.980469 402.859375c0 10.835937-8.785157 19.621094-19.621094 19.621094-10.839844 0-19.621094-8.785157-19.621094-19.621094s8.78125-19.621094 19.621094-19.621094c10.835937 0 19.621094 8.785157 19.621094 19.621094zm0 0"/><path d="m398.523438 402.859375c0 10.835937-8.785157 19.621094-19.621094 19.621094-10.835938 0-19.621094-8.785157-19.621094-19.621094s8.785156-19.621094 19.621094-19.621094c10.835937 0 19.621094 8.785157 19.621094 19.621094zm0 0"/><path d="m348.578125 432.132812c-11.988281-20.761718-33.976563-35.023437-53.730469-30.710937-44.023437 8.730469-66.421875 78.402344-31.589844 98.511719 9.316407 5.378906 20.632813 5.328125 31.554688.898437 4.683594-1.898437 9.953125-1.898437 14.636719 0 10.921875 4.429688 22.238281 4.480469 31.554687-.898437 19.351563-11.171875 22.742188-41.527344 7.574219-67.800782zm0 0"/><path d="m359.503906 358.40625c0 13.140625-10.652344 23.792969-23.796875 23.792969-13.140625 0-23.792969-10.652344-23.792969-23.792969s10.652344-23.792969 23.792969-23.792969c13.144531 0 23.796875 10.652344 23.796875 23.792969zm0 0"/><path d="m292.347656 358.40625c0 13.140625-10.652344 23.792969-23.792968 23.792969-13.144532 0-23.796876-10.652344-23.796876-23.792969s10.652344-23.792969 23.796876-23.792969c13.140624 0 23.792968 10.652344 23.792968 23.792969zm0 0"/></g><path d="m236.464844 386.691406c-3.160156-2.175781-6.984375-3.453125-11.105469-3.453125-10.835937 0-19.621094 8.785157-19.621094 19.621094s8.78125 19.621094 19.621094 19.621094c4.121094 0 7.945313-1.277344 11.105469-3.453125-11.355469-7.8125-11.34375-24.53125 0-32.335938zm0 0" fill="#915039"/><path d="m390.011719 386.691406c-3.160157-2.175781-6.984375-3.453125-11.105469-3.453125-10.835938 0-19.621094 8.785157-19.621094 19.621094 0 15.820313 17.785156 25.074219 30.726563 16.167969-11.355469-7.8125-11.34375-24.53125 0-32.335938zm0 0" fill="#915039"/><path d="m285.472656 499.933594c-33.273437-19.207032-14.5625-85.167969 27.847656-97.574219-23.019531-6.863281-45.722656 9.140625-57.636718 29.773437-15.167969 26.273438-11.777344 56.628907 7.574218 67.800782 8.136719 4.699218 17.800782 5.253906 27.398438 2.367187-1.78125-.621093-3.515625-1.402343-5.183594-2.367187zm0 0" fill="#915039"/><path d="m334.128906 358.40625c0-9.128906 5.144532-17.042969 12.6875-21.035156-3.320312-1.753906-7.09375-2.757813-11.109375-2.757813-13.140625 0-23.792969 10.652344-23.792969 23.792969s10.652344 23.796875 23.792969 23.796875c4.015625 0 7.792969-1.007813 11.109375-2.761719-7.542968-3.992187-12.6875-11.90625-12.6875-21.035156zm0 0" fill="#915039"/><path d="m279.660156 337.371094c-3.320312-1.753906-7.09375-2.757813-11.105468-2.757813-13.144532 0-23.796876 10.652344-23.796876 23.792969s10.652344 23.792969 23.796876 23.792969c4.011718 0 7.789062-1.003907 11.105468-2.757813-16.910156-8.945312-16.886718-33.136718 0-42.070312zm0 0" fill="#915039"/></svg>