<svg xmlns="http://www.w3.org/2000/svg" width="976" height="352" viewBox="0 0 976 352">
  <g id="Group_5016" data-name="Group 5016" transform="translate(6898 -111)">
    <path id="Rectangle_2708" data-name="Rectangle 2708" d="M10,0H966a10,10,0,0,1,10,10V352a0,0,0,0,1,0,0H0a0,0,0,0,1,0,0V10A10,10,0,0,1,10,0Z" transform="translate(-6898 111)" fill="#e8eaed"/>
    <g id="Group_5008" data-name="Group 5008" transform="translate(-51 96)">
      <path id="Rectangle_2709" data-name="Rectangle 2709" d="M40,0H423.791a40,40,0,0,1,40,40V315a0,0,0,0,1,0,0H0a0,0,0,0,1,0,0V40A40,40,0,0,1,40,0Z" transform="translate(-6591 52)" fill="#fff"/>
      <line id="Line_1252" data-name="Line 1252" x2="422" transform="translate(-6569.5 202.5)" fill="none" stroke="#e8eaed" stroke-width="3"/>
      <rect id="Rectangle_2711" data-name="Rectangle 2711" width="187" height="20" transform="translate(-6453 162)" fill="#f1f3f4"/>
      <circle id="Ellipse_214" data-name="Ellipse 214" cx="12" cy="12" r="12" transform="translate(-6478.34 93)" fill="#f1f3f4"/>
      <circle id="Ellipse_218" data-name="Ellipse 218" cx="8" cy="8" r="8" transform="translate(-6431.134 97)" fill="#f1f3f4"/>
      <circle id="Ellipse_219" data-name="Ellipse 219" cx="8" cy="8" r="8" transform="translate(-6256.203 97)" fill="#f1f3f4"/>
      <rect id="Rectangle_2712" data-name="Rectangle 2712" width="133" height="16" rx="8" transform="translate(-6398.698 97)" fill="#f1f3f4"/>
      <path id="Path_624" data-name="Path 624" d="M-4026.5-1176.643v-222.423h421.558v222.423" transform="translate(-2543 1541.143)" fill="none" stroke="#e8eaed" stroke-linejoin="round" stroke-width="3"/>
    </g>
    <g id="Group_5010" data-name="Group 5010" transform="translate(-24 91)">
      <g id="Union_12" data-name="Union 12" transform="translate(-6396.209 193)" fill="none">
        <path d="M167.121,128.494H56a10,10,0,0,1-10-10V42A10,10,0,0,1,56,32H191a10,10,0,0,1,10,10v76.493a10,10,0,0,1-10,10h-8.878v14.928Z" stroke="none"/>
        <path d="M 177.1222076416016 131.3928375244141 L 177.1222076416016 128.493896484375 L 177.1222076416016 123.493896484375 L 182.1222076416016 123.493896484375 L 191.0007019042969 123.493896484375 C 193.7576599121094 123.493896484375 196.0006103515625 121.2505645751953 196.0006103515625 118.4931106567383 L 196.0006103515625 42.00030517578125 C 196.0006103515625 39.24335098266602 193.7576599121094 37.00040054321289 191.0007019042969 37.00040054321289 L 56.00070190429688 37.00040054321289 C 53.24374771118164 37.00040054321289 51.00079727172852 39.24335098266602 51.00079727172852 42.00030517578125 L 51.00079727172852 118.4931106567383 C 51.00079727172852 121.2505645751953 53.24374771118164 123.493896484375 56.00070190429688 123.493896484375 L 167.1205596923828 123.493896484375 L 169.1844635009766 123.493896484375 L 170.6474151611328 124.94970703125 L 177.1222076416016 131.3928375244141 M 182.1222076416016 143.4222106933594 L 167.1205596923828 128.493896484375 L 56.00070190429688 128.493896484375 C 50.4774169921875 128.493896484375 46.00079727172852 124.0163955688477 46.00079727172852 118.4931106567383 L 46.00079727172852 42.00030517578125 C 46.00079727172852 36.47699356079102 50.4774169921875 32.00040054321289 56.00070190429688 32.00040054321289 L 191.0007019042969 32.00040054321289 C 196.5231018066406 32.00040054321289 201.0006103515625 36.47699356079102 201.0006103515625 42.00030517578125 L 201.0006103515625 118.4931106567383 C 201.0006103515625 124.0163955688477 196.5231018066406 128.493896484375 191.0007019042969 128.493896484375 L 182.1222076416016 128.493896484375 L 182.1222076416016 143.4222106933594 Z" stroke="none" fill="#f1f3f4"/>
      </g>
      <g id="baseline-edit-24px" transform="translate(-6302.066 246)">
        <path id="Path_74" data-name="Path 74" d="M3,37.441V46.5h9.063L38.791,19.775l-9.062-9.063ZM45.8,12.767a2.407,2.407,0,0,0,0-3.407L40.144,3.7a2.407,2.407,0,0,0-3.408,0L32.314,8.127l9.063,9.063L45.8,12.767Z" transform="translate(4.25 4.246)" fill="#f7eafa"/>
        <path id="Path_75" data-name="Path 75" d="M0,0H58V58H0Z" fill="none"/>
      </g>
    </g>
    <g id="Group_5009" data-name="Group 5009" transform="translate(-8 98)">
      <path id="Union_11" data-name="Union 11" d="M10,61.422a10,10,0,0,1-10-10v-21a10,10,0,0,1,10-10H60.879L81.3,0V20.423H97a10,10,0,0,1,10,10v21a10,10,0,0,1-10,10Z" transform="translate(-6484 352.423) rotate(180)" fill="#f1f3f4"/>
      <circle id="Ellipse_215" data-name="Ellipse 215" cx="5.5" cy="5.5" r="5.5" transform="translate(-6566 307)" fill="#fff"/>
      <circle id="Ellipse_216" data-name="Ellipse 216" cx="5.5" cy="5.5" r="5.5" transform="translate(-6543 307)" fill="#fff"/>
      <circle id="Ellipse_217" data-name="Ellipse 217" cx="5.5" cy="5.5" r="5.5" transform="translate(-6519.929 307)" fill="#fff"/>
    </g>
    <g id="Group_5003" data-name="Group 5003" transform="translate(-2561 1617)">
      <path id="Union_10" data-name="Union 10" d="M8,87.422a10,10,0,0,1-10-10v-47a10,10,0,0,1,10-10h2.421V-.321L31.165,20.423H83a10,10,0,0,1,10,10v47a10,10,0,0,1-10,10Z" transform="translate(-4116 -1360.577) rotate(180)" fill="#fff"/>
      <g id="baseline-star_border-24px" transform="translate(-4185.42 -1437.724)">
        <path id="Path_72" data-name="Path 72" d="M41.5,16.2,27.3,14.985,21.749,2,16.2,15,2,16.2l10.783,9.278L9.544,39.267l12.2-7.316,12.2,7.316L30.734,25.478Z" transform="translate(2.461 2.461)" fill="rgba(255,255,98,0.2)"/>
        <path id="Path_73" data-name="Path 73" d="M0,0H48.42V48.42H0Z" fill="none"/>
      </g>
    </g>
    <g id="Group_5007" data-name="Group 5007" transform="translate(-6122 259)">
      <path id="Union_10-2" data-name="Union 10" d="M12.421,63H10A10,10,0,0,1,0,53V-11A10,10,0,0,1,10-21H111a10,10,0,0,1,10,10V53a10,10,0,0,1-10,10H33.165L12.421,83.744Z" transform="translate(0 0)" fill="#fff"/>
      <g id="birthday-cake" transform="translate(35 -6.838)">
        <g id="cake">
          <path id="Path_78" data-name="Path 78" d="M25.419,10.4a3.554,3.554,0,0,0,3.466-3.466,5.438,5.438,0,0,0-.462-1.849L25.419,0l-3,5.084a4.353,4.353,0,0,0-.462,1.849A3.554,3.554,0,0,0,25.419,10.4Zm15.02,5.777H27.73V12.709H23.108v3.466H10.4A10.355,10.355,0,0,0,0,26.574a10.106,10.106,0,0,0,4.622,8.55V50.838H46.216V35.124a10.336,10.336,0,0,0-5.777-18.949Zm0,16.176a6.644,6.644,0,0,1-4.159-1.618l-3.466-3.466-3.466,3.466a5.575,5.575,0,0,1-3.928,1.618,6.644,6.644,0,0,1-4.159-1.618l-3.466-3.466-3.466,3.466A5.575,5.575,0,0,1,10.4,32.351a5.777,5.777,0,1,1,0-11.554H40.439a5.777,5.777,0,1,1,0,11.554Z" fill="rgba(250,166,114,0.2)"/>
        </g>
      </g>
    </g>
    <g id="Group_5004" data-name="Group 5004" transform="translate(-2598 1774)">
      <path id="Union_10-3" data-name="Union 10" d="M8,115.422a10,10,0,0,1-10-10v-84a10,10,0,0,1,10-10h.347V-4.4L24.166,11.423H128a10,10,0,0,1,10,10v84a10,10,0,0,1-10,10Z" transform="translate(-4116 -1360.577) rotate(180)" fill="#fff"/>
      <g id="heart-shape-outline" transform="translate(-4218.499 -1487.567)">
        <path id="Path_85" data-name="Path 85" d="M64.573,41.354q-4.926-4.81-13.613-4.809a15.466,15.466,0,0,0-4.906.834,19.827,19.827,0,0,0-4.653,2.25q-2.153,1.415-3.7,2.656a35.837,35.837,0,0,0-2.947,2.637A35.885,35.885,0,0,0,31.8,42.285q-1.552-1.241-3.7-2.656a19.856,19.856,0,0,0-4.654-2.25,15.469,15.469,0,0,0-4.906-.834q-8.688,0-13.613,4.809T0,54.7a16.99,16.99,0,0,0,.912,5.352A23.475,23.475,0,0,0,2.987,64.74a34.321,34.321,0,0,0,2.637,3.781q1.474,1.842,2.153,2.54a12.848,12.848,0,0,0,1.066,1.009l24.2,23.347a2.433,2.433,0,0,0,3.413,0L60.618,72.146Q69.5,63.266,69.5,54.695,69.5,46.162,64.573,41.354ZM57.243,68.5,34.749,90.181,12.217,68.462Q4.965,61.211,4.965,54.695A16.909,16.909,0,0,1,5.8,49.149a10.832,10.832,0,0,1,2.133-3.82,10.245,10.245,0,0,1,3.161-2.308,14.013,14.013,0,0,1,3.646-1.2,22.214,22.214,0,0,1,3.8-.31,11.154,11.154,0,0,1,4.344.989,19.828,19.828,0,0,1,4.285,2.482q1.959,1.494,3.355,2.792a30.126,30.126,0,0,1,2.327,2.385,2.542,2.542,0,0,0,3.8,0,30.043,30.043,0,0,1,2.327-2.385q1.4-1.3,3.354-2.792A19.823,19.823,0,0,1,46.618,42.5a11.153,11.153,0,0,1,4.344-.989,22.219,22.219,0,0,1,3.8.31,14,14,0,0,1,3.646,1.2,10.245,10.245,0,0,1,3.161,2.308,10.833,10.833,0,0,1,2.133,3.82,16.924,16.924,0,0,1,.833,5.546Q64.534,61.21,57.243,68.5Z" transform="translate(0 0)" fill="rgba(93,250,184,0.2)"/>
      </g>
    </g>
    <line id="Line_1251" data-name="Line 1251" x2="871" transform="translate(-6844.5 460.5)" fill="none" stroke="#e8eaed" stroke-width="5"/>
  </g>
</svg>
