<?xml version="1.0" encoding="utf-8"?>
<!-- Generator: Adobe Illustrator 23.0.2, SVG Export Plug-In . SVG Version: 6.00 Build 0)  -->
<svg version="1.1" id="Layer_1" xmlns="http://www.w3.org/2000/svg" xmlns:xlink="http://www.w3.org/1999/xlink" x="0px" y="0px"
	 viewBox="0 0 512 512" style="enable-background:new 0 0 512 512;" xml:space="preserve">
<style type="text/css">
	.st0{fill:none;stroke:#707070;stroke-width:12;stroke-miterlimit:10;}
	.st1{fill:#707070;stroke:#FFFFFF;stroke-width:15;stroke-miterlimit:10;}
</style>
<path class="st0" d="M486.7,375.9c0,6-4.7,10.9-10.6,10.9H48.9c-5.8,0-10.6-4.9-10.6-10.9V135.7c0-6,4.7-10.9,10.6-10.9h427.2
	c5.8,0,10.6,4.9,10.6,10.9V375.9z"/>
<path class="st1" d="M206.4,251.4c17.8-21.9,16.6-54.3-3.8-74.6c-21.7-21.7-57.1-21.7-78.9,0c-20.4,20.4-21.7,52.8-3.8,74.6
	c-15.6,8.1-29,20.4-38.3,35.9c-7.8,13.1-7.9,29-0.3,42.3c7.7,13.4,21.5,21.5,36.9,21.5H208c15.4,0,29.2-8,36.9-21.5
	c7.6-13.3,7.5-29.1-0.3-42.3C235.4,271.8,222,259.5,206.4,251.4z M217.9,314.3c-1,1.7-3.9,5.8-9.9,5.8h-89.8c-6,0-8.9-4-9.9-5.8
	c-1-1.7-2.9-6.1,0.1-11.1c11.4-19.3,32.4-31.2,54.8-31.2c22.4,0,43.3,12,54.8,31.2C220.8,308.1,218.9,312.6,217.9,314.3z
	 M145.7,198.8c4.8-4.8,11.1-7.2,17.4-7.2s12.6,2.4,17.5,7.2c9.6,9.6,9.6,25.3,0,34.9c-9.6,9.6-25.3,9.6-34.9,0
	C136.1,224.1,136.1,208.4,145.7,198.8z"/>
<path class="st1" d="M418.9,183.5H311.2c-8.6,0-15.5,7-15.5,15.5c0,8.6,7,15.5,15.5,15.5h107.7c8.6,0,15.5-7,15.5-15.5
	C434.4,190.4,427.5,183.5,418.9,183.5z"/>
<path class="st1" d="M418.9,240.3H311.2c-8.6,0-15.5,7-15.5,15.5c0,8.6,7,15.5,15.5,15.5h107.7c8.6,0,15.5-7,15.5-15.5
	C434.4,247.2,427.5,240.3,418.9,240.3z"/>
<path class="st1" d="M415.8,297H314.3c-10.3,0-18.6,7-18.6,15.5c0,8.6,8.3,15.5,18.6,15.5h101.5c10.3,0,18.6-7,18.6-15.5
	C434.4,304,426.1,297,415.8,297z"/>
</svg>
