<svg xmlns="http://www.w3.org/2000/svg" xmlns:xlink="http://www.w3.org/1999/xlink" width="130" height="130" viewBox="0 0 130 130"><defs><style>.a,.q{fill:#fff;}.a{stroke:#707070;}.b{clip-path:url(#a);}.c{fill:#60ba4d;}.d{fill:#85cf75;}.e{fill:#ffd17e;}.f{fill:#ffeac3;}.g{fill:#ff9441;}.h{fill:#ffb739;}.i{fill:#f0224e;}.j{fill:#ff4c50;}.k{fill:#54a5ff;}.l{fill:#b8d8ff;}.m{fill:#89c1ff;}.n{fill:#1e8aff;}.o{fill:#1b74d6;}.p{fill:#fff7e8;}.r{fill:#3d5168;}</style><clipPath id="a"><rect class="a" width="130" height="130" transform="translate(749 387)"/></clipPath></defs><g class="b" transform="translate(-749 -387)"><g transform="translate(749 387)"><path class="c" d="M110.905,59.376V87.233l7.847-5.885a7.847,7.847,0,0,0,3.139-6.278V59.376Z"/><path class="d" d="M114.044,80.956V59.376H98.35L106.2,90.765l4.708-3.531A7.847,7.847,0,0,0,114.044,80.956Z"/><path class="e" d="M98.35,43.682l15.694,25.5,4.708-3.531a7.847,7.847,0,0,0,3.139-6.278V43.682Z"/><path class="f" d="M114.044,43.682H98.35L106.2,75.07l7.847-5.885Z"/><path class="g" d="M98.35,27.988l15.694,25.5,4.708-3.531a7.847,7.847,0,0,0,3.139-6.278V27.988Z"/><path class="h" d="M114.044,27.988H98.35L106.2,59.376l7.847-5.885Z"/><path class="i" d="M114.044,7.847,98.35,27.988,114.044,37.8l4.708-3.531a7.847,7.847,0,0,0,3.139-6.278V9.809a1.962,1.962,0,0,0-1.962-1.962Z"/><path class="j" d="M114.044,7.847H106.2L98.35,27.988,106.2,43.682l7.847-5.885Z"/><path class="k" d="M106.2,1.962v96.65L82.656,110.382V7.847L98.35,0h5.885A1.962,1.962,0,0,1,106.2,1.962Z"/><path class="l" d="M8.109,11.771v98.612H35.573L19.879,0A11.772,11.772,0,0,0,8.109,11.771Z"/><path class="m" d="M98.35,0H90.5L84.618,7.847,78.732,0H19.879V110.382H98.35Z"/><path class="n" d="M70.885,15.694,55.191,37.535,70.885,59.376H82.656V15.694Z"/><path class="k" d="M35.573,15.694H70.885V59.376H35.573Z"/><path class="o" d="M106.2,98.612H98.35L73.334,114.306,98.35,130h5.885a1.962,1.962,0,0,0,1.962-1.962v-5.885l-11.1-7.847,11.1-7.847Z"/><path class="n" d="M19.879,98.612A11.772,11.772,0,0,0,8.109,110.382v7.847A11.772,11.772,0,0,0,19.879,130H78.732l5.885-7.847L90.5,130H98.35V98.612Z"/><path class="p" d="M19.878,110.382H98.35v11.771H19.878Z"/><path class="q" d="M19.878,106.459H98.35v7.847H19.878Z"/><path class="f" d="M106.2,122.153H98.35a11.055,11.055,0,0,1-3.251-7.847l3.924-3.924,3.924,3.924A11.055,11.055,0,0,0,106.2,122.153Z"/><path class="p" d="M98.35,106.459H106.2a11.055,11.055,0,0,0-3.251,7.847H95.1A11.055,11.055,0,0,1,98.35,106.459Z"/><path class="r" d="M78.732,0H90.5V130H78.732Z"/><path class="r" d="M19.879,106.459a3.924,3.924,0,0,0-3.924,3.924v7.847a3.924,3.924,0,1,0,7.847,0v-7.847A3.924,3.924,0,0,0,19.879,106.459Z"/></g></g></svg>