<svg xmlns="http://www.w3.org/2000/svg" width="75.99" height="45.419" viewBox="0 0 75.99 45.419"><defs><style>.a{fill:#efecef;}.b{fill:#d3ced5;}.c{fill:#c3bec6;}.d{fill:#695e66;}.e{fill:#453e43;}.f{fill:#463e43;}.g{fill:#e28086;}.h{fill:#dd636e;}</style></defs><g transform="translate(17.113 20.108)"><path class="a" d="M172.7,263.785H115.3V238.474H172.7a1.484,1.484,0,0,1,1.484,1.484V262.3A1.484,1.484,0,0,1,172.7,263.785Z" transform="translate(-115.304 -238.474)"/></g><g transform="translate(10.381 20.108)"><path class="b" d="M134.073,238.474h-2.026V258.8a1.478,1.478,0,0,1-1.478,1.478H69.941v2.027a1.478,1.478,0,0,0,1.478,1.478h62.655a1.478,1.478,0,0,0,1.478-1.478V239.952a1.478,1.478,0,0,0-1.478-1.478Z" transform="translate(-69.941 -238.474)"/></g><g transform="translate(10.38 29.024)"><path class="b" d="M76.673,314.942H71.418a1.478,1.478,0,0,1-1.478-1.478V298.547H84.131l.739,8.2A8.2,8.2,0,0,1,76.673,314.942Z" transform="translate(-69.94 -298.547)"/></g><g transform="translate(10.381 29.024)"><path class="c" d="M84.832,305.155l-2.07-6.608.211,2.338a8.2,8.2,0,0,1-8.2,8.2H69.941v4.382a1.478,1.478,0,0,0,1.478,1.478h5.255a8.2,8.2,0,0,0,8.2-8.2v-.391Z" transform="translate(-69.941 -298.547)"/></g><g transform="translate(0 3.714)"><path class="d" d="M17.184,128.012H1.478A1.478,1.478,0,0,0,0,129.49v22.355a1.478,1.478,0,0,0,1.478,1.478H17.113a8.2,8.2,0,0,1,8.2,8.2V136.139A8.127,8.127,0,0,0,17.184,128.012Z" transform="translate(0 -128.012)"/></g><g transform="translate(12.576 3.714)"><path class="e" d="M89.342,128.012H84.734a8.127,8.127,0,0,1,8.127,8.127v18.01a8.2,8.2,0,0,1,4.608,7.371V136.139A8.127,8.127,0,0,0,89.342,128.012Z" transform="translate(-84.734 -128.012)"/></g><g transform="translate(58.184 6.073)"><path class="f" d="M393.9,163.841a1.105,1.105,0,0,1-.784-.325,3.738,3.738,0,0,1,0-5.28l9.492-9.491a1.518,1.518,0,0,0-1.031-2.59l-1.016-.028a1.108,1.108,0,0,1,.03-2.216h.032l1.016.029a3.734,3.734,0,0,1,2.536,6.373l-9.492,9.491a1.519,1.519,0,0,0,0,2.146,1.108,1.108,0,0,1-.784,1.892Z" transform="translate(-392.023 -143.91)"/></g><g transform="translate(34.941)"><path class="g" d="M243.814,134.448l-7.235,4.5a.754.754,0,0,1-1.038-1.038l4.5-7.235a9.993,9.993,0,0,1,1.419-1.788l25.462-25.462a1.477,1.477,0,0,1,2.09,0l2.054,2.054a1.477,1.477,0,0,1,0,2.09L245.6,133.029a9.98,9.98,0,0,1-1.788,1.419Z" transform="translate(-235.422 -102.991)"/></g><g transform="translate(34.941 1.564)"><path class="h" d="M271.063,114.453l-.922-.922L244.83,138.842a9.982,9.982,0,0,1-1.788,1.419l-5.517,3.43-1.986,3.193a.754.754,0,0,0,1.038,1.038l7.235-4.5a9.989,9.989,0,0,0,1.788-1.419l25.462-25.462A1.477,1.477,0,0,0,271.063,114.453Z" transform="translate(-235.421 -113.531)"/></g><g transform="translate(28.071 38.539)"><path class="c" d="M196.351,364.868h-6.109a1.108,1.108,0,1,1,0-2.216h6.109a1.108,1.108,0,0,1,0,2.216Z" transform="translate(-189.134 -362.652)"/></g><g transform="translate(46.876 38.539)"><path class="c" d="M327.341,364.868h-10.4a1.108,1.108,0,1,1,0-2.216h10.4a1.108,1.108,0,1,1,0,2.216Z" transform="translate(-315.833 -362.652)"/></g></svg>