<svg xmlns="http://www.w3.org/2000/svg" width="72.412" height="50.334" viewBox="0 0 72.412 50.334"><defs><style>.a{fill:#e28086;}.b{fill:#dd636e;}.c{fill:#695e66;}.d{fill:#f9f6f9;}.e{fill:#453e43;}.f{fill:#f6e266;}</style></defs><g transform="translate(-7)"><g transform="translate(24.863)"><path class="a" d="M211.439,128.043H163.71a3.41,3.41,0,0,1-3.41-3.41v-16.16l1.085-5.026L160.3,98.421v-4.5a3.41,3.41,0,0,1,3.41-3.41h47.73a3.41,3.41,0,0,1,3.41,3.41v4.5l-1.085,5.026,1.085,5.026v16.16A3.41,3.41,0,0,1,211.439,128.043Z" transform="translate(-160.3 -90.515)"/><g transform="translate(0 0)"><path class="b" d="M214.85,93.925a3.41,3.41,0,0,0-3.41-3.41H210.9v32.337a1.24,1.24,0,0,1-1.24,1.24H160.3v.541a3.41,3.41,0,0,0,3.41,3.41h47.73a3.41,3.41,0,0,0,3.41-3.41V108.474l-1.085-5.026,1.085-5.026Z" transform="translate(-160.301 -90.515)"/></g><g transform="translate(0 7.906)"><path class="c" d="M160.3,141.491H214.85v10.052H160.3Z" transform="translate(-160.301 -141.491)"/></g><g transform="translate(40.526 23.292)"><path class="d" d="M429.547,243.012h-6.8a1.162,1.162,0,0,1,0-2.325h6.8a1.162,1.162,0,1,1,0,2.325Z" transform="translate(-421.585 -240.687)"/></g><g transform="translate(50.598 7.906)"><path class="e" d="M486.525,141.491h3.951v10.052h-3.951Z" transform="translate(-486.525 -141.491)"/></g></g><g transform="translate(7 12.806)"><path class="a" d="M51.137,217.054H3.412A3.412,3.412,0,0,1,0,213.642v-30.7a3.412,3.412,0,0,1,3.412-3.412H51.137a3.412,3.412,0,0,1,3.412,3.412v30.7A3.412,3.412,0,0,1,51.137,217.054Z" transform="translate(0 -179.526)"/><g transform="translate(0 0)"><path class="b" d="M51.139,179.526H50.6v32.337a1.24,1.24,0,0,1-1.24,1.24H0v.541a3.41,3.41,0,0,0,3.41,3.41h47.73a3.41,3.41,0,0,0,3.41-3.41V182.936a3.41,3.41,0,0,0-3.41-3.41Z" transform="translate(0 -179.526)"/></g><g transform="translate(4.84 25.26)"><path class="d" d="M39.169,344.713h-6.8a1.162,1.162,0,1,1,0-2.325h6.8a1.162,1.162,0,1,1,0,2.325Z" transform="translate(-31.207 -342.388)"/><g transform="translate(11.915)"><path class="d" d="M115.988,344.713h-6.8a1.162,1.162,0,1,1,0-2.325h6.8a1.162,1.162,0,1,1,0,2.325Z" transform="translate(-108.026 -342.388)"/></g><g transform="translate(23.829)"><path class="d" d="M192.806,344.713h-6.8a1.162,1.162,0,1,1,0-2.325h6.8a1.162,1.162,0,1,1,0,2.325Z" transform="translate(-184.844 -342.388)"/></g><g transform="translate(35.744)"><path class="d" d="M269.624,344.713h-6.8a1.162,1.162,0,0,1,0-2.325h6.8a1.162,1.162,0,0,1,0,2.325Z" transform="translate(-261.662 -342.388)"/></g></g><g transform="translate(6.003 9.406)"><path class="f" d="M48.333,249.039h-7.35a2.282,2.282,0,0,1-2.282-2.282v-4.305a2.282,2.282,0,0,1,2.282-2.282h7.35a2.282,2.282,0,0,1,2.282,2.282v4.305A2.282,2.282,0,0,1,48.333,249.039Z" transform="translate(-38.701 -240.169)"/></g><g transform="translate(40.112 7.017)"><g transform="translate(0 3.16)"><path class="d" d="M259.783,252.47a1.162,1.162,0,0,1-.841-1.965,2.456,2.456,0,0,0,0-3.4,1.162,1.162,0,0,1,1.681-1.606,4.781,4.781,0,0,1,0,6.607A1.159,1.159,0,0,1,259.783,252.47Z" transform="translate(-258.621 -245.144)"/></g><g transform="translate(4.043)"><path class="d" d="M285.849,238.416a1.162,1.162,0,0,1-.885-1.916,7.578,7.578,0,0,0,0-9.816,1.162,1.162,0,1,1,1.771-1.506,9.9,9.9,0,0,1,0,12.828A1.16,1.16,0,0,1,285.849,238.416Z" transform="translate(-284.687 -224.769)"/></g></g></g></g></svg>