<svg xmlns="http://www.w3.org/2000/svg" width="51.563" height="50.948" viewBox="0 0 51.563 50.948"><defs><style>.a{fill:#ba7e56;}.b{fill:#996441;}.c{fill:#f7a34f;}.d{fill:#f9c84e;}</style></defs><g transform="translate(0.001 -0.5)"><path class="a" d="M136.284,7.074,132.428,8.8l-1.936-.866-1.919-.859c0-1.947-3.905-6.575.362-6.575A5.729,5.729,0,0,1,130.9.82a4.39,4.39,0,0,1,1.531.93A4.906,4.906,0,0,1,135.923.5C140.19.5,136.284,5.128,136.284,7.074Zm0,0" transform="translate(-114.156)"/><path class="b" d="M130.492,7.934l-1.919-.859c0-1.947-3.905-6.575.362-6.575A5.729,5.729,0,0,1,130.9.82c-1.26-.268-.129,4.8.391,6.254C131.416,7.425,131.078,7.707,130.492,7.934Zm0,0" transform="translate(-114.156)"/><path class="a" d="M22.8,84.64c0,4.018,20.453,24.233,11.462,32.143-4.283,3.768-10.574,3.657-15.988,3.705-5.414-.048-11.7.063-15.988-3.705-8.99-7.91,11.462-28.125,11.462-32.143l4.526-1.726Zm0,0" transform="translate(-0.005 -74.114)"/><path class="b" d="M18.27,120.5c-5.414-.048-11.705.063-15.987-3.7-8.99-7.91,11.463-28.125,11.463-32.143l4.524-1.726-1.89,1.726c0,4.018-8.548,24.232-4.79,32.143C13.38,120.558,16.008,120.447,18.27,120.5Zm0,0" transform="translate(0 -74.121)"/><path class="c" d="M135.851,82.22,133.189,90.4a1.192,1.192,0,1,1-2.268-.738l2.421-7.44,2-2Zm0,0" transform="translate(-117.684 -71.694)"/><path class="d" d="M165.377,85.821l1.984,6.094a1.193,1.193,0,0,1-2.269.738l-1.439-4.423-1-4Zm0,0" transform="translate(-146.269 -75.295)"/><path class="d" d="M135.446,65.77h-7.712a1.726,1.726,0,0,0,0,3.453h7.712a1.726,1.726,0,0,0,0-3.453Zm0,0" transform="translate(-113.318 -58.696)"/><path class="c" d="M129.046,68.72a1.721,1.721,0,0,0,1.221.506h-2.532a1.726,1.726,0,1,1,0-3.453h2.532a1.726,1.726,0,0,0-1.221,2.947Zm0,0" transform="translate(-113.318 -58.7)"/><path class="a" d="M198.868,63.293h0" transform="translate(-178.84 -56.469)"/><path class="a" d="M285.413,57.456l-3.856,1.726-1.936-.866-1.919-.858c0-1.947-3.905-6.575.362-6.575a5.72,5.72,0,0,1,1.963.32,4.384,4.384,0,0,1,1.531.93,4.9,4.9,0,0,1,3.494-1.25C289.319,50.883,285.413,55.511,285.413,57.456Zm0,0" transform="translate(-248.266 -45.309)"/><path class="b" d="M279.621,58.316l-1.919-.859c0-1.947-3.905-6.575.362-6.575a5.729,5.729,0,0,1,1.963.32c-1.26-.268-.129,4.8.391,6.254C280.544,57.808,280.207,58.09,279.621,58.316Zm0,0" transform="translate(-248.266 -45.309)"/><path class="a" d="M171.932,135.023c0,4.018,20.453,24.232,11.462,32.143-4.283,3.768-10.574,3.657-15.988,3.7-5.414-.048-11.7.063-15.988-3.7-8.99-7.91,11.462-28.125,11.462-32.143l4.526-1.726Zm0,0" transform="translate(-134.115 -119.423)"/><path class="b" d="M167.4,170.878c-5.414-.048-11.705.063-15.987-3.7-8.99-7.91,11.463-28.125,11.463-32.143L167.4,133.3l-1.89,1.726c0,4.018-8.548,24.232-4.79,32.143C162.509,170.94,165.137,170.83,167.4,170.878Zm0,0" transform="translate(-134.11 -119.43)"/><path class="c" d="M284.98,132.6l-2.662,8.178a1.193,1.193,0,1,1-2.268-.738l2.421-7.44,2-2Zm0,0" transform="translate(-251.794 -117.003)"/><path class="d" d="M314.506,136.2l1.984,6.094a1.193,1.193,0,0,1-2.269.738l-1.439-4.423-1-4Zm0,0" transform="translate(-280.379 -120.603)"/><path class="d" d="M284.575,116.152h-7.712a1.726,1.726,0,0,0,0,3.453h7.712a1.726,1.726,0,1,0,0-3.453Zm0,0" transform="translate(-247.428 -104.005)"/><path class="c" d="M278.175,119.1a1.723,1.723,0,0,0,1.221.506h-2.532a1.726,1.726,0,1,1,0-3.453H279.4a1.726,1.726,0,0,0-1.221,2.947Zm0,0" transform="translate(-247.428 -104.009)"/><path class="d" d="M179.734,266.3a1.191,1.191,0,0,0,1.123-1.207v-.2a3.452,3.452,0,0,0,2.24-2.68,3.1,3.1,0,0,0-2.106-3.514,8.046,8.046,0,0,1-2.011-.927.458.458,0,0,1-.049-.371.659.659,0,0,1,.42-.521,1.385,1.385,0,0,1,1.276.188l-.02-.018.257.109a1.149,1.149,0,0,0,1.315-1.813,3.4,3.4,0,0,0-1.321-.707v-.058a1.191,1.191,0,0,0-1.123-1.207,1.159,1.159,0,0,0-1.195,1.158v.177a2.96,2.96,0,0,0-1.886,2.263,2.666,2.666,0,0,0,.9,2.624,9.672,9.672,0,0,0,2.669,1.289.79.79,0,0,1,.593.944,1.12,1.12,0,0,1-1.121.952,2.068,2.068,0,0,1-1.5-.372,1.194,1.194,0,0,0-1.621.276,1.159,1.159,0,0,0,.312,1.638,4.222,4.222,0,0,0,1.657.7v.121a1.159,1.159,0,0,0,1.195,1.159Z" transform="translate(-146.462 -222.926)"/></g></svg>