<svg xmlns="http://www.w3.org/2000/svg" width="73.847" height="42.692" viewBox="0 0 73.847 42.692"><defs><style>.a{fill:#365e7d;}.a,.b,.c,.d,.e,.f,.g,.h,.j{fill-rule:evenodd;}.b{fill:#2b4d66;}.c{fill:#22a6fe;}.d{fill:#0593fc;}.e{fill:#f37c7c;}.f,.i{fill:#eb5468;}.g{fill:#ffe07d;}.h{fill:#ffd064;}.j{fill:#fff0af;}</style></defs><path class="a" d="M4.326,108h65.2a4.338,4.338,0,0,1,4.326,4.326v34.041a4.338,4.338,0,0,1-4.326,4.326H4.326A4.338,4.338,0,0,1,0,146.368V112.328A4.338,4.338,0,0,1,4.326,108Z" transform="translate(0 -108.002)"/><path class="b" d="M457.007,108h3.606a4.338,4.338,0,0,1,4.326,4.326v34.041a4.338,4.338,0,0,1-4.326,4.326h-3.606a4.338,4.338,0,0,0,4.326-4.326V112.328A4.338,4.338,0,0,0,457.007,108Z" transform="translate(-391.092 -108.002)"/><path class="c" d="M268.954,108h10l25.058,25.062v9.992Z" transform="translate(-230.162 -108.002)"/><path class="d" d="M487,256.766l3.606,3.606v9.992l-3.606-3.6Z" transform="translate(-416.758 -235.31)"/><path class="e" d="M345.681,139.013c1.112,0,1.967,1.5,2.968,1.836s2.543-.376,3.377.237.617,2.294,1.231,3.128,2.285,1.145,2.621,2.147-.814,2.281-.814,3.393,1.145,2.4.814,3.4-2.011,1.312-2.621,2.146-.4,2.515-1.231,3.128-2.38-.1-3.377.233-1.856,1.84-2.968,1.84-1.967-1.5-2.964-1.84-2.547.376-3.381-.233-.617-2.3-1.227-3.128-2.29-1.149-2.621-2.146.81-2.286.81-3.4-1.145-2.4-.81-3.393,2.011-1.317,2.621-2.147.4-2.518,1.227-3.128,2.38.094,3.381-.237S344.569,139.013,345.681,139.013Z" transform="translate(-287.047 -134.54)"/><path class="f" d="M427.3,151.619c1,.311,2.523-.376,3.348.229s.617,2.294,1.231,3.128,2.286,1.145,2.621,2.147-.814,2.281-.814,3.393,1.145,2.4.814,3.4-2.011,1.312-2.621,2.146-.4,2.515-1.231,3.128-2.351-.086-3.348.225c.536-.781.433-2.257.973-3.034.609-.879,2.285-1.214,2.621-2.269s-.814-2.416-.814-3.594,1.145-2.535.814-3.59-2.012-1.39-2.621-2.273C427.733,153.875,427.836,152.4,427.3,151.619Z" transform="translate(-365.67 -145.302)"/><path class="g" d="M74.8,254.807h20.68a1.157,1.157,0,0,0,1.153-1.153v-14.24a1.158,1.158,0,0,0-1.153-1.157H74.8a1.159,1.159,0,0,0-1.157,1.157v14.24a1.158,1.158,0,0,0,1.157,1.153Z" transform="translate(-63.023 -219.47)"/><path class="h" d="M200.043,254.807h3.606a1.157,1.157,0,0,0,1.153-1.153v-14.24a1.158,1.158,0,0,0-1.153-1.157h-3.606a1.158,1.158,0,0,1,1.153,1.157v14.24A1.157,1.157,0,0,1,200.043,254.807Z" transform="translate(-171.191 -219.47)"/><path class="i" d="M85.513,166.782h5.822a1.594,1.594,0,0,0,.859-.225,1.877,1.877,0,0,0,.7-.834,3.259,3.259,0,0,0,.274-1.357,3.383,3.383,0,0,0-.474-1.774,2.853,2.853,0,0,0-.94-.92,3.154,3.154,0,0,0-1.447-.482,2.089,2.089,0,0,0-1.259.274,1.832,1.832,0,0,0-.581.593Zm-1.946,2.163H75.794a3.7,3.7,0,0,1-1.987-.552,4.025,4.025,0,0,1-1.525-1.774,5.473,5.473,0,0,1-.478-2.253,5.557,5.557,0,0,1,.806-2.907,5.042,5.042,0,0,1,1.635-1.623,5.344,5.344,0,0,1,2.433-.8,4.217,4.217,0,0,1,2.543.593,4.022,4.022,0,0,1,1.284,1.288l3.062,4.91,3.062-4.91a3.971,3.971,0,0,1,1.28-1.288,4.23,4.23,0,0,1,2.547-.593,5.342,5.342,0,0,1,2.433.8,5.122,5.122,0,0,1,1.635,1.623,5.553,5.553,0,0,1,.8,2.907,5.472,5.472,0,0,1-.474,2.253,4.05,4.05,0,0,1-1.525,1.774,3.715,3.715,0,0,1-1.991.552Zm-7.772-2.163h5.822l-2.948-4.726a1.793,1.793,0,0,0-.581-.593,2.081,2.081,0,0,0-1.259-.274,3.139,3.139,0,0,0-1.443.482,2.9,2.9,0,0,0-.944.92,3.383,3.383,0,0,0-.474,1.774,3.326,3.326,0,0,0,.274,1.357,1.885,1.885,0,0,0,.7.834A1.591,1.591,0,0,0,75.794,166.782Z" transform="translate(-61.448 -151.663)"/><path class="j" d="M57.847,220.168H83.421a1.158,1.158,0,0,0,1.153-1.157v-5.029a1.157,1.157,0,0,0-1.153-1.153H73.081l-2.371.36-2.519-.36H57.847a1.157,1.157,0,0,0-1.153,1.153v5.029a1.158,1.158,0,0,0,1.153,1.157Z" transform="translate(-48.517 -197.71)"/><path class="g" d="M216.995,220.168H220.6a1.158,1.158,0,0,0,1.153-1.157v-5.029a1.157,1.157,0,0,0-1.153-1.153h-3.606a1.157,1.157,0,0,1,1.153,1.153v5.029A1.158,1.158,0,0,1,216.995,220.168Z" transform="translate(-185.698 -197.71)"/><path class="f" d="M136.4,212.828h4.89v20.218H136.4Z" transform="translate(-116.731 -197.709)"/><path class="e" d="M136.4,212.828h4.89v7.339H136.4Z" transform="translate(-116.731 -197.709)"/></svg>