<svg xmlns="http://www.w3.org/2000/svg" width="62.653" height="60" viewBox="0 0 62.653 60"><defs><style>.a{fill:#54a0ff;}.b{fill:#338def;}.c{fill:#e4eaf8;}.d{fill:#c7d2e5;}.e{fill:#ff6b6b;}.f{fill:#576574;}.g{fill:#3e4b5a;}.h{fill:#ee5253;}.i{fill:#117ac9;}</style></defs><g transform="translate(0 -0.5)"><path class="a" d="M52.609,89.992A26.305,26.305,0,1,1,26.3,63.9,26.2,26.2,0,0,1,52.609,89.992Zm0,0" transform="translate(0 -55.586)"/><path class="b" d="M3.809,89.992a26.182,26.182,0,0,1,24.4-26.025q-.944-.067-1.9-.069a26.095,26.095,0,1,0,0,52.187c.641,0,1.276-.024,1.9-.069A26.182,26.182,0,0,1,3.809,89.992Zm0,0" transform="translate(0 -55.586)"/><path class="c" d="M91.175,135.076a20,20,0,1,1-20-20A20,20,0,0,1,91.175,135.076Zm0,0" transform="translate(-44.873 -100.881)"/><path class="d" d="M56,135.076A20,20,0,0,1,73.59,115.223a20.252,20.252,0,0,0-2.412-.145,20,20,0,1,0,2.412,39.85A20,20,0,0,1,56,135.076Zm0,0" transform="translate(-44.873 -100.881)"/><path class="e" d="M239.848,36.46a.953.953,0,0,1-.952-.953v-.89A32.25,32.25,0,0,0,206.683,2.4a.952.952,0,1,1,0-1.9A34.1,34.1,0,0,1,240.8,34.617v.89A.952.952,0,0,1,239.848,36.46Zm0,0" transform="translate(-180.819)"/><g transform="translate(5.355 13.246)"><path class="b" d="M206.683,107.355a.952.952,0,0,0-.952.952v1.984a.952.952,0,1,0,1.9,0v-1.984A.952.952,0,0,0,206.683,107.355Zm0,0" transform="translate(-185.733 -107.355)"/><path class="b" d="M206.683,415.809a.952.952,0,0,0-.952.952v1.984a.952.952,0,0,0,1.9,0v-1.984A.952.952,0,0,0,206.683,415.809Zm0,0" transform="translate(-185.733 -377.797)"/><path class="b" d="M125.711,132.239a.952.952,0,1,0,1.649-.952l-.992-1.718a.952.952,0,0,0-1.649.952Zm0,0" transform="translate(-114.592 -126.414)"/><path class="b" d="M280.6,396.7a.952.952,0,0,0-1.649.953l.992,1.718a.952.952,0,1,0,1.649-.952Zm0,0" transform="translate(-249.815 -360.627)"/><path class="b" d="M65.671,190.268l1.718.992a.952.952,0,0,0,.952-1.649l-1.718-.992a.952.952,0,0,0-.952,1.649Zm0,0" transform="translate(-62.515 -178.493)"/><path class="b" d="M335.47,343.838l-1.718-.992a.952.952,0,0,0-.952,1.649l1.718.992a.952.952,0,1,0,.952-1.649Zm0,0" transform="translate(-296.725 -313.714)"/><path class="b" d="M47.342,270.581a.953.953,0,0,0-.953-.952H44.405a.952.952,0,1,0,0,1.9h1.984A.952.952,0,0,0,47.342,270.581Zm0,0" transform="translate(-43.453 -249.632)"/><path class="b" d="M354.843,269.629h-1.984a.952.952,0,1,0,0,1.9h1.984a.952.952,0,1,0,0-1.9Zm0,0" transform="translate(-313.895 -249.632)"/><path class="b" d="M67.389,342.846l-1.718.992a.952.952,0,0,0,.477,1.777c.329,0,.316-.036,2.193-1.12a.952.952,0,0,0-.952-1.649Zm0,0" transform="translate(-62.515 -313.714)"/><path class="b" d="M333.752,191.26l1.718-.992a.952.952,0,1,0-.952-1.649l-1.718.992a.952.952,0,0,0,.952,1.649Zm0,0" transform="translate(-296.725 -178.493)"/><path class="b" d="M127.011,396.351a.952.952,0,0,0-1.3.348l-.992,1.719a.952.952,0,0,0,1.649.952l.992-1.718A.951.951,0,0,0,127.011,396.351Zm0,0" transform="translate(-114.592 -360.625)"/><path class="b" d="M279.3,132.588a.952.952,0,0,0,1.3-.349l.992-1.718a.952.952,0,1,0-1.649-.952l-.992,1.718A.952.952,0,0,0,279.3,132.588Zm0,0" transform="translate(-249.815 -126.414)"/></g><path class="e" d="M206.683,166.219a.952.952,0,0,1-.952-.952V152.925a.952.952,0,1,1,1.9,0v12.342A.952.952,0,0,1,206.683,166.219Zm0,0" transform="translate(-180.561 -132.977)"/><path class="f" d="M240.7,262.5h-9.5a3.142,3.142,0,0,1,0,3.661h9.5a1.83,1.83,0,1,0,0-3.661Zm0,0" transform="translate(-202.951 -229.957)"/><path class="g" d="M235.108,266.165a3.39,3.39,0,0,0,0-3.661H231.2a3.142,3.142,0,0,1,0,3.661Zm0,0" transform="translate(-202.922 -229.957)"/><path class="e" d="M460.068,277.355h-6.54a.354.354,0,0,0-.3.535l3.27,5.494a.354.354,0,0,0,.608,0l3.27-5.494A.354.354,0,0,0,460.068,277.355Zm0,0" transform="translate(-397.769 -243.004)"/><path class="h" d="M456.906,277.764a.352.352,0,0,1,.033-.408h-3.411a.354.354,0,0,0-.3.535l3.27,5.494a.354.354,0,0,0,.608,0l1.574-2.646Zm0,0" transform="translate(-397.769 -243.004)"/><path class="a" d="M194.163,254.905a3.156,3.156,0,1,1-3.156-3.155A3.156,3.156,0,0,1,194.163,254.905Zm0,0" transform="translate(-164.882 -220.53)"/><path class="b" d="M191.66,254.905a3.15,3.15,0,0,1,1.251-2.516,3.156,3.156,0,1,0,0,5.032A3.15,3.15,0,0,1,191.66,254.905Zm0,0" transform="translate(-164.878 -220.53)"/><path class="i" d="M64.4,149.251a20.95,20.95,0,1,1,20.95-20.95A20.974,20.974,0,0,1,64.4,149.251Zm0-39.995A19.045,19.045,0,1,0,83.449,128.3,19.067,19.067,0,0,0,64.4,109.256Zm0,0" transform="translate(-38.098 -94.107)"/></g></svg>