<svg xmlns="http://www.w3.org/2000/svg" width="45.276" height="37.064" viewBox="0 0 45.276 37.064">
  <g id="Group_10" data-name="Group 10" transform="translate(-978 -591)">
    <g id="Group_9" data-name="Group 9">
      <path id="Path_26" data-name="Path 26" d="M6.143,7.1V8H2.823V7.1h1.12V4.164q0-.112,0-.226t.012-.23l-.664.552a.39.39,0,0,1-.174.082.472.472,0,0,1-.162,0,.38.38,0,0,1-.136-.052.3.3,0,0,1-.088-.078l-.392-.52L4.159,2.168H5.183V7.1ZM9.635,4.76a.321.321,0,0,1-.1.108.268.268,0,0,1-.138.032.441.441,0,0,1-.176-.038l-.19-.082A2.07,2.07,0,0,0,8.8,4.7a1.027,1.027,0,0,0-.292-.038.618.618,0,0,0-.362.09A.29.29,0,0,0,8.019,5a.251.251,0,0,0,.082.192.752.752,0,0,0,.218.134,3.007,3.007,0,0,0,.308.11q.172.052.352.116a3.135,3.135,0,0,1,.352.15,1.317,1.317,0,0,1,.308.212.946.946,0,0,1,.218.306,1.036,1.036,0,0,1,.082.432,1.42,1.42,0,0,1-.112.568,1.206,1.206,0,0,1-.334.448,1.58,1.58,0,0,1-.548.292,2.468,2.468,0,0,1-.75.1,2.282,2.282,0,0,1-.424-.04,2.937,2.937,0,0,1-.41-.108,2.234,2.234,0,0,1-.366-.162,1.587,1.587,0,0,1-.288-.2L6.995,7.1a.369.369,0,0,1,.122-.126.355.355,0,0,1,.19-.046.391.391,0,0,1,.194.048l.186.1a1.551,1.551,0,0,0,.234.1,1.015,1.015,0,0,0,.338.048A.859.859,0,0,0,8.5,7.2a.43.43,0,0,0,.16-.082.321.321,0,0,0,.116-.248.269.269,0,0,0-.084-.2.732.732,0,0,0-.22-.138,2.682,2.682,0,0,0-.31-.108q-.174-.05-.354-.114a2.844,2.844,0,0,1-.354-.154,1.218,1.218,0,0,1-.31-.228,1.059,1.059,0,0,1-.22-.338A1.248,1.248,0,0,1,6.843,5.1a1.261,1.261,0,0,1,.1-.5,1.165,1.165,0,0,1,.306-.418,1.5,1.5,0,0,1,.512-.286,2.214,2.214,0,0,1,.72-.106,2.315,2.315,0,0,1,.434.04,2.218,2.218,0,0,1,.394.112,1.887,1.887,0,0,1,.336.17,1.614,1.614,0,0,1,.268.214Zm2.412,3.3a1.462,1.462,0,0,1-.522-.086,1.007,1.007,0,0,1-.614-.626,1.479,1.479,0,0,1-.08-.5V4.708h-.352a.224.224,0,0,1-.232-.244V3.98l.66-.128.244-1.012a.246.246,0,0,1,.272-.192h.648V3.86H13.1v.848H12.071v2.06a.388.388,0,0,0,.07.238.236.236,0,0,0,.2.094.4.4,0,0,0,.114-.014.454.454,0,0,0,.08-.032l.064-.032a.164.164,0,0,1,.07-.014.144.144,0,0,1,.09.026.322.322,0,0,1,.07.082l.376.588a1.711,1.711,0,0,1-.54.27A2.146,2.146,0,0,1,12.047,8.064Zm6.388-2.292-.54-1.6q-.06-.152-.128-.358t-.136-.446q-.06.244-.128.452t-.128.36l-.536,1.588ZM20.583,8H19.535a.457.457,0,0,1-.284-.082.521.521,0,0,1-.164-.21l-.344-1.016H16.527l-.344,1.016a.486.486,0,0,1-.158.2.441.441,0,0,1-.282.09H14.687l2.256-5.828h1.384Zm3.876-4.148L22.851,8H21.723L20.115,3.852h1.032a.382.382,0,0,1,.222.062.309.309,0,0,1,.122.154l.576,1.86q.076.228.134.444t.1.432a6.644,6.644,0,0,1,.244-.876l.6-1.86a.312.312,0,0,1,.12-.154.352.352,0,0,1,.208-.062Zm2.436,2.46a4.117,4.117,0,0,0-.612.064,1.487,1.487,0,0,0-.38.12.46.46,0,0,0-.194.164.388.388,0,0,0-.054.2.348.348,0,0,0,.116.3.566.566,0,0,0,.34.086.984.984,0,0,0,.42-.084,1.28,1.28,0,0,0,.364-.272ZM24.663,4.428a2.522,2.522,0,0,1,.834-.494,2.924,2.924,0,0,1,.982-.162,1.8,1.8,0,0,1,.678.122,1.459,1.459,0,0,1,.512.34,1.486,1.486,0,0,1,.322.518,1.862,1.862,0,0,1,.112.656V8h-.568a.581.581,0,0,1-.266-.048.367.367,0,0,1-.15-.2l-.088-.228q-.156.132-.3.232a1.9,1.9,0,0,1-.3.17,1.472,1.472,0,0,1-.328.1,2.019,2.019,0,0,1-.386.034A1.693,1.693,0,0,1,25.2,7.99a1.077,1.077,0,0,1-.394-.218.959.959,0,0,1-.25-.358,1.291,1.291,0,0,1-.088-.494,1.031,1.031,0,0,1,.112-.454,1.12,1.12,0,0,1,.388-.42,2.466,2.466,0,0,1,.744-.318,4.992,4.992,0,0,1,1.18-.144V5.408a.761.761,0,0,0-.15-.526.552.552,0,0,0-.426-.162,1.13,1.13,0,0,0-.36.048,1.618,1.618,0,0,0-.25.108q-.11.06-.214.108a.588.588,0,0,1-.248.048.357.357,0,0,1-.216-.064.557.557,0,0,1-.144-.152Zm5.5-.576V8h-1.24V3.852Zm.128-1.136a.655.655,0,0,1-.06.278.732.732,0,0,1-.164.228.8.8,0,0,1-.242.156.751.751,0,0,1-.294.058.7.7,0,0,1-.284-.058.8.8,0,0,1-.234-.156.72.72,0,0,1-.16-.228.674.674,0,0,1-.058-.278.7.7,0,0,1,.058-.284.737.737,0,0,1,.16-.232.749.749,0,0,1,.234-.156.72.72,0,0,1,.284-.056.774.774,0,0,1,.294.056.752.752,0,0,1,.406.388A.678.678,0,0,1,30.291,2.716Zm1.98-.7V8h-1.24V2.012Zm2.98,4.3a4.117,4.117,0,0,0-.612.064,1.487,1.487,0,0,0-.38.12.46.46,0,0,0-.194.164.388.388,0,0,0-.054.2.348.348,0,0,0,.116.3.566.566,0,0,0,.34.086.984.984,0,0,0,.42-.084,1.28,1.28,0,0,0,.364-.272ZM33.019,4.428a2.522,2.522,0,0,1,.834-.494,2.924,2.924,0,0,1,.982-.162,1.8,1.8,0,0,1,.678.122,1.459,1.459,0,0,1,.512.34,1.486,1.486,0,0,1,.322.518,1.862,1.862,0,0,1,.112.656V8h-.568a.581.581,0,0,1-.266-.048.367.367,0,0,1-.15-.2l-.088-.228q-.156.132-.3.232a1.9,1.9,0,0,1-.3.17,1.472,1.472,0,0,1-.328.1,2.019,2.019,0,0,1-.386.034,1.692,1.692,0,0,1-.516-.074,1.077,1.077,0,0,1-.394-.218.959.959,0,0,1-.25-.358,1.291,1.291,0,0,1-.088-.494,1.031,1.031,0,0,1,.112-.454,1.12,1.12,0,0,1,.388-.42,2.466,2.466,0,0,1,.744-.318,4.992,4.992,0,0,1,1.18-.144V5.408a.76.76,0,0,0-.15-.526.552.552,0,0,0-.426-.162,1.13,1.13,0,0,0-.36.048,1.618,1.618,0,0,0-.25.108q-.11.06-.214.108a.588.588,0,0,1-.248.048.357.357,0,0,1-.216-.064.557.557,0,0,1-.144-.152Zm5.472,2.444a.821.821,0,0,0,.3.216.907.907,0,0,0,.332.064.786.786,0,0,0,.324-.066A.62.62,0,0,0,39.7,6.87a1.161,1.161,0,0,0,.166-.4,2.6,2.6,0,0,0,.06-.606,2.611,2.611,0,0,0-.046-.53,1.045,1.045,0,0,0-.136-.356.535.535,0,0,0-.224-.2.721.721,0,0,0-.306-.062.76.76,0,0,0-.4.1,1.366,1.366,0,0,0-.332.292Zm0-2.58a2.062,2.062,0,0,1,.526-.366,1.449,1.449,0,0,1,.638-.138,1.382,1.382,0,0,1,1.132.554,1.937,1.937,0,0,1,.314.642,2.988,2.988,0,0,1,.11.84,3.079,3.079,0,0,1-.128.916,2.14,2.14,0,0,1-.362.706,1.651,1.651,0,0,1-.558.456,1.578,1.578,0,0,1-.716.162,1.426,1.426,0,0,1-.336-.036,1.16,1.16,0,0,1-.272-.1,1.125,1.125,0,0,1-.226-.158,2.553,2.553,0,0,1-.2-.2l-.044.208a.284.284,0,0,1-.1.176A.341.341,0,0,1,38.075,8h-.824V2.012h1.24Zm4.6-2.28V8h-1.24V2.012Zm3.42,3.416a1.1,1.1,0,0,0-.038-.288.7.7,0,0,0-.124-.25.631.631,0,0,0-.226-.178.773.773,0,0,0-.34-.068.742.742,0,0,0-.552.2,1.052,1.052,0,0,0-.264.582Zm-1.56.72a1.169,1.169,0,0,0,.316.754.94.94,0,0,0,.66.234,1.181,1.181,0,0,0,.372-.052,1.877,1.877,0,0,0,.278-.116l.224-.116a.465.465,0,0,1,.214-.052.256.256,0,0,1,.224.108l.36.444a1.843,1.843,0,0,1-.414.358,2.151,2.151,0,0,1-.456.216,2.472,2.472,0,0,1-.468.108,3.512,3.512,0,0,1-.446.03,2.329,2.329,0,0,1-.818-.142,1.88,1.88,0,0,1-.668-.422,1.991,1.991,0,0,1-.452-.7,2.6,2.6,0,0,1-.166-.968,2.191,2.191,0,0,1,.142-.788,1.914,1.914,0,0,1,1.052-1.1,2.3,2.3,0,0,1,1.608-.036,1.639,1.639,0,0,1,.588.372,1.7,1.7,0,0,1,.384.6,2.194,2.194,0,0,1,.138.8,1.751,1.751,0,0,1-.012.228.361.361,0,0,1-.044.14.167.167,0,0,1-.086.072.4.4,0,0,1-.138.02Z" transform="translate(975.657 620)" fill="#ab11c7"/>
      <g id="Ellipse_3" data-name="Ellipse 3" transform="translate(988 591)" fill="#fff" stroke="#ab11c7" stroke-width="2">
        <circle cx="12.5" cy="12.5" r="12.5" stroke="none"/>
        <circle cx="12.5" cy="12.5" r="11.5" fill="none"/>
      </g>
      <path id="Path_8" d="M1115.657,722.022v1.588h-6v-1.588h1.941v-6l-1.235,1.059c-.176,0-.176.176-.353.176h-.353a480.354,480.354,0,0,0-.353-.353l-.706-.882,3.176-2.823h1.941v8.822Z" transform="translate(-111.6 -114.987)" fill="#ab11c7"/>
    </g>
  </g>
</svg>
