<svg xmlns="http://www.w3.org/2000/svg" width="39.34" height="37.064" viewBox="0 0 39.34 37.064">
  <g id="Group_7" data-name="Group 7" transform="translate(-858.113 -591)">
    <path id="Path_24" data-name="Path 24" d="M6.575,2.172V8h-.7a.612.612,0,0,1-.262-.05.641.641,0,0,1-.21-.174L2.651,4.3q.016.156.022.3t.006.274V8H1.487V2.172H2.2a1.148,1.148,0,0,1,.148.008.378.378,0,0,1,.108.03.36.36,0,0,1,.092.062,1.051,1.051,0,0,1,.1.108l2.772,3.5q-.02-.168-.028-.326t-.008-.3V2.172Zm3.44,3.256a1.1,1.1,0,0,0-.038-.288.7.7,0,0,0-.124-.25.631.631,0,0,0-.226-.178.773.773,0,0,0-.34-.068.742.742,0,0,0-.552.2,1.052,1.052,0,0,0-.264.582Zm-1.56.72a1.169,1.169,0,0,0,.316.754.94.94,0,0,0,.66.234A1.181,1.181,0,0,0,9.8,7.084a1.877,1.877,0,0,0,.278-.116l.224-.116a.465.465,0,0,1,.214-.052.256.256,0,0,1,.224.108l.36.444a1.843,1.843,0,0,1-.414.358,2.151,2.151,0,0,1-.456.216,2.472,2.472,0,0,1-.468.108,3.512,3.512,0,0,1-.446.03A2.329,2.329,0,0,1,8.5,7.922,1.88,1.88,0,0,1,7.833,7.5a1.991,1.991,0,0,1-.452-.7,2.6,2.6,0,0,1-.166-.968,2.191,2.191,0,0,1,.142-.788,1.914,1.914,0,0,1,1.052-1.1,2.3,2.3,0,0,1,1.608-.036,1.639,1.639,0,0,1,.588.372,1.7,1.7,0,0,1,.384.6,2.194,2.194,0,0,1,.138.8,1.751,1.751,0,0,1-.012.228.361.361,0,0,1-.044.14.168.168,0,0,1-.086.072.4.4,0,0,1-.138.02Zm9.324-2.3L16.491,8H15.483a.2.2,0,0,1-.136-.048.323.323,0,0,1-.088-.16l-.592-2.068q-.044-.14-.078-.276t-.062-.276q-.028.14-.062.28t-.078.28l-.6,2.06A.255.255,0,0,1,13.523,8h-.96L11.275,3.852h.992a.382.382,0,0,1,.222.062.309.309,0,0,1,.122.154l.416,1.86q.052.212.092.41t.072.4q.052-.2.11-.4t.126-.41l.52-1.864a.312.312,0,0,1,.12-.154.352.352,0,0,1,.208-.062h.552a.382.382,0,0,1,.222.062.309.309,0,0,1,.122.154l.5,1.864q.06.212.118.412t.106.4q.032-.2.076-.4t.1-.416l.44-1.86a.312.312,0,0,1,.12-.154.352.352,0,0,1,.208-.062Zm6.2,2.64a.272.272,0,0,1,.1.018.261.261,0,0,1,.092.062l.536.564a2.225,2.225,0,0,1-.882.694,3.086,3.086,0,0,1-1.254.234,2.987,2.987,0,0,1-1.19-.226,2.575,2.575,0,0,1-.892-.624,2.748,2.748,0,0,1-.562-.944,3.486,3.486,0,0,1-.2-1.186,3.283,3.283,0,0,1,.212-1.2,2.782,2.782,0,0,1,.6-.942,2.684,2.684,0,0,1,.92-.616,3.079,3.079,0,0,1,1.18-.22,3.148,3.148,0,0,1,.618.058,3.021,3.021,0,0,1,.542.16,2.476,2.476,0,0,1,.464.246,2.435,2.435,0,0,1,.376.312l-.456.612a.581.581,0,0,1-.1.1.271.271,0,0,1-.168.046.3.3,0,0,1-.136-.032,1.5,1.5,0,0,1-.136-.078l-.158-.1a1.212,1.212,0,0,0-.2-.1A1.686,1.686,0,0,0,23,3.256a1.883,1.883,0,0,0-.37-.032,1.49,1.49,0,0,0-.614.124,1.338,1.338,0,0,0-.48.362,1.674,1.674,0,0,0-.312.584,2.606,2.606,0,0,0-.11.79,2.4,2.4,0,0,0,.122.8,1.748,1.748,0,0,0,.332.586,1.409,1.409,0,0,0,.49.362,1.465,1.465,0,0,0,.6.124,2.872,2.872,0,0,0,.336-.018,1.528,1.528,0,0,0,.284-.06,1.157,1.157,0,0,0,.248-.112,1.565,1.565,0,0,0,.236-.178.473.473,0,0,1,.1-.066A.273.273,0,0,1,23.979,6.492Zm2.412-4.48V8h-1.24V2.012ZM28.5,3.852V8h-1.24V3.852Zm.128-1.136a.655.655,0,0,1-.06.278.732.732,0,0,1-.164.228.8.8,0,0,1-.242.156.751.751,0,0,1-.294.058.7.7,0,0,1-.284-.058.8.8,0,0,1-.234-.156.72.72,0,0,1-.16-.228.674.674,0,0,1-.058-.278.7.7,0,0,1,.058-.284.737.737,0,0,1,.16-.232.749.749,0,0,1,.234-.156.72.72,0,0,1,.284-.056.774.774,0,0,1,.294.056.752.752,0,0,1,.406.388A.678.678,0,0,1,28.627,2.716Zm3.32,2.712a1.1,1.1,0,0,0-.038-.288.7.7,0,0,0-.124-.25.631.631,0,0,0-.226-.178.773.773,0,0,0-.34-.068.742.742,0,0,0-.552.2,1.052,1.052,0,0,0-.264.582Zm-1.56.72A1.169,1.169,0,0,0,30.7,6.9a.94.94,0,0,0,.66.234,1.181,1.181,0,0,0,.372-.052,1.877,1.877,0,0,0,.278-.116l.224-.116a.465.465,0,0,1,.214-.052.256.256,0,0,1,.224.108l.36.444a1.843,1.843,0,0,1-.414.358,2.151,2.151,0,0,1-.456.216,2.472,2.472,0,0,1-.468.108,3.512,3.512,0,0,1-.446.03,2.329,2.329,0,0,1-.818-.142,1.88,1.88,0,0,1-.668-.422,1.991,1.991,0,0,1-.452-.7,2.6,2.6,0,0,1-.166-.968,2.191,2.191,0,0,1,.142-.788,1.914,1.914,0,0,1,1.052-1.1,2.3,2.3,0,0,1,1.608-.036,1.639,1.639,0,0,1,.588.372,1.7,1.7,0,0,1,.384.6,2.194,2.194,0,0,1,.138.8,1.751,1.751,0,0,1-.012.228.361.361,0,0,1-.044.14.167.167,0,0,1-.086.072.4.4,0,0,1-.138.02ZM34.823,4.3a3.012,3.012,0,0,1,.248-.208,1.452,1.452,0,0,1,.274-.162,1.626,1.626,0,0,1,.316-.1,1.7,1.7,0,0,1,.37-.038,1.452,1.452,0,0,1,.6.118,1.249,1.249,0,0,1,.442.328,1.416,1.416,0,0,1,.272.5,2.073,2.073,0,0,1,.092.63V8H36.2V5.364a.725.725,0,0,0-.14-.474.5.5,0,0,0-.412-.17.867.867,0,0,0-.382.086,1.537,1.537,0,0,0-.346.234V8h-1.24V3.852h.768a.292.292,0,0,1,.3.208Zm4.844,3.764a1.462,1.462,0,0,1-.522-.086,1.007,1.007,0,0,1-.614-.626,1.479,1.479,0,0,1-.08-.5V4.708H38.1a.224.224,0,0,1-.232-.244V3.98l.66-.128.244-1.012a.246.246,0,0,1,.272-.192h.648V3.86h1.028v.848H39.691v2.06a.388.388,0,0,0,.07.238.236.236,0,0,0,.2.094.4.4,0,0,0,.114-.014.454.454,0,0,0,.08-.032l.064-.032a.164.164,0,0,1,.07-.014.144.144,0,0,1,.09.026.322.322,0,0,1,.07.082l.376.588a1.711,1.711,0,0,1-.54.27A2.146,2.146,0,0,1,39.667,8.064Z" transform="translate(856.627 620)" fill="#57be3f"/>
    <g id="Path_28" data-name="Path 28" transform="translate(865 591)" fill="#fff">
      <path d="M 12.5 24 C 9.428239822387695 24 6.540329933166504 22.80378913879395 4.368269920349121 20.63172912597656 C 2.196209907531738 18.45966911315918 1 15.5717601776123 1 12.5 C 1 9.428239822387695 2.196209907531738 6.540329933166504 4.368269920349121 4.368269920349121 C 6.540329933166504 2.196209907531738 9.428239822387695 1 12.5 1 C 15.5717601776123 1 18.45966911315918 2.196209907531738 20.63172912597656 4.368269920349121 C 22.80378913879395 6.540329933166504 24 9.428239822387695 24 12.5 C 24 15.5717601776123 22.80378913879395 18.45966911315918 20.63172912597656 20.63172912597656 C 18.45966911315918 22.80378913879395 15.5717601776123 24 12.5 24 Z" stroke="none"/>
      <path d="M 12.5 2 C 6.71027946472168 2 2 6.71027946472168 2 12.5 C 2 18.28972053527832 6.71027946472168 23 12.5 23 C 18.28972053527832 23 23 18.28972053527832 23 12.5 C 23 6.71027946472168 18.28972053527832 2 12.5 2 M 12.5 0 C 19.40356063842773 0 25 5.596439361572266 25 12.5 C 25 19.40356063842773 19.40356063842773 25 12.5 25 C 5.596439361572266 25 0 19.40356063842773 0 12.5 C 0 5.596439361572266 5.596439361572266 0 12.5 0 Z" stroke="none" fill="#57be3f"/>
    </g>
    <g id="baseline-star_border-24px" transform="translate(868.4 594.4)">
      <path id="Path_12" data-name="Path 12" d="M17.151,7.485,11.7,7.015,9.575,2,7.447,7.022,2,7.485l4.136,3.583L4.894,16.393l4.682-2.826,4.682,2.826-1.235-5.325ZM9.575,12.151,6.727,13.87l.758-3.242L4.97,8.447l3.318-.288L9.575,5.106l1.3,3.06,3.318.288-2.515,2.182.758,3.242Z" transform="translate(-0.485 -0.485)" fill="#57be3f" stroke="#57be3f" stroke-width="0.3"/>
      <path id="Path_13" data-name="Path 13" d="M0,0H18.181V18.181H0Z" fill="none"/>
    </g>
  </g>
</svg>
