<svg xmlns="http://www.w3.org/2000/svg" width="37.284" height="38.316" viewBox="0 0 37.284 38.316">
  <g id="Group_11" data-name="Group 11" transform="translate(-1050 -591)">
    <path id="Path_27" data-name="Path 27" d="M8.2,4.912a1.391,1.391,0,0,0,.47-.07.849.849,0,0,0,.318-.194.739.739,0,0,0,.18-.29A1.113,1.113,0,0,0,9.229,4a.751.751,0,0,0-.25-.6A1.164,1.164,0,0,0,8.2,3.184H7.661V4.912ZM11.077,8H9.853a.519.519,0,0,1-.488-.256L8.4,6.052A.393.393,0,0,0,8,5.844H7.661V8H6.309V2.172H8.2a3.891,3.891,0,0,1,1.078.13,2.024,2.024,0,0,1,.728.362,1.37,1.37,0,0,1,.41.548,1.815,1.815,0,0,1,.128.688,1.847,1.847,0,0,1-.076.536,1.653,1.653,0,0,1-.224.466,1.709,1.709,0,0,1-.366.382,1.954,1.954,0,0,1-.5.276,1.223,1.223,0,0,1,.248.17,1.19,1.19,0,0,1,.208.242Zm2.652-2.572a1.1,1.1,0,0,0-.038-.288.7.7,0,0,0-.124-.25.631.631,0,0,0-.226-.178A.773.773,0,0,0,13,4.644a.742.742,0,0,0-.552.2,1.052,1.052,0,0,0-.264.582Zm-1.56.72a1.169,1.169,0,0,0,.316.754.94.94,0,0,0,.66.234,1.181,1.181,0,0,0,.372-.052,1.877,1.877,0,0,0,.278-.116l.224-.116a.465.465,0,0,1,.214-.052.256.256,0,0,1,.224.108l.36.444a1.843,1.843,0,0,1-.414.358,2.151,2.151,0,0,1-.456.216,2.472,2.472,0,0,1-.468.108,3.512,3.512,0,0,1-.446.03,2.329,2.329,0,0,1-.818-.142,1.88,1.88,0,0,1-.668-.422,1.991,1.991,0,0,1-.452-.7,2.6,2.6,0,0,1-.166-.968,2.191,2.191,0,0,1,.142-.788,1.914,1.914,0,0,1,1.052-1.1,2.3,2.3,0,0,1,1.608-.036,1.639,1.639,0,0,1,.588.372,1.7,1.7,0,0,1,.384.6,2.194,2.194,0,0,1,.138.8,1.751,1.751,0,0,1-.012.228.361.361,0,0,1-.044.14.168.168,0,0,1-.086.072.4.4,0,0,1-.138.02Zm5.808-1.184a.821.821,0,0,0-.3-.216.938.938,0,0,0-.344-.064.731.731,0,0,0-.316.068.644.644,0,0,0-.25.218,1.161,1.161,0,0,0-.166.39,2.423,2.423,0,0,0-.06.58,2.687,2.687,0,0,0,.048.552,1.137,1.137,0,0,0,.134.362.52.52,0,0,0,.206.2.591.591,0,0,0,.268.06,1.071,1.071,0,0,0,.246-.026.865.865,0,0,0,.2-.074.839.839,0,0,0,.174-.122,1.659,1.659,0,0,0,.162-.17Zm1.24-1.112V9.316h-1.24V7.548a1.992,1.992,0,0,1-.528.374,1.557,1.557,0,0,1-.688.142,1.278,1.278,0,0,1-.6-.144,1.383,1.383,0,0,1-.476-.416,2.1,2.1,0,0,1-.314-.666,3.234,3.234,0,0,1-.114-.9,2.8,2.8,0,0,1,.128-.862,2.113,2.113,0,0,1,.362-.688,1.681,1.681,0,0,1,.562-.454,1.6,1.6,0,0,1,.724-.164,1.656,1.656,0,0,1,.34.032,1.237,1.237,0,0,1,.278.092,1.267,1.267,0,0,1,.234.144,2.233,2.233,0,0,1,.208.184l.052-.164a.292.292,0,0,1,.3-.208Zm4.56,0V8h-.768a.292.292,0,0,1-.3-.208l-.072-.24a2.407,2.407,0,0,1-.248.21,1.518,1.518,0,0,1-.274.16,1.626,1.626,0,0,1-.316.1,1.7,1.7,0,0,1-.37.038,1.452,1.452,0,0,1-.6-.118,1.239,1.239,0,0,1-.442-.33,1.439,1.439,0,0,1-.272-.5,2.068,2.068,0,0,1-.092-.632V3.852h1.24V6.484a.724.724,0,0,0,.14.476.506.506,0,0,0,.412.168.867.867,0,0,0,.382-.086,1.537,1.537,0,0,0,.346-.234V3.852ZM27.2,5.428a1.1,1.1,0,0,0-.038-.288.7.7,0,0,0-.124-.25.631.631,0,0,0-.226-.178.773.773,0,0,0-.34-.068.742.742,0,0,0-.552.2,1.052,1.052,0,0,0-.264.582Zm-1.56.72a1.169,1.169,0,0,0,.316.754.94.94,0,0,0,.66.234,1.181,1.181,0,0,0,.372-.052,1.877,1.877,0,0,0,.278-.116l.224-.116A.465.465,0,0,1,27.7,6.8a.256.256,0,0,1,.224.108l.36.444a1.843,1.843,0,0,1-.414.358,2.151,2.151,0,0,1-.456.216,2.472,2.472,0,0,1-.468.108,3.512,3.512,0,0,1-.446.03,2.329,2.329,0,0,1-.818-.142,1.88,1.88,0,0,1-.668-.422,1.991,1.991,0,0,1-.452-.7,2.6,2.6,0,0,1-.166-.968,2.191,2.191,0,0,1,.142-.788,1.914,1.914,0,0,1,1.052-1.1A2.3,2.3,0,0,1,27.2,3.916a1.639,1.639,0,0,1,.588.372,1.7,1.7,0,0,1,.384.6,2.194,2.194,0,0,1,.138.8,1.751,1.751,0,0,1-.012.228.361.361,0,0,1-.044.14.167.167,0,0,1-.086.072.4.4,0,0,1-.138.02ZM31.565,4.76a.321.321,0,0,1-.1.108.268.268,0,0,1-.138.032.441.441,0,0,1-.176-.038l-.19-.082a2.07,2.07,0,0,0-.23-.082,1.027,1.027,0,0,0-.292-.038.618.618,0,0,0-.362.09.29.29,0,0,0-.126.25.251.251,0,0,0,.082.192.752.752,0,0,0,.218.134,3.007,3.007,0,0,0,.308.11q.172.052.352.116a3.135,3.135,0,0,1,.352.15,1.317,1.317,0,0,1,.308.212.946.946,0,0,1,.218.306,1.036,1.036,0,0,1,.082.432,1.42,1.42,0,0,1-.112.568,1.206,1.206,0,0,1-.334.448,1.58,1.58,0,0,1-.548.292,2.468,2.468,0,0,1-.75.1,2.282,2.282,0,0,1-.424-.04,2.937,2.937,0,0,1-.41-.108,2.234,2.234,0,0,1-.366-.162,1.587,1.587,0,0,1-.288-.2l.288-.456a.369.369,0,0,1,.122-.126.355.355,0,0,1,.19-.046.391.391,0,0,1,.194.048l.186.1a1.551,1.551,0,0,0,.234.1,1.015,1.015,0,0,0,.338.048.859.859,0,0,0,.244-.03.43.43,0,0,0,.16-.082.321.321,0,0,0,.116-.248.269.269,0,0,0-.084-.2.732.732,0,0,0-.22-.138,2.682,2.682,0,0,0-.31-.108q-.174-.05-.354-.114a2.843,2.843,0,0,1-.354-.154,1.218,1.218,0,0,1-.31-.228,1.059,1.059,0,0,1-.22-.338,1.248,1.248,0,0,1-.084-.484,1.261,1.261,0,0,1,.1-.5,1.166,1.166,0,0,1,.306-.418,1.5,1.5,0,0,1,.512-.286,2.214,2.214,0,0,1,.72-.106,2.315,2.315,0,0,1,.434.04,2.218,2.218,0,0,1,.394.112,1.887,1.887,0,0,1,.336.17,1.614,1.614,0,0,1,.268.214Zm2.412,3.3a1.462,1.462,0,0,1-.522-.086,1.007,1.007,0,0,1-.614-.626,1.479,1.479,0,0,1-.08-.5V4.708h-.352a.224.224,0,0,1-.232-.244V3.98l.66-.128.244-1.012a.246.246,0,0,1,.272-.192H34V3.86h1.028v.848H34v2.06a.388.388,0,0,0,.07.238.236.236,0,0,0,.2.094.4.4,0,0,0,.114-.014.454.454,0,0,0,.08-.032l.064-.032a.164.164,0,0,1,.07-.014.144.144,0,0,1,.09.026.322.322,0,0,1,.07.082l.376.588a1.711,1.711,0,0,1-.54.27A2.146,2.146,0,0,1,33.977,8.064ZM38.1,5.428a1.1,1.1,0,0,0-.038-.288.7.7,0,0,0-.124-.25.631.631,0,0,0-.226-.178.773.773,0,0,0-.34-.068.742.742,0,0,0-.552.2,1.052,1.052,0,0,0-.264.582Zm-1.56.72a1.169,1.169,0,0,0,.316.754.94.94,0,0,0,.66.234,1.181,1.181,0,0,0,.372-.052,1.877,1.877,0,0,0,.278-.116l.224-.116a.465.465,0,0,1,.214-.052.256.256,0,0,1,.224.108l.36.444a1.843,1.843,0,0,1-.414.358,2.151,2.151,0,0,1-.456.216,2.472,2.472,0,0,1-.468.108,3.512,3.512,0,0,1-.446.03,2.329,2.329,0,0,1-.818-.142,1.88,1.88,0,0,1-.668-.422,1.991,1.991,0,0,1-.452-.7,2.6,2.6,0,0,1-.166-.968,2.191,2.191,0,0,1,.142-.788,1.914,1.914,0,0,1,1.052-1.1,2.3,2.3,0,0,1,1.608-.036,1.639,1.639,0,0,1,.588.372,1.7,1.7,0,0,1,.384.6,2.194,2.194,0,0,1,.138.8,1.751,1.751,0,0,1-.012.228.361.361,0,0,1-.044.14.167.167,0,0,1-.086.072.4.4,0,0,1-.138.02Zm5.808-1.184a.784.784,0,0,0-.3-.218.965.965,0,0,0-.344-.062.731.731,0,0,0-.316.068.644.644,0,0,0-.25.218,1.161,1.161,0,0,0-.166.39,2.423,2.423,0,0,0-.06.58,2.687,2.687,0,0,0,.048.552,1.137,1.137,0,0,0,.134.362.52.52,0,0,0,.206.2.591.591,0,0,0,.268.06,1.071,1.071,0,0,0,.246-.026.865.865,0,0,0,.2-.074.838.838,0,0,0,.174-.122,1.659,1.659,0,0,0,.162-.17Zm1.24-2.952V8h-.768a.292.292,0,0,1-.3-.208l-.1-.316a2.432,2.432,0,0,1-.26.24,1.635,1.635,0,0,1-.294.186,1.555,1.555,0,0,1-.34.12,1.75,1.75,0,0,1-.394.042,1.278,1.278,0,0,1-.6-.144,1.383,1.383,0,0,1-.476-.416,2.1,2.1,0,0,1-.314-.666,3.234,3.234,0,0,1-.114-.9,2.8,2.8,0,0,1,.128-.862,2.113,2.113,0,0,1,.362-.688,1.681,1.681,0,0,1,.562-.454,1.6,1.6,0,0,1,.724-.164,1.413,1.413,0,0,1,.544.092,1.477,1.477,0,0,1,.4.248v-2.1Z" transform="translate(1043.691 620)" fill="#a74444"/>
    <g id="Ellipse_2" data-name="Ellipse 2" transform="translate(1056 591)" fill="#fff" stroke="#a74444" stroke-width="2">
      <circle cx="12.5" cy="12.5" r="12.5" stroke="none"/>
      <circle cx="12.5" cy="12.5" r="11.5" fill="none"/>
    </g>
    <g id="baseline-check-24px" transform="translate(1060 594.96)">
      <path id="Path_14" data-name="Path 14" d="M0,0H18.04V18.04H0Z" fill="none"/>
      <path id="Path_15" data-name="Path 15" d="M7.612,13.542,4.477,10.408,3.41,11.468l4.2,4.2,9.02-9.02-1.06-1.06Z" transform="translate(-0.847 -1.388)" fill="#a74444" stroke="#a74444" stroke-width="0.7"/>
    </g>
  </g>
</svg>
