<svg xmlns="http://www.w3.org/2000/svg" width="34.962" height="42.452" viewBox="0 0 34.962 42.452">
  <g id="Group_8" data-name="Group 8" transform="translate(-920.335 -586.976)">
    <path id="Path_25" data-name="Path 25" d="M5.6,4.912a1.391,1.391,0,0,0,.47-.07.849.849,0,0,0,.318-.194.739.739,0,0,0,.18-.29A1.113,1.113,0,0,0,6.629,4a.751.751,0,0,0-.25-.6A1.164,1.164,0,0,0,5.6,3.184H5.061V4.912ZM8.477,8H7.253a.519.519,0,0,1-.488-.256L5.8,6.052A.393.393,0,0,0,5.4,5.844H5.061V8H3.709V2.172H5.6a3.891,3.891,0,0,1,1.078.13,2.024,2.024,0,0,1,.728.362,1.37,1.37,0,0,1,.41.548,1.815,1.815,0,0,1,.128.688,1.847,1.847,0,0,1-.076.536,1.653,1.653,0,0,1-.224.466,1.709,1.709,0,0,1-.366.382,1.954,1.954,0,0,1-.5.276,1.223,1.223,0,0,1,.248.17,1.19,1.19,0,0,1,.208.242Zm2.652-2.572a1.1,1.1,0,0,0-.038-.288.7.7,0,0,0-.124-.25.631.631,0,0,0-.226-.178.773.773,0,0,0-.34-.068.742.742,0,0,0-.552.2,1.052,1.052,0,0,0-.264.582Zm-1.56.72a1.169,1.169,0,0,0,.316.754.94.94,0,0,0,.66.234,1.181,1.181,0,0,0,.372-.052,1.877,1.877,0,0,0,.278-.116l.224-.116a.465.465,0,0,1,.214-.052.256.256,0,0,1,.224.108l.36.444a1.843,1.843,0,0,1-.414.358,2.151,2.151,0,0,1-.456.216,2.472,2.472,0,0,1-.468.108,3.512,3.512,0,0,1-.446.03,2.329,2.329,0,0,1-.818-.142A1.88,1.88,0,0,1,8.947,7.5a1.991,1.991,0,0,1-.452-.7,2.6,2.6,0,0,1-.166-.968,2.191,2.191,0,0,1,.142-.788,1.914,1.914,0,0,1,1.052-1.1,2.3,2.3,0,0,1,1.608-.036,1.639,1.639,0,0,1,.588.372,1.7,1.7,0,0,1,.384.6,2.194,2.194,0,0,1,.138.8,1.751,1.751,0,0,1-.012.228.361.361,0,0,1-.044.14.168.168,0,0,1-.086.072.4.4,0,0,1-.138.02Zm4.724,1.916a1.462,1.462,0,0,1-.522-.086,1.007,1.007,0,0,1-.614-.626,1.479,1.479,0,0,1-.08-.5V4.708h-.352a.224.224,0,0,1-.232-.244V3.98l.66-.128L13.4,2.84a.246.246,0,0,1,.272-.192h.648V3.86h1.028v.848H14.317v2.06a.388.388,0,0,0,.07.238.236.236,0,0,0,.2.094.4.4,0,0,0,.114-.014.454.454,0,0,0,.08-.032l.064-.032a.164.164,0,0,1,.07-.014.144.144,0,0,1,.09.026.322.322,0,0,1,.07.082l.376.588a1.711,1.711,0,0,1-.54.27A2.146,2.146,0,0,1,14.293,8.064ZM19.6,3.852V8h-.768a.292.292,0,0,1-.3-.208l-.072-.24a2.407,2.407,0,0,1-.248.21,1.518,1.518,0,0,1-.274.16,1.626,1.626,0,0,1-.316.1,1.7,1.7,0,0,1-.37.038,1.452,1.452,0,0,1-.6-.118,1.239,1.239,0,0,1-.442-.33,1.439,1.439,0,0,1-.272-.5,2.068,2.068,0,0,1-.092-.632V3.852h1.24V6.484a.724.724,0,0,0,.14.476.506.506,0,0,0,.412.168.867.867,0,0,0,.382-.086,1.537,1.537,0,0,0,.346-.234V3.852Zm2,.64a1.744,1.744,0,0,1,.442-.528.917.917,0,0,1,.574-.192.74.74,0,0,1,.456.132l-.08.912a.192.192,0,0,1-.066.12.218.218,0,0,1-.126.032q-.032,0-.084,0l-.108-.01-.114-.012a1.037,1.037,0,0,0-.106-.006.629.629,0,0,0-.434.144,1.133,1.133,0,0,0-.274.4V8h-1.24V3.852h.736a.628.628,0,0,1,.154.016.27.27,0,0,1,.1.05.213.213,0,0,1,.064.09.812.812,0,0,1,.038.136ZM24.637,4.3a3.013,3.013,0,0,1,.248-.208,1.452,1.452,0,0,1,.274-.162,1.626,1.626,0,0,1,.316-.1,1.7,1.7,0,0,1,.37-.038,1.452,1.452,0,0,1,.6.118,1.249,1.249,0,0,1,.442.328,1.416,1.416,0,0,1,.272.5,2.073,2.073,0,0,1,.092.63V8h-1.24V5.364a.725.725,0,0,0-.14-.474.5.5,0,0,0-.412-.17.867.867,0,0,0-.382.086,1.537,1.537,0,0,0-.346.234V8h-1.24V3.852h.768a.292.292,0,0,1,.3.208Zm4.684-.448V8h-1.24V3.852Zm.128-1.136a.655.655,0,0,1-.06.278.732.732,0,0,1-.164.228.8.8,0,0,1-.242.156.751.751,0,0,1-.294.058.7.7,0,0,1-.284-.058.8.8,0,0,1-.234-.156.72.72,0,0,1-.16-.228.674.674,0,0,1-.058-.278.7.7,0,0,1,.058-.284.737.737,0,0,1,.16-.232.749.749,0,0,1,.234-.156.72.72,0,0,1,.284-.056.774.774,0,0,1,.294.056.752.752,0,0,1,.406.388A.678.678,0,0,1,29.449,2.716ZM31.333,4.3a3.013,3.013,0,0,1,.248-.208,1.452,1.452,0,0,1,.274-.162,1.626,1.626,0,0,1,.316-.1,1.7,1.7,0,0,1,.37-.038,1.452,1.452,0,0,1,.6.118,1.249,1.249,0,0,1,.442.328,1.416,1.416,0,0,1,.272.5,2.073,2.073,0,0,1,.092.63V8h-1.24V5.364a.725.725,0,0,0-.14-.474.5.5,0,0,0-.412-.17.867.867,0,0,0-.382.086,1.537,1.537,0,0,0-.346.234V8h-1.24V3.852h.768a.292.292,0,0,1,.3.208Zm5,1.408a.511.511,0,0,0,.584-.552.549.549,0,0,0-.138-.4.763.763,0,0,0-.892,0,.549.549,0,0,0-.138.4.68.68,0,0,0,.034.22.457.457,0,0,0,.106.174.5.5,0,0,0,.182.116A.735.735,0,0,0,36.329,5.708Zm.96,2.444a.223.223,0,0,0-.132-.214,1.1,1.1,0,0,0-.344-.094,4.416,4.416,0,0,0-.474-.034q-.262-.006-.522-.03a.814.814,0,0,0-.19.178.359.359,0,0,0-.074.222.337.337,0,0,0,.038.16.313.313,0,0,0,.134.124.89.89,0,0,0,.258.082,2.315,2.315,0,0,0,.41.03,2.48,2.48,0,0,0,.44-.032.931.931,0,0,0,.274-.088.331.331,0,0,0,.142-.134A.367.367,0,0,0,37.289,8.152ZM38.513,3.98v.452a.226.226,0,0,1-.058.164.4.4,0,0,1-.2.092l-.3.068a1.6,1.6,0,0,1,.038.18,1.275,1.275,0,0,1,.014.192,1.188,1.188,0,0,1-.13.56,1.274,1.274,0,0,1-.356.422,1.66,1.66,0,0,1-.534.268,2.25,2.25,0,0,1-.66.094q-.1,0-.188-.006a1.581,1.581,0,0,1-.18-.022.232.232,0,0,0-.136.188.156.156,0,0,0,.112.15,1.07,1.07,0,0,0,.3.064q.184.018.418.024t.478.028a3.756,3.756,0,0,1,.478.074,1.309,1.309,0,0,1,.418.168.88.88,0,0,1,.3.31.978.978,0,0,1,.112.494,1.2,1.2,0,0,1-.136.548,1.431,1.431,0,0,1-.4.476,2.09,2.09,0,0,1-.648.334,2.82,2.82,0,0,1-.88.126,3.379,3.379,0,0,1-.842-.092,2.038,2.038,0,0,1-.588-.242,1.02,1.02,0,0,1-.346-.346.811.811,0,0,1-.112-.408.676.676,0,0,1,.16-.46,1.116,1.116,0,0,1,.448-.3.649.649,0,0,1-.328-.608.648.648,0,0,1,.032-.194.71.71,0,0,1,.1-.2,1.028,1.028,0,0,1,.174-.186,1.126,1.126,0,0,1,.248-.156,1.378,1.378,0,0,1-.512-.454,1.158,1.158,0,0,1-.188-.658,1.185,1.185,0,0,1,.132-.562,1.27,1.27,0,0,1,.362-.424,1.7,1.7,0,0,1,.542-.268,2.334,2.334,0,0,1,.676-.094,2.1,2.1,0,0,1,.936.2Z" transform="translate(916.627 620)" fill="#2490d3"/>
    <g id="Ellipse_3" data-name="Ellipse 3" transform="translate(1334.085 833.59) rotate(150)">
      <g id="Group_6" data-name="Group 6">
        <path id="Path_16" data-name="Path 16" d="M223.192,408.054a11.5,11.5,0,1,1,10.01-.542" fill="none" stroke="#2490d3" stroke-width="2"/>
        <g id="Group_5" data-name="Group 5" transform="matrix(0.966, -0.259, 0.259, 0.966, -97.439, 73.972)">
          <path id="Path_17" data-name="Path 17" d="M233.106,403.136l-5.468,5.809,7.764,1.832Z" fill="#2490d3"/>
        </g>
      </g>
    </g>
    <g id="outline-perm_identity-24px" transform="translate(929 594.016)">
      <path id="Path_22" data-name="Path 22" d="M0,0H18.319V18.319H0Z" fill="none"/>
      <path id="Path_23" data-name="Path 23" d="M10.106,5.527A1.527,1.527,0,1,1,8.58,7.053a1.531,1.531,0,0,1,1.527-1.527m0,6.87c2.061,0,4.427.985,4.58,1.527v.763H5.527v-.756c.153-.55,2.519-1.534,4.58-1.534m0-8.4A3.053,3.053,0,1,0,13.16,7.053,3.052,3.052,0,0,0,10.106,4Zm0,6.87C8.068,10.87,4,11.893,4,13.923v2.29H16.213v-2.29C16.213,11.893,12.144,10.87,10.106,10.87Z" transform="translate(-0.947 -0.947)" fill="#2490d3" stroke="#2490d3" stroke-width="0.3"/>
    </g>
  </g>
</svg>
