<svg xmlns="http://www.w3.org/2000/svg" xmlns:xlink="http://www.w3.org/1999/xlink" width="130" height="130" viewBox="0 0 130 130"><defs><style>.a{fill:#fff;stroke:#707070;}.b{clip-path:url(#a);}.c{fill:#495959;}.d{fill:#3f4a4a;}.e{fill:#bce8f1;}.f{fill:#93dcfc;}.g{fill:#ffcd50;}.h{fill:#fcbc2b;}.i{fill:#6dc54a;}.j{fill:#5db33a;}.k{fill:#ddf5ff;}.l{fill:#c1e9f4;}</style><clipPath id="a"><rect class="a" width="130" height="130" transform="translate(1041 387)"/></clipPath></defs><g class="b" transform="translate(-1041 -387)"><g transform="translate(1041 387)"><path class="c" d="M84.024,22.724h10.57V33.292H84.024Zm0,0"/><path class="d" d="M84.024,22.724v3.171h4.492a2.642,2.642,0,0,1,2.642,2.642v4.756h3.436V22.724Zm0,0"/><path class="e" d="M65,95.915h59.451L114.376,37.676a5.285,5.285,0,0,0-5.207-4.384H20.831a5.284,5.284,0,0,0-5.207,4.384L5.549,95.915Zm0,0"/><path class="f" d="M114.376,37.676a5.285,5.285,0,0,0-5.207-4.384h-5.548a5.285,5.285,0,0,1,5.207,4.384l8.717,50.389a2.643,2.643,0,0,1-2.6,3.093H6.371l-.822,4.756h118.9Zm0,0"/><path class="c" d="M127.358,122.337H2.642A2.642,2.642,0,0,1,0,119.695V98.557a2.642,2.642,0,0,1,2.642-2.642H127.358A2.642,2.642,0,0,1,130,98.557v21.138A2.642,2.642,0,0,1,127.358,122.337Zm0,0"/><path class="d" d="M89.309,122.337l-6.888-6.888a2.642,2.642,0,0,0-1.869-.775H49.183a2.639,2.639,0,0,0-1.868.775l-6.889,6.888Zm0,0"/><path class="d" d="M124.716,95.915v26.422h2.642A2.642,2.642,0,0,0,130,119.695V98.557a2.642,2.642,0,0,0-2.642-2.642Zm0,0"/><path class="g" d="M118.9,109.126a5.284,5.284,0,1,1-5.284-5.284A5.285,5.285,0,0,1,118.9,109.126Zm0,0"/><path class="h" d="M113.552,103.842a5.329,5.329,0,0,0-.76.061,5.278,5.278,0,0,1,0,10.448,5.282,5.282,0,1,0,.76-10.508Zm0,0"/><path class="d" d="M116.26,130h-5.284a2.642,2.642,0,0,1-2.642-2.642v-5.021H118.9v5.021A2.643,2.643,0,0,1,116.26,130Zm0,0"/><path class="d" d="M19.024,130H13.74a2.643,2.643,0,0,1-2.642-2.642v-5.021H21.666v5.021A2.642,2.642,0,0,1,19.024,130Zm0,0"/><path class="i" d="M103.577,56.281H68.171a2.643,2.643,0,0,1-2.642-2.642V44.126a2.643,2.643,0,0,1,2.642-2.642h35.406a2.642,2.642,0,0,1,2.642,2.642v9.513A2.642,2.642,0,0,1,103.577,56.281Zm0,0"/><path class="j" d="M103.577,41.484h-5.02a2.643,2.643,0,0,1,2.642,2.642v9.513a2.643,2.643,0,0,1-2.642,2.642h5.02a2.642,2.642,0,0,0,2.642-2.642V44.126A2.642,2.642,0,0,0,103.577,41.484Zm0,0"/><path class="k" d="M47.826,24.573l-4.009-4.009a1.057,1.057,0,0,0-1.495,0l-4.009,4.009L34.3,20.564a1.057,1.057,0,0,0-1.495,0L28.8,24.573l-1.894-1.9a1.057,1.057,0,0,0-1.8.748V56.281H51.524V23.426a1.057,1.057,0,0,0-1.8-.748Zm0,0"/><path class="l" d="M47.826,24.573V56.281h3.7V23.426a1.057,1.057,0,0,0-1.8-.748Zm0,0"/><path class="f" d="M53.9,58.263H22.724a1.982,1.982,0,1,1,0-3.963H53.9a1.982,1.982,0,0,1,0,3.963Zm0,0"/><path class="g" d="M70.813,71.077H68.171a2.642,2.642,0,0,1-2.642-2.642V65.792a2.643,2.643,0,0,1,2.642-2.642h2.642a2.643,2.643,0,0,1,2.642,2.642v2.642A2.642,2.642,0,0,1,70.813,71.077Zm0,0"/><path class="g" d="M87.195,71.077H84.553a2.642,2.642,0,0,1-2.642-2.642V65.792a2.643,2.643,0,0,1,2.642-2.642h2.642a2.642,2.642,0,0,1,2.642,2.642v2.642A2.641,2.641,0,0,1,87.195,71.077Zm0,0"/><path class="g" d="M103.577,71.077h-2.642a2.642,2.642,0,0,1-2.642-2.642V65.792a2.643,2.643,0,0,1,2.642-2.642h2.642a2.642,2.642,0,0,1,2.642,2.642v2.642A2.641,2.641,0,0,1,103.577,71.077Zm0,0"/><path class="g" d="M70.813,86.931H68.171a2.643,2.643,0,0,1-2.642-2.642V81.647A2.642,2.642,0,0,1,68.171,79h2.642a2.642,2.642,0,0,1,2.642,2.642v2.642A2.643,2.643,0,0,1,70.813,86.931Zm0,0"/><path class="g" d="M87.195,86.931H84.553a2.643,2.643,0,0,1-2.642-2.642V81.647A2.642,2.642,0,0,1,84.553,79h2.642a2.641,2.641,0,0,1,2.642,2.642v2.642A2.642,2.642,0,0,1,87.195,86.931Zm0,0"/><path class="g" d="M103.577,86.931h-2.642a2.643,2.643,0,0,1-2.642-2.642V81.647A2.642,2.642,0,0,1,100.935,79h2.642a2.641,2.641,0,0,1,2.642,2.642v2.642A2.642,2.642,0,0,1,103.577,86.931Zm0,0"/><path class="i" d="M110.976,22.724H67.642A2.643,2.643,0,0,1,65,20.081V2.642A2.643,2.643,0,0,1,67.642,0h43.334a2.643,2.643,0,0,1,2.642,2.642V20.081A2.643,2.643,0,0,1,110.976,22.724Zm0,0"/><path class="j" d="M110.976,0h-1.85V15.589a2.643,2.643,0,0,1-2.642,2.642H65v1.85a2.643,2.643,0,0,0,2.642,2.642h43.334a2.643,2.643,0,0,0,2.642-2.642V2.642A2.643,2.643,0,0,0,110.976,0Zm0,0"/><path class="c" d="M45.183,35.274H31.443a1.982,1.982,0,0,1,0-3.963H45.183a1.982,1.982,0,0,1,0,3.963Zm0,0"/><path class="c" d="M45.183,42.937H31.443a1.982,1.982,0,0,1,0-3.963H45.183a1.982,1.982,0,0,1,0,3.963Zm0,0"/><path class="c" d="M45.183,50.6H31.443a1.982,1.982,0,1,1,0-3.963H45.183a1.982,1.982,0,0,1,0,3.963Zm0,0"/></g></g></svg>