<svg xmlns="http://www.w3.org/2000/svg" xmlns:xlink="http://www.w3.org/1999/xlink" width="130" height="130" viewBox="0 0 130 130"><defs><style>.a{fill:#fff;stroke:#707070;}.b{clip-path:url(#a);}.c{fill:#fcb44d;}.d{fill:#fca62f;}.e{fill:#c3c1c9;}.f{fill:#adacb5;}.g{fill:#9d9da8;}.h{fill:#f7f9fa;}.i{fill:#e9edf1;}.j{fill:#ccf49f;}</style><clipPath id="a"><rect class="a" width="130" height="130" transform="translate(1625 151)"/></clipPath></defs><g class="b" transform="translate(-1625 -151)"><g transform="translate(1625 151)"><path class="c" d="M130,65A65,65,0,0,0,20.81,17.332l-2.7,2.823C6.939,31.827,1.595,47.571,1.595,65c0,35.9,27.376,62.8,63.275,62.8,9.316,0,26.315-3.294,26.315-3.294A65.015,65.015,0,0,0,130,65Z"/><path class="d" d="M112.883,108.959A65,65,0,1,1,21.041,17.117a65,65,0,0,0,91.842,91.842Z"/><circle class="e" cx="52.776" cy="52.776" r="52.776" transform="translate(12.224 12.224)"/><path class="f" d="M105.972,98.264A52.775,52.775,0,1,1,28.4,26.984a53.063,53.063,0,0,0,77.576,71.28Z"/><path class="f" d="M64.869,27.857A1.962,1.962,0,0,1,62.907,25.9V15.433a1.962,1.962,0,1,1,3.924,0V25.9A1.961,1.961,0,0,1,64.869,27.857Z"/><path class="f" d="M42.637,29.166A1.961,1.961,0,0,1,40.9,28.124L38.24,23.114A1.962,1.962,0,0,1,41.7,21.272l2.664,5.011a1.962,1.962,0,0,1-1.731,2.883Z"/><path class="f" d="M86.636,28.66a1.962,1.962,0,0,1-1.662-3l3.008-4.812a1.962,1.962,0,1,1,3.327,2.079L88.3,27.738A1.96,1.96,0,0,1,86.636,28.66Z"/><path class="f" d="M102.8,44.6a1.962,1.962,0,0,1-.923-3.694l5.011-2.664a1.962,1.962,0,0,1,1.842,3.464l-5.011,2.664A1.956,1.956,0,0,1,102.8,44.6Z"/><path class="f" d="M26.677,45.31a1.953,1.953,0,0,1-1.038-.3L20.827,42a1.962,1.962,0,0,1,2.079-3.327l4.812,3.008a1.962,1.962,0,0,1-1.042,3.626Z"/><path class="f" d="M22.194,91.99a1.962,1.962,0,0,1-.922-3.694l5.011-2.664A1.962,1.962,0,1,1,28.124,89.1L23.113,91.76A1.956,1.956,0,0,1,22.194,91.99Z"/><path class="f" d="M40.333,110.1a1.962,1.962,0,0,1-1.662-3l3.008-4.812a1.962,1.962,0,1,1,3.327,2.079L42,109.179a1.96,1.96,0,0,1-1.665.923Z"/><path class="f" d="M64.869,116.268a1.962,1.962,0,0,1-1.962-1.962V103.843a1.962,1.962,0,0,1,3.924,0v10.463A1.961,1.961,0,0,1,64.869,116.268Z"/><path class="f" d="M114.567,66.831H104.1a1.962,1.962,0,0,1,0-3.924h10.463a1.962,1.962,0,1,1,0,3.924Z"/><path class="f" d="M25.9,66.831H15.433a1.962,1.962,0,1,1,0-3.924H25.9a1.962,1.962,0,0,1,0,3.924Z"/><path class="g" d="M19.2,66.831H15.433a1.962,1.962,0,1,1,0-3.924h3.251Q18.868,64.893,19.2,66.831Z"/><path class="g" d="M28.433,88.892a1.661,1.661,0,0,1-.309.2l-5.012,2.663a1.935,1.935,0,0,1-.918.23,1.962,1.962,0,0,1-.923-3.693l4.993-2.652q1.024,1.668,2.168,3.249Z"/><path class="g" d="M45.186,103.992a1.82,1.82,0,0,1-.18.374L42,109.179A1.962,1.962,0,1,1,38.67,107.1l3.008-4.813a2,2,0,0,1,.248-.319q1.589,1.071,3.259,2.025Z"/><path class="g" d="M45.186,103.992q-1.668-.953-3.259-2.025Z"/><path class="g" d="M66.831,110.772v3.534a1.962,1.962,0,0,1-3.924,0V110.28Q64.846,110.6,66.831,110.772Z"/><path class="h" d="M65,7.716A57.284,57.284,0,1,0,122.284,65,57.284,57.284,0,0,0,65,7.716ZM65,114.7A49.7,49.7,0,1,1,114.7,65,49.7,49.7,0,0,1,65,114.7Z"/><path class="h" d="M130,101.1A28.9,28.9,0,0,0,83.148,78.44s-1.62,1.743-2.516,2.672c-5.01,5.2-7.179,12.369-7.179,20.158,0,15.963,11.953,27.426,27.915,27.426,8.277,0,15.389-2.294,20.658-7.869.569-.6,1.709-1.759,1.709-1.759A28.781,28.781,0,0,0,130,101.1Z"/><path class="i" d="M123.751,119.043a28.9,28.9,0,1,1-40.6-40.6,28.9,28.9,0,0,0,40.6,40.6Z"/><path class="i" d="M68.924,64.869H61.076V37.143a3.924,3.924,0,1,1,7.847,0Z"/><path class="i" d="M62.925,61.668l3.924,6.8L49.536,78.52a3.924,3.924,0,0,1-3.942-6.785Z"/><circle class="h" cx="7.847" cy="7.847" r="7.847" transform="translate(57.153 57.153)"/><path class="j" d="M100.044,85.916,87.063,103.533a.523.523,0,0,0,.421.833h6.158a.785.785,0,0,1,.785.785v11.771a.785.785,0,0,0,.785.785h11.771a.785.785,0,0,0,.785-.785V105.151a.785.785,0,0,1,.785-.785h6.158a.523.523,0,0,0,.421-.833L102.149,85.916a1.308,1.308,0,0,0-2.106,0Z"/></g></g></svg>