<svg xmlns="http://www.w3.org/2000/svg" xmlns:xlink="http://www.w3.org/1999/xlink" width="130" height="130" viewBox="0 0 130 130"><defs><style>.a{fill:#fff;stroke:#707070;}.b{clip-path:url(#a);}.c{fill:#d0f4ef;}.d{fill:#ff9921;}.e{fill:#e78e6f;}.f{fill:#c87c5b;}.g{fill:#fff0cf;}.h{fill:#ead1c1;}.i{fill:#4c78a0;}.j{fill:#ffbd47;}.k{fill:#fecaa8;}.l{fill:#ffb38c;}.m{fill:#336686;}.n{fill:#1e6be7;}.o{fill:#2081f6;}.p{fill:#abe0da;}.q{fill:#f72b2b;}</style><clipPath id="a"><rect class="a" width="130" height="130" transform="translate(1479 314)"/></clipPath></defs><g class="b" transform="translate(-1479 -314)"><g transform="translate(1479 331.925)"><path class="c" d="M65.259,94.023H51.29a2.844,2.844,0,0,1-1.856-5,19.924,19.924,0,0,1,13-4.826h2.825a2.594,2.594,0,0,1,2.594,2.594V91.43A2.594,2.594,0,0,1,65.259,94.023Zm0,0"/><path class="d" d="M57.878,52.711a3.828,3.828,0,0,1-3.28-6.905L83.148,30.229a3.828,3.828,0,1,1,3.667,6.721L58.265,52.527A3.821,3.821,0,0,1,57.878,52.711Zm0,0"/><path class="e" d="M15.925,81.276c-.922.9-2.909.526-5.037-.45A21.266,21.266,0,0,1,4.932,76.69c-2.981-3.072-1.662-4.726.2-6.53s3.551-3.077,6.532,0c.214.221.43.458.644.708C15.067,74.1,17.649,79.6,15.925,81.276Zm0,0"/><path class="f" d="M15.925,81.276c-.922.9-2.909.526-5.037-.45V78.862a23.325,23.325,0,0,1,1.417-8C15.067,74.1,17.649,79.6,15.925,81.276Zm0,0"/><path class="g" d="M49.975,50.089,33.486,57.16l-5.9,2.528-1.35.579A20.236,20.236,0,0,0,13.98,78.862v8.345A6.816,6.816,0,0,0,20.8,94.023H31.533a3.515,3.515,0,0,0,3.318-4.7H49.975Zm0,0"/><path class="h" d="M49.975,50.089V65.225l-.822.205a8.006,8.006,0,0,1-15.667-2.324V57.16Zm0,0"/><path class="e" d="M30.873,65.919a7.552,7.552,0,0,1-14.391,3.2,20.2,20.2,0,0,1,9.758-8.852l1.351-.579A7.541,7.541,0,0,1,30.873,65.919Zm0,0"/><path class="g" d="M46,94.023a3.97,3.97,0,0,1-3.969-3.97V73.469h7.94V90.053A3.97,3.97,0,0,1,46,94.023Zm0,0"/><path class="h" d="M42.034,91.986A1.932,1.932,0,0,1,40.1,90.053V77.024a1.933,1.933,0,0,1,3.865,0V90.053A1.932,1.932,0,0,1,42.034,91.986Zm0,0"/><path class="h" d="M35.057,92.431A1.932,1.932,0,0,1,33.124,90.5a1.593,1.593,0,0,0-1.592-1.591H25.018a3.627,3.627,0,0,1-.685-7.19,5.121,5.121,0,0,0,4.1-5.012,1.933,1.933,0,0,1,3.865,0,9.008,9.008,0,0,1-5.641,8.336h4.875A5.463,5.463,0,0,1,36.989,90.5,1.932,1.932,0,0,1,35.057,92.431Zm0,0"/><path class="g" d="M56.674,60.366,48.22,62.477a4.663,4.663,0,0,1-5.654-3.394L39.507,46.835l25.33-6.327,1.1,4.42A12.733,12.733,0,0,1,56.674,60.366Zm0,0"/><path class="i" d="M67.583,38.662a3.33,3.33,0,1,1-3.33-3.33A3.33,3.33,0,0,1,67.583,38.662Zm0,0"/><path class="e" d="M38.742,43.5h5.5a2.163,2.163,0,0,1,2.163,2.163V63.107a4.914,4.914,0,1,1-9.828,0V45.666A2.163,2.163,0,0,1,38.742,43.5Zm0,0"/><path class="i" d="M52.1,50.306a1.931,1.931,0,0,1-.469-3.807l.023-.006a1.932,1.932,0,1,1,.9,3.759A1.91,1.91,0,0,1,52.1,50.306Zm0,0"/><path class="c" d="M13.6,67.359a1.928,1.928,0,0,1-1.4-.6,5.166,5.166,0,0,0-4.7-1.4,1.933,1.933,0,0,1-.944-3.748A9.078,9.078,0,0,1,15,64.095a1.933,1.933,0,0,1-1.4,3.264Zm0,0"/><path class="c" d="M7.692,86.466a1.938,1.938,0,0,1-.8-.174A22.45,22.45,0,0,1,.51,81.608a1.932,1.932,0,0,1,2.845-2.616,18.708,18.708,0,0,0,5.137,3.781,1.933,1.933,0,0,1-.8,3.694Zm0,0"/><path class="j" d="M99.569,62.649H78.916V31.684a10.326,10.326,0,1,1,20.653,0Zm0,0"/><path class="d" d="M99.568,31.683V62.649H95.422V31.683a10.338,10.338,0,0,0-8.254-10.12,10.575,10.575,0,0,1,2.075-.206A10.328,10.328,0,0,1,99.568,31.683Zm0,0"/><path class="k" d="M75.442,15.083a12.737,12.737,0,0,0,.612,2.245c.09.242.189.483.293.717a12.732,12.732,0,0,0,24.165-7.407,12.937,12.937,0,0,0-.416-1.679c-.083-.261-.177-.517-.274-.769A12.549,12.549,0,0,0,98.466,5.64a12.732,12.732,0,0,0-23.089,9.035C75.4,14.808,75.418,14.945,75.442,15.083Zm0,0"/><path class="l" d="M75.442,15.083a12.737,12.737,0,0,0,.612,2.245c.09.242.189.483.293.717a37.005,37.005,0,0,0,7.892-.5A26.749,26.749,0,0,0,100.1,8.958c-.083-.26-.177-.516-.274-.768A12.549,12.549,0,0,0,98.466,5.64a12.732,12.732,0,0,0-23.089,9.035C75.4,14.808,75.418,14.945,75.442,15.083Zm0,0"/><path class="m" d="M75.378,14.673C92.171,15.82,98.466,5.641,98.466,5.641a12.732,12.732,0,0,0-23.089,9.032Zm0,0"/><path class="m" d="M99.52,7.483c-1.748,2.237-8.277,9.209-21.576,9.209-.69,0-1.4-.018-2.125-.06-.925-.046-1.884-.128-2.87-.25a1.932,1.932,0,1,1,.466-3.836q.939.116,1.832.181C89.377,13.786,95.53,6.406,96.659,4.86a1.917,1.917,0,0,1,.708-.6,12.724,12.724,0,0,1,1.1,1.379A12.421,12.421,0,0,1,99.52,7.483Zm0,0"/><path class="d" d="M94.365,37.838l-7.758,14.3a5.761,5.761,0,0,1-3.031,2.644L78.915,56.54V52.41l3.3-1.243a1.892,1.892,0,0,0,1-.868L90.967,36a1.933,1.933,0,1,1,3.4,1.843Zm0,0"/><path class="d" d="M87.635,34.189,80.559,47.236a1.931,1.931,0,0,1-1.018.889l-.626.237v-6.2l5.323-9.815a1.932,1.932,0,1,1,3.4,1.843Zm0,0"/><path class="j" d="M91.127,31.727a3.828,3.828,0,0,0-5.19,1.539L78.86,46.315,66.207,51.082a3.787,3.787,0,0,0-2.228,4.832l.027.072a3.788,3.788,0,0,0,4.9,2.26l13.989-5.271a3.829,3.829,0,0,0,2.015-1.757l7.757-14.3A3.828,3.828,0,0,0,91.127,31.727Zm0,0"/><path class="k" d="M64.8,61.283l-4,1.215a2.648,2.648,0,0,1-2.762-.791l-2.176-2.489a2.648,2.648,0,0,1,1.225-4.277l5.3-1.61A4.155,4.155,0,1,1,64.8,61.283Zm0,0"/><path class="n" d="M117.966,89.429a4.594,4.594,0,0,1-4.594,4.594H89.186a9.046,9.046,0,0,1-9.036-9.036v-14.5a4.594,4.594,0,0,1,9.187,0V84.836h24.035A4.594,4.594,0,0,1,117.966,89.429Zm0,0"/><path class="o" d="M78.679,58.9v1.909H65.61a9.045,9.045,0,0,0-9.036,9.035V83.3a4.594,4.594,0,0,0,9.187,0V69.992l29.782,0a4.248,4.248,0,0,0,4.248-4.248V58.9Zm0,0"/><path class="p" d="M117.025,79.609l11.687,7.651a2.844,2.844,0,0,1-1.185,5.2,19.925,19.925,0,0,1-13.52-3.084l-2.364-1.547a2.594,2.594,0,0,1-.749-3.59l2.54-3.879A2.593,2.593,0,0,1,117.025,79.609Zm0,0"/><path class="q" d="M42.59,35.853a1.929,1.929,0,0,1-1.183-.4l-1.6-1.24a1.933,1.933,0,0,1,2.366-3.056l.426.33.535-.408a1.933,1.933,0,1,1,2.344,3.074l-1.715,1.308A1.934,1.934,0,0,1,42.59,35.853Zm0,0"/><path class="q" d="M52.05,22.256a1.928,1.928,0,0,1-1.182-.4l-1.6-1.24a1.933,1.933,0,1,1,2.366-3.056l.426.329.535-.408a1.933,1.933,0,0,1,2.344,3.074l-1.716,1.308A1.925,1.925,0,0,1,52.05,22.256Zm0,0"/><path class="q" d="M35.249,31.333a1.928,1.928,0,0,1-1.182-.4l-1.6-1.24a1.933,1.933,0,1,1,2.366-3.056l.425.329.535-.407a1.933,1.933,0,0,1,2.345,3.073l-1.716,1.308A1.925,1.925,0,0,1,35.249,31.333Zm0,0"/></g></g></svg>