<svg xmlns="http://www.w3.org/2000/svg" xmlns:xlink="http://www.w3.org/1999/xlink" width="130" height="130" viewBox="0 0 130 130"><defs><style>.a{fill:#fff;stroke:#707070;}.b{clip-path:url(#a);}.c{fill:#ebb3b8;}.d{fill:#e6989e;}.e{fill:#e8e8e8;}.f{fill:#f5de46;}.g{fill:#df646e;}.h{fill:#dc4955;}.i{fill:#caa828;}</style><clipPath id="a"><rect class="a" width="130" height="130" transform="translate(1479 651)"/></clipPath></defs><g class="b" transform="translate(-1479 -651)"><g transform="translate(1479 651)"><path class="c" d="M125.932,51.252l-14.477-5.888a6.54,6.54,0,0,0-8.234,2.981L100.8,52.881a6.523,6.523,0,0,0-.524,4.835l1.166,4.148a10.276,10.276,0,0,1,.35,3.608l-.722,8.933a5,5,0,0,1-3.9,4.477L57.945,87.534a26.446,26.446,0,0,0-1.9-31.33A32.346,32.346,0,1,0,2.022,28.578s-14.267,59.5,32.987,98.126a14.454,14.454,0,0,0,14.213,2.309l4-1.5A279.239,279.239,0,0,0,89.647,110.8,120.557,120.557,0,0,0,111.4,95.5l1.252-1.105A48.733,48.733,0,0,0,128.4,66.35l1.206-6.813a6.524,6.524,0,0,0-3.669-8.285Z"/><path class="d" d="M58.453,32.75a32.231,32.231,0,0,1-8.9,21.944,2.547,2.547,0,0,0-.22,3.22,26.479,26.479,0,0,1,2.959,25.033,2.543,2.543,0,0,0,2.915,3.42l3.933-.868A26.441,26.441,0,0,0,56.047,56.2,32.344,32.344,0,0,0,34.224.061a32.634,32.634,0,0,0-4.11.25A32.478,32.478,0,0,1,58.453,32.75Z"/><path class="d" d="M125.932,51.252l-14.477-5.888a6.539,6.539,0,0,0-6.25.725L117.9,51.252a6.524,6.524,0,0,1,3.669,8.285l-1.206,6.813a48.731,48.731,0,0,1-15.739,28.044L103.371,95.5a120.557,120.557,0,0,1-21.757,15.3,279.239,279.239,0,0,1-36.423,16.712l-4,1.5c-.36.135-.724.253-1.09.358a14.532,14.532,0,0,0,9.123-.358l4-1.5A279.241,279.241,0,0,0,89.647,110.8,120.557,120.557,0,0,0,111.4,95.5l1.252-1.105A48.731,48.731,0,0,0,128.4,66.35l1.206-6.813A6.524,6.524,0,0,0,125.932,51.252Z"/><path class="e" d="M26.25,74.3V87.44a2.162,2.162,0,0,0,.165.828l2.722,6.567a2.161,2.161,0,0,0,3.993,0l2.722-6.567a2.162,2.162,0,0,0,.165-.828V74.3a2.161,2.161,0,0,0-2.161-2.161H28.411A2.161,2.161,0,0,0,26.25,74.3Z"/><path class="f" d="M35.9,36.034V25.871a4.768,4.768,0,0,0-9.536,0V36.034Z"/><path class="g" d="M38.966,47.553a11.638,11.638,0,0,0-7.832,3.015,11.685,11.685,0,0,0-18.35,13.76c1.892,3.9,10.305,13.767,18.35,18.414,7.028-4.759,16.6-14.609,18.448-18.622A11.688,11.688,0,0,0,38.966,47.553Z"/><path class="h" d="M38.966,47.553a11.649,11.649,0,0,0-4.012.711,11.693,11.693,0,0,1,6.595,15.855C40.018,67.44,33.2,74.756,26.912,79.878a38.831,38.831,0,0,0,4.222,2.863c7.028-4.759,16.6-14.609,18.448-18.622A11.688,11.688,0,0,0,38.966,47.553Z"/><path class="e" d="M36.017,53.64V41.248L31.179,38.57,26.25,41.248V53.64Z"/><path class="h" d="M37.7,59.935a2.008,2.008,0,0,1-1.84-1.2,5.157,5.157,0,0,0-9.387-.127,2.008,2.008,0,1,1-3.632-1.714,9.174,9.174,0,0,1,16.7.227A2.01,2.01,0,0,1,37.7,59.935Z"/><path class="i" d="M39.294,41.248H22.974a2.561,2.561,0,0,1-2.561-2.561V36.42a2.561,2.561,0,0,1,2.561-2.561h16.32a2.561,2.561,0,0,1,2.561,2.561v2.266A2.561,2.561,0,0,1,39.294,41.248Z"/></g></g></svg>