<?xml version="1.0" encoding="iso-8859-1"?>
<!-- Generator: Adobe Illustrator 19.0.0, SVG Export Plug-In . SVG Version: 6.00 Build 0)  -->
<svg xmlns="http://www.w3.org/2000/svg" xmlns:xlink="http://www.w3.org/1999/xlink" version="1.1" id="Capa_1" x="0px" y="0px" viewBox="0 0 512 512" style="enable-background:new 0 0 512 512;" xml:space="preserve" width="512px" height="512px">
<g>
	<g>
		<g>
			<polygon points="256,0 129.505,126.495 382.495,126.495    " fill="#707070"/>
			<path d="M416.911,370.063c-7.373-17.787-18.012-33.71-31.631-47.329l-68.506-68.506c-5.489-5.489-9.789-11.919-12.769-19.118     c-2.98-7.168-4.485-14.746-4.485-22.518v-0.01v-86.077v-0.01h-87.04v0.01v86.077c0,7.772-1.505,15.36-4.475,22.518     c-2.98,7.189-7.281,13.619-12.769,19.118l-68.526,68.526c-13.619,13.619-24.259,29.553-31.611,47.309     c-7.383,17.797-11.121,36.588-11.121,55.859V512h87.04v-86.098c0-7.772,1.505-15.34,4.495-22.538     c2.959-7.168,7.26-13.599,12.749-19.087L256,316.549l67.738,67.738c5.489,5.489,9.789,11.919,12.759,19.077     c2.99,7.199,4.485,14.776,4.485,22.549V512h87.04v-86.088C428.022,406.661,424.294,387.881,416.911,370.063z" fill="#707070"/>
		</g>
	</g>
</g>
<g>
</g>
<g>
</g>
<g>
</g>
<g>
</g>
<g>
</g>
<g>
</g>
<g>
</g>
<g>
</g>
<g>
</g>
<g>
</g>
<g>
</g>
<g>
</g>
<g>
</g>
<g>
</g>
<g>
</g>
</svg>
