<svg xmlns="http://www.w3.org/2000/svg" xmlns:xlink="http://www.w3.org/1999/xlink" width="130" height="130" viewBox="0 0 130 130"><defs><style>.a{fill:#fff;stroke:#707070;}.b{clip-path:url(#a);}.c{fill:#aa6a51;}.d{fill:#935b44;}.e{fill:#ffcebf;}.f{fill:#ffb09e;}.g{fill:#bbec6c;}.h{fill:#a2e62e;}.i{fill:#537983;}.j{fill:#c4e2ff;}.k{fill:#b3dafe;}</style><clipPath id="a"><rect class="a" width="130" height="130" transform="translate(425 583)"/></clipPath></defs><g class="b" transform="translate(-425 -583)"><g transform="translate(425 583)"><path class="c" d="M65,0S48.154-.311,52.244,16.383c-.088-.358,3.547-1.79,3.823-1.9a26.2,26.2,0,0,1,16.022-.615,19.947,19.947,0,0,1,5.667,2.511C81.846-.312,65,0,65,0Z"/><path class="d" d="M77.755,16.383a19.11,19.11,0,0,0-5.018-2.316C74.219,3.626,66.55.931,62.264.241A16.944,16.944,0,0,1,65,0S81.846-.312,77.755,16.383Z"/><path class="e" d="M109.722,130a10.47,10.47,0,0,0-7.642-10.081l-20.756-5.825a6.432,6.432,0,0,1-4.632-7.083l.966-10.466H52.341l.966,10.466a6.432,6.432,0,0,1-4.632,7.083l-20.756,5.825A10.471,10.471,0,0,0,20.278,130Z"/><path class="f" d="M109.722,130h-5.459a10.465,10.465,0,0,0-7.046-6.605L76.668,117.1a6.431,6.431,0,0,1-4.633-7.082l.151-13.477h5.472l-.967,10.467a6.431,6.431,0,0,0,4.633,7.082l20.757,5.826A10.465,10.465,0,0,1,109.722,130Z"/><path class="g" d="M92,37.275,65,25.632v0l0,0,0,0v0l-27,11.643L34.07,53.693c.026,4-.226,10.232,0,14.54.551,10.477,5.418,19.413,12.18,27.168a47.913,47.913,0,0,0,7.793,7.02,18.556,18.556,0,0,0,21.918,0,47.913,47.913,0,0,0,7.793-7.02c6.762-7.755,11.628-16.691,12.18-27.168.209-3.983,0-14.54,0-14.54Z"/><path class="h" d="M95.932,68.234c-.55,10.477-5.417,19.412-12.179,27.167a47.851,47.851,0,0,1-7.794,7.02,18.532,18.532,0,0,1-13.612,3.39,18.019,18.019,0,0,0,8.364-3.575,48.707,48.707,0,0,0,7.794-7.382l.1-.127a56.475,56.475,0,0,0,9.111-14.972,49.7,49.7,0,0,0,3.118-17.59c.041-1.815.042-3.631-.02-5.446a58.337,58.337,0,0,0-1.331-10.973L87.075,35.152,92,37.276l3.929,16.418s.209,10.556,0,14.54Z"/><ellipse class="e" cx="10.561" cy="7.563" rx="10.561" ry="7.563" transform="translate(40.802 55.878)"/><ellipse class="e" cx="10.561" cy="7.563" rx="10.561" ry="7.563" transform="translate(68.075 55.878)"/><ellipse class="e" cx="10.561" cy="7.563" rx="10.561" ry="7.563" transform="translate(54.439 80.356)"/><path class="i" d="M51.349,66.2a5.292,5.292,0,0,1-.53-.026,5.674,5.674,0,0,1-4.05-2.41A1.96,1.96,0,1,1,50,61.533a1.755,1.755,0,0,0,1.212.735,1.72,1.72,0,0,0,1.524-.707,1.96,1.96,0,0,1,3.229,2.225,5.658,5.658,0,0,1-4.611,2.41Z"/><path class="i" d="M78.652,66.2a5.659,5.659,0,0,1-4.611-2.409,1.96,1.96,0,0,1,3.229-2.225,1.722,1.722,0,0,0,1.524.707A1.755,1.755,0,0,0,80,61.533a1.96,1.96,0,1,1,3.227,2.227,5.674,5.674,0,0,1-4.05,2.41c-.176.018-.354.026-.53.026Z"/><path class="i" d="M65.054,90.274a11.375,11.375,0,0,1-4.668-.973,1.96,1.96,0,1,1,1.647-3.558,7.57,7.57,0,0,0,3.463.6,6.907,6.907,0,0,0,2.462-.593A1.96,1.96,0,0,1,69.621,89.3a10.761,10.761,0,0,1-3.893.956C65.5,90.268,65.279,90.274,65.054,90.274Z"/><path class="j" d="M33.991,65.816c2.759-20.883,20.583-39.521,42.22-39.521A42.62,42.62,0,0,1,88.89,28.212s-8.1-20.091-36.353-14.7a36.5,36.5,0,0,0-23.26,20.726c-2.8,6.418-3.545,15.533-.724,21.963a41.919,41.919,0,0,0,2.6,5.011c2.594,4.248,2.84,4.6,2.84,4.6Z"/><path class="k" d="M88.889,28.21A42.628,42.628,0,0,0,76.21,26.3,38.493,38.493,0,0,0,59.82,30a51.933,51.933,0,0,0-20.838-4.477c-1.7-.01-3.163.014-4.549.144a37.6,37.6,0,0,1,8.586-7.922,32.244,32.244,0,0,1,9.519-4.237c17.4-3.32,27.154,3.025,32.084,8.388A23.4,23.4,0,0,1,88.889,28.21Z"/><path class="j" d="M96,65.816c-2.172-16.438-14.177-29.166-28.591-37.2a51.721,51.721,0,0,0-22.688-6.432c-3.041-.147-5.967-.134-7.455.329a33.333,33.333,0,0,1,3.538-3.2,30.74,30.74,0,0,1,9.484-5.182A43.148,43.148,0,0,1,62.3,12.059a54.9,54.9,0,0,1,7.671.307c10.882,1.173,20.546,5.855,26.933,15.118,5.409,7.844,8.4,19.609,4.395,28.732a44.928,44.928,0,0,1-2.594,5C95.961,65.816,96,65.816,96,65.816Z"/><path class="k" d="M101.3,56.216a47.092,47.092,0,0,1-2.593,5L96,65.816a40.564,40.564,0,0,0-1.567-6.869c.592-1.086,1.141-2.2,1.639-3.335,4-9.123,1.016-20.887-4.393-28.73-5.816-8.437-14.352-13.073-24.051-14.719.782.052,1.563.122,2.345.206,10.881,1.173,20.546,5.855,26.932,15.116,5.409,7.846,8.4,19.61,4.393,28.733Z"/></g></g></svg>