<svg xmlns="http://www.w3.org/2000/svg" width="40" height="40.209" viewBox="0 0 40 40.209">
  <g id="vaccine" transform="translate(-17.6 -17)">
    <g id="Group_5855" data-name="Group 5855" transform="translate(20.987 30.898)">
      <path id="Path_860" data-name="Path 860" d="M76.266,146.429h0A19.583,19.583,0,0,1,71.185,141,9.143,9.143,0,0,0,55.8,141a19.583,19.583,0,0,1-5.081,5.429,9.165,9.165,0,0,0,5.255,16.682H71.023a9.16,9.16,0,0,0,5.244-16.682Zm-5.244,14.71H55.976a7.2,7.2,0,0,1-4.118-13.109,21.67,21.67,0,0,0,5.6-5.963,7.188,7.188,0,0,1,12.1,0,21.483,21.483,0,0,0,5.6,5.963,7.2,7.2,0,0,1-4.142,13.109Z" transform="translate(-46.8 -136.8)" fill="#6c93a5"/>
    </g>
    <g id="Group_5856" data-name="Group 5856" transform="translate(17.6 25.573)">
      <path id="Path_861" data-name="Path 861" d="M21.672,90.9A4.07,4.07,0,0,0,17.6,94.972v3.55a4.07,4.07,0,0,0,4.072,4.072H21.7a4.06,4.06,0,0,0,4.049-4.06V94.972A4.07,4.07,0,0,0,21.672,90.9Zm2.111,7.622a2.111,2.111,0,0,1-4.223.012V94.972a2.111,2.111,0,0,1,4.223,0Z" transform="translate(-17.6 -90.9)" fill="#6c93a5"/>
    </g>
    <g id="Group_5857" data-name="Group 5857" transform="translate(49.456 25.573)">
      <path id="Path_862" data-name="Path 862" d="M296.272,90.9a4.07,4.07,0,0,0-4.072,4.072v3.55a4.072,4.072,0,0,0,8.144,0v-3.55A4.07,4.07,0,0,0,296.272,90.9Zm2.111,7.633a2.111,2.111,0,1,1-4.223,0V94.972a2.111,2.111,0,1,1,4.223,0Z" transform="translate(-292.2 -90.9)" fill="#6c93a5"/>
    </g>
    <g id="Group_5858" data-name="Group 5858" transform="translate(27.646 17)">
      <path id="Path_863" data-name="Path 863" d="M108.272,17a4.07,4.07,0,0,0-4.072,4.072v3.55a4.072,4.072,0,1,0,8.144,0v-3.55A4.07,4.07,0,0,0,108.272,17Zm2.1,7.622a2.111,2.111,0,0,1-4.223,0v-3.55a2.111,2.111,0,0,1,4.223,0Z" transform="translate(-104.2 -17)" fill="#6c93a5"/>
    </g>
    <g id="Group_5859" data-name="Group 5859" transform="translate(39.41 17)">
      <path id="Path_864" data-name="Path 864" d="M209.672,17a4.07,4.07,0,0,0-4.072,4.072v3.55a4.072,4.072,0,0,0,8.144,0v-3.55A4.07,4.07,0,0,0,209.672,17Zm2.1,7.622a2.111,2.111,0,1,1-4.223,0v-3.55a2.111,2.111,0,0,1,4.223,0Z" transform="translate(-205.6 -17)" fill="#6c93a5"/>
    </g>
  </g>
</svg>
