<svg xmlns="http://www.w3.org/2000/svg" xmlns:xlink="http://www.w3.org/1999/xlink" width="130" height="130" viewBox="0 0 130 130"><defs><style>.a{fill:#fff;stroke:#707070;}.b{clip-path:url(#a);}.c{fill:#ad7fdd;}.d{fill:#e5d5f5;}.e{fill:#6a61b2;}.f{fill:#5f55ad;}.g{fill:#ffcdbe;}.h{fill:#ebae9d;}.i{fill:#f2eafa;}.j{fill:#92e0c4;}.k{fill:#e09380;}</style><clipPath id="a"><rect class="a" width="130" height="130" transform="translate(425 269)"/></clipPath></defs><g class="b" transform="translate(-425 -269)"><g transform="translate(425 269)"><path class="c" d="M101.39,22.435l-1.119-2.474L94.8,4.924a7.478,7.478,0,1,0-14.054,5.115l1.073,2.949A7.481,7.481,0,0,0,94.477,15.35s2.221,6.094,2.241,6.139l1.15,2.54a1.933,1.933,0,0,0,3.522-1.594ZM92.118,11.957a3.613,3.613,0,0,1-6.669-.291L84.375,8.717a3.613,3.613,0,1,1,6.79-2.472l.367,1.01c0,.007,0,.013.006.02l.7,1.935a3.588,3.588,0,0,1-.125,2.748Z"/><path class="c" d="M121.354,4.321a7.478,7.478,0,0,0-13.8.6l-6.255,17a1.933,1.933,0,1,0,3.59,1.432s.792-1.986.8-2l2.186-6a7.479,7.479,0,0,0,12.661-2.362l1.073-2.949a7.428,7.428,0,0,0-.25-5.718Zm-3.382,4.4L116.9,11.666a3.612,3.612,0,0,1-6.8-2.449l.707-1.942c0-.009.005-.018.008-.026l.365-1a3.613,3.613,0,1,1,6.789,2.471Z"/><path class="d" d="M103.669,25.046c23.037,9.5,16.236,30.359,12.764,38.036a1.383,1.383,0,0,1-2.56-.1L100.486,26.2Z"/><path class="e" d="M119.51,84.241c-10.986,13.635-27.131,26.6-45.711,22.072A25.507,25.507,0,0,1,56.778,92.636a22.61,22.61,0,0,1-2.152-8.792c-.316-8.276,3.453-16.247,1.839-24.568-1.592-8.2-7.311-15.188-15.621-17.06a21.138,21.138,0,0,0-6.246-.449c-5.517,1.37-10.487,4.732-13.579,11.668-2.063,4.623-3.292,10.842-3.292,19.118a26.35,26.35,0,0,0,.721,6.138,24.832,24.832,0,0,1-11.1-10.182C3.728,62.25,2.68,54.733,3.376,47.536c.782-8.1,3.844-16.186,9.682-21.85C19.94,19,30.038,16.361,39.607,16.98s18.721,4.185,27.27,8.534S83.545,35.033,92.185,39.19c9.319,4.488,22.335,8.359,31.585,1.883a1.577,1.577,0,0,1,2.452,1.034,44.383,44.383,0,0,1-10.592,36.636,1.579,1.579,0,0,0,.91,2.629c.657.1,1.318.216,1.975.319a1.578,1.578,0,0,1,1,2.549Z"/><path class="f" d="M118.514,81.692c-.657-.1-1.318-.216-1.975-.319a1.579,1.579,0,0,1-.91-2.629,44.385,44.385,0,0,0,10.592-36.636,1.577,1.577,0,0,0-2.452-1.034,18.2,18.2,0,0,1-5.169,2.5,44.4,44.4,0,0,1-10.7,35.941,1.579,1.579,0,0,0,.91,2.629c.657.1,1.318.216,1.975.319a1.578,1.578,0,0,1,1,2.549c-7.988,9.914-18.705,19.47-31.1,22.209,15.674.348,29.225-11.059,38.832-22.982A1.578,1.578,0,0,0,118.514,81.692Z"/><path class="g" d="M52.22,108.972V91.71H30.885v17.262a2.1,2.1,0,0,1-1.492,2.011c-8.19,2.481-21.59,4.9-21.59,16.148v1.211A1.658,1.658,0,0,0,9.462,130H73.643a1.658,1.658,0,0,0,1.658-1.658v-1.211c0-11.248-13.4-13.667-21.59-16.148A2.1,2.1,0,0,1,52.22,108.972Z"/><path class="h" d="M53.712,110.983a2.1,2.1,0,0,1-1.492-2.011V91.71H45.262v18.808a2.1,2.1,0,0,0,1.492,2.011c8.19,2.481,21.59,3.354,21.59,14.6v1.211A1.658,1.658,0,0,1,66.686,130h6.957a1.658,1.658,0,0,0,1.658-1.658v-1.211c0-11.248-13.4-13.667-21.59-16.148Z"/><ellipse class="h" cx="11.759" cy="9.416" rx="11.759" ry="9.416" transform="translate(7.614 63.378)"/><path class="g" d="M54.626,83.844a22.607,22.607,0,0,0,2.152,8.792c-5.028,5.164-11.166,8.146-15.227,8.146-6.931,0-19.917-8.687-23.1-22.091a26.348,26.348,0,0,1-.721-6.138c0-8.276,1.229-14.494,3.292-19.118,3.093-6.937,8.063-10.3,13.579-11.668a21.121,21.121,0,0,1,6.246.449c8.31,1.872,14.029,8.864,15.621,17.06,1.614,8.321-2.156,16.292-1.839,24.568Z"/><path class="h" d="M35.9,98.836a9.331,9.331,0,0,1-1.473-.126,16.436,16.436,0,0,0,7.125,2.072c4.06,0,10.2-2.982,15.227-8.146a22.654,22.654,0,0,1-2.062-7.476C49.663,93.668,41.042,98.836,35.9,98.836Z"/><path class="i" d="M98.678,25.046C75.641,34.546,82.443,55.4,85.914,63.082a1.383,1.383,0,0,0,2.56-.1L101.861,26.2Z"/><circle class="j" cx="5.543" cy="5.543" r="5.543" transform="translate(95.631 19.992)"/><path class="k" d="M41.552,87.619a14.56,14.56,0,0,1-6.289-1.486,1.933,1.933,0,1,1,1.658-3.492,10.221,10.221,0,0,0,9.263,0,1.933,1.933,0,1,1,1.658,3.492,14.564,14.564,0,0,1-6.29,1.486Z"/><path class="k" d="M32.242,71.844a1.932,1.932,0,0,1-1.932-1.932v-2.7a1.932,1.932,0,1,1,3.865,0v2.7A1.932,1.932,0,0,1,32.242,71.844Z"/><path class="k" d="M35.913,61.69a1.923,1.923,0,0,1-.978-.267,4.879,4.879,0,0,0-5.386,0,1.933,1.933,0,0,1-1.96-3.332,8.731,8.731,0,0,1,9.305,0,1.933,1.933,0,0,1-.981,3.6Z"/><path class="f" d="M68.3,68c-2.463-8.127-9.619-18.748-17.331-22.456a12.31,12.31,0,0,0-4.643-1.165,20.742,20.742,0,0,1,7.591,7.88A41.205,41.205,0,0,1,64.6,69.122a1.935,1.935,0,0,0,1.85,1.373A1.94,1.94,0,0,0,68.3,68Zm-5.81-29.522c-9.423-6.529-19.856-7.725-28.625-3.288-6.7,3.391-11.281,9.753-11.974,16.468a19.41,19.41,0,0,1,7.2-7.671,19.255,19.255,0,0,1,6.522-5.347c7.462-3.78,16.458-2.68,24.678,3.015a1.932,1.932,0,0,0,2.2-3.177Z"/></g></g></svg>