<svg xmlns="http://www.w3.org/2000/svg" width="130" height="130" viewBox="0 0 130 130"><defs><style>.a{fill:#fff;}.b{fill:#ecf4ff;}.c{fill:#cbe2ff;}.d{fill:#e49542;}.e{fill:#c8ea73;}.f{fill:#4073c8;}.g{fill:#e28424;}.h{fill:#dd5790;}.i{fill:#da387d;}.j{fill:#b7e445;}.k{fill:#9dc6fb;}</style></defs><g transform="translate(-140 -1045)"><rect class="a" width="130" height="130" transform="translate(140 1045)"/><g transform="translate(157.459 1045)"><g transform="translate(0 0)"><path class="b" d="M160.826,129.489H71.288a2.605,2.605,0,0,1-2.605-2.605V2.605A2.605,2.605,0,0,1,71.288,0h89.538a2.605,2.605,0,0,1,2.605,2.605V126.884A2.606,2.606,0,0,1,160.826,129.489Z" transform="translate(-68.683 0)"/></g><g transform="translate(1.56 75.166)"><path class="c" d="M75.891,351.843h89.535a2.607,2.607,0,0,0,2.605-2.609V297.52a169.927,169.927,0,0,1-34.01,29.5c-19.624,13.01-40.254,21.253-59.178,24.6A2.59,2.59,0,0,0,75.891,351.843Z" transform="translate(-74.843 -297.52)"/></g><g transform="translate(8.434 25.52)"><g transform="translate(0)"><path class="d" d="M115.162,111.513v-10.57a13.179,13.179,0,1,0,13.179,13.179h-10.57a2.609,2.609,0,0,1-2.609-2.609Z" transform="translate(-101.983 -100.943)"/></g><g transform="translate(13.179)"><path class="e" d="M154.016,100.943v10.57a2.609,2.609,0,0,0,2.609,2.609h10.57A13.179,13.179,0,0,0,154.016,100.943Z" transform="translate(-154.016 -100.943)"/></g></g><g transform="translate(26.288 8.434)"><path class="f" d="M172.748,35.91v3.216a2.609,2.609,0,0,0,2.609,2.609H212.31a2.609,2.609,0,0,0,2.609-2.609V35.91A2.609,2.609,0,0,0,212.31,33.3H175.357a2.609,2.609,0,0,0-2.609,2.609Z" transform="translate(-172.748 -33.301)"/></g><g transform="translate(9.489 73.612)"><g transform="translate(0 39.009)"><path class="f" d="M106.146,446.964v5.3a1.565,1.565,0,0,0,1.566,1.565h9.52a1.565,1.565,0,0,0,1.566-1.565v-5.3a1.565,1.565,0,0,0-1.566-1.565h-9.52A1.566,1.566,0,0,0,106.146,446.964Z" transform="translate(-106.146 -445.398)"/></g><g transform="translate(21.04 26.357)"><path class="d" d="M189.4,397.012v17.955a1.565,1.565,0,0,0,1.566,1.565h9.52a1.565,1.565,0,0,0,1.565-1.565V397.012a1.565,1.565,0,0,0-1.565-1.566h-9.52A1.566,1.566,0,0,0,189.4,397.012Z" transform="translate(-189.398 -395.447)"/></g><g transform="translate(21.462 41.323)"><path class="g" d="M192.211,460.654h9.52a1.565,1.565,0,0,0,1.566-1.566v-4.555q-6.113,3.111-12.228,5.623A1.56,1.56,0,0,0,192.211,460.654Z" transform="translate(-191.068 -454.534)"/></g><g transform="translate(42.08 10.543)"><path class="h" d="M272.65,334.574v33.769a1.565,1.565,0,0,0,1.566,1.565h9.52a1.565,1.565,0,0,0,1.565-1.565V334.574a1.565,1.565,0,0,0-1.565-1.565h-9.52A1.566,1.566,0,0,0,272.65,334.574Z" transform="translate(-272.65 -333.008)"/></g><g transform="translate(42.08 28.679)"><path class="i" d="M285.3,404.614c-1.149.8-2.308,1.593-3.486,2.373q-4.551,3.013-9.165,5.683v9.143a1.565,1.565,0,0,0,1.565,1.565h9.52a1.565,1.565,0,0,0,1.565-1.565Z" transform="translate(-272.651 -404.614)"/></g><g transform="translate(63.119)"><path class="e" d="M355.9,292.947V337.26a1.565,1.565,0,0,0,1.566,1.566h9.52a1.565,1.565,0,0,0,1.565-1.566V292.947a1.565,1.565,0,0,0-1.565-1.565h-9.52A1.566,1.566,0,0,0,355.9,292.947Z" transform="translate(-355.902 -291.382)"/></g><g transform="translate(63.12 11.468)"><path class="j" d="M368.554,336.662c-3.939,3.777-8.161,7.45-12.651,10.979v23.43a1.565,1.565,0,0,0,1.565,1.566h9.52a1.565,1.565,0,0,0,1.566-1.566Z" transform="translate(-355.903 -336.662)"/></g></g><g transform="translate(45.348 23.575)"><path class="k" d="M289.24,97.132H250.231a1.957,1.957,0,1,1,0-3.914H289.24a1.957,1.957,0,1,1,0,3.914Z" transform="translate(-248.274 -93.218)"/></g><g transform="translate(45.348 32.347)"><path class="k" d="M289.24,131.82H250.231a1.957,1.957,0,0,1,0-3.914H289.24a1.957,1.957,0,1,1,0,3.914Z" transform="translate(-248.274 -127.906)"/></g><g transform="translate(45.348 41.12)"><path class="k" d="M289.24,166.508H250.231a1.957,1.957,0,1,1,0-3.914H289.24a1.957,1.957,0,1,1,0,3.914Z" transform="translate(-248.274 -162.594)"/></g><g transform="translate(45.394 49.892)"><path class="k" d="M273.425,201.2H250.231a1.957,1.957,0,0,1,0-3.914h23.194a1.957,1.957,0,0,1,0,3.914Z" transform="translate(-248.274 -197.282)"/></g><g transform="translate(9.904 62.772)"><g transform="translate(0)"><path class="k" d="M145.325,252.188H109.743a1.957,1.957,0,1,1,0-3.914h35.582a1.957,1.957,0,1,1,0,3.914Z" transform="translate(-107.786 -248.274)"/></g><g transform="translate(0 8.786)"><path class="k" d="M145.325,286.876H109.743a1.957,1.957,0,1,1,0-3.914h35.582a1.957,1.957,0,1,1,0,3.914Z" transform="translate(-107.786 -282.962)"/></g><g transform="translate(0 17.572)"><path class="k" d="M129.511,321.565H109.743a1.957,1.957,0,1,1,0-3.914h19.768a1.957,1.957,0,1,1,0,3.914Z" transform="translate(-107.786 -317.651)"/></g></g></g></g></svg>