<svg xmlns="http://www.w3.org/2000/svg" xmlns:xlink="http://www.w3.org/1999/xlink" viewBox="0 0 100 100">
  <defs>
    <style>
      .cls-1 {
        clip-path: url(#clip-Artboard_1);
      }

      .cls-2 {
        fill: #707070;
      }

      .cls-3 {
        fill: none;
      }
    </style>
    <clipPath id="clip-Artboard_1">
      <rect width="100" height="100"/>
    </clipPath>
  </defs>
  <g id="Artboard_1" data-name="Artboard – 1" class="cls-1">
    <rect class="cls-3" width="100" height="100"/>
    <g id="credit-card" transform="translate(1 -38.014)">
      <g id="Group_3079" data-name="Group 3079" transform="translate(-1 46.014)">
        <g id="Group_3078" data-name="Group 3078">
          <path id="Path_119" data-name="Path 119" class="cls-2" d="M265.2,261.324h26.658a1.606,1.606,0,0,0,1.666-1.731V244.012a1.606,1.606,0,0,0-1.666-1.731H265.2a1.606,1.606,0,0,0-1.666,1.731v15.581A1.606,1.606,0,0,0,265.2,261.324Zm1.666-15.581h23.326v12.118H266.866Z" transform="translate(-211.883 -202.463)"/>
          <path id="Path_120" data-name="Path 120" class="cls-2" d="M34.8,211.609H48.129a1.732,1.732,0,0,0,0-3.462H34.8a1.732,1.732,0,0,0,0,3.462Z" transform="translate(-26.469 -175.254)"/>
          <path id="Path_121" data-name="Path 121" class="cls-2" d="M137.2,211.609h13.329a1.732,1.732,0,0,0,0-3.462H137.2a1.732,1.732,0,0,0,0,3.462Z" transform="translate(-108.876 -175.254)"/>
          <path id="Path_122" data-name="Path 122" class="cls-2" d="M34.8,245.743H56.46a1.732,1.732,0,0,0,0-3.462H34.8a1.732,1.732,0,0,0,0,3.462Z" transform="translate(-26.469 -202.463)"/>
          <path id="Path_123" data-name="Path 123" class="cls-2" d="M184.865,242.28h-5a1.732,1.732,0,0,0,0,3.462h5a1.732,1.732,0,0,0,0-3.462Z" transform="translate(-143.211 -202.462)"/>
          <path id="Path_124" data-name="Path 124" class="cls-2" d="M97.469,64.365a6.153,6.153,0,0,0-4.5-2.6l-4-.5V52.939a6.818,6.818,0,0,0-6.665-6.925H5.665A6.818,6.818,0,0,0-1,52.939v55.4a6.921,6.921,0,0,0,4.774,6.638,6.651,6.651,0,0,0,5.889,6.866l76.976,9h.666a6.755,6.755,0,0,0,6.665-5.886l5-55.572A6.908,6.908,0,0,0,97.469,64.365ZM2.332,58.132H85.64V68.52H2.332Zm3.332-8.656H82.307a3.409,3.409,0,0,1,3.332,3.462V54.67H2.332V52.939A3.409,3.409,0,0,1,5.665,49.476ZM2.332,108.337V71.982H85.64v36.355a3.409,3.409,0,0,1-3.332,3.462H5.665A3.409,3.409,0,0,1,2.332,108.337Zm93.3-39.645-5,55.572a3.4,3.4,0,0,1-3.665,3.116l-76.809-9a3.438,3.438,0,0,1-3-3.116H82.307a6.818,6.818,0,0,0,6.665-6.925v-43.8l3.832.346A2.82,2.82,0,0,1,94.97,66.1,3.607,3.607,0,0,1,95.636,68.693Z" transform="translate(1 -46.014)"/>
        </g>
      </g>
    </g>
  </g>
</svg>
