<svg xmlns="http://www.w3.org/2000/svg" xmlns:xlink="http://www.w3.org/1999/xlink" viewBox="0 0 100 100">
  <defs>
    <style>
      .cls-1 {
        clip-path: url(#clip-iPhone_6_7_8_4);
      }

      .cls-2 {
        fill: #707070;
      }

      .cls-3 {
        fill: none;
      }
    </style>
    <clipPath id="clip-iPhone_6_7_8_4">
      <rect width="100" height="100"/>
    </clipPath>
  </defs>
  <g id="iPhone_6_7_8_4" data-name="iPhone 6/7/8 – 4" class="cls-1">
    <rect class="cls-3" width="100" height="100"/>
    <g id="invoice_1_" data-name="invoice (1)" transform="translate(-8.566 5)">
      <g id="Group_3067" data-name="Group 3067" transform="translate(16.566)">
        <g id="Group_3066" data-name="Group 3066" transform="translate(0)">
          <path id="Path_113" data-name="Path 113" class="cls-2" d="M100.74,39.151c0-.042,0-.084-.008-.126,0-.01,0-.021,0-.031a1.3,1.3,0,0,0-.031-.152c0-.013-.008-.026-.012-.04q-.016-.055-.037-.108l-.021-.05c-.014-.032-.03-.064-.048-.1-.008-.015-.016-.03-.024-.045l-.006-.011a1.334,1.334,0,0,0-.079-.115l-.019-.022a1.294,1.294,0,0,0-.085-.1l-.032-.031c-.03-.028-.061-.056-.093-.081l-.029-.023a1.28,1.28,0,0,0-.133-.088l0,0L89.093,31.755V1.318A1.318,1.318,0,0,0,87.775,0H29.533a1.318,1.318,0,0,0-1.318,1.318V12.256a1.318,1.318,0,1,0,2.637,0V2.637H86.456V45.506l-27.8,16.88-27.8-16.88V17.529a1.318,1.318,0,1,0-2.637,0V31.754L17.23,38.031l0,0a1.307,1.307,0,0,0-.135.089l-.025.02q-.05.04-.1.085l-.028.027a1.288,1.288,0,0,0-.093.106l-.011.013a1.327,1.327,0,0,0-.081.117l-.008.014c-.007.011-.012.023-.019.035-.02.036-.038.072-.054.108l-.017.041q-.024.06-.042.121c0,.009-.006.018-.008.028a1.3,1.3,0,0,0-.032.158c0,.006,0,.011,0,.017a1.333,1.333,0,0,0-.009.142c0,.007,0,.013,0,.02V85.769a4.222,4.222,0,0,0,1.48,3.21c.012.011.024.021.036.031l.041.034c.025.021.05.041.077.06A4.209,4.209,0,0,0,20.8,90H96.512a4.209,4.209,0,0,0,2.6-.9c.024-.017.046-.036.068-.054L99.236,89l.025-.021a4.222,4.222,0,0,0,1.482-3.212V39.176C100.742,39.167,100.74,39.159,100.74,39.151ZM89.093,34.791l7.733,4.419-7.733,4.7Zm-60.879,0v9.114l-7.733-4.7ZM19.29,86.286a1.584,1.584,0,0,1-.088-.516V41.519l36.911,22.41ZM22.6,87.363,58.654,65.471,94.711,87.363Zm75.509-1.594a1.581,1.581,0,0,1-.088.516L61.194,63.929l36.911-22.41Z" transform="translate(-16.566)"/>
          <path id="Path_114" data-name="Path 114" class="cls-2" d="M135.168,140.129a1.318,1.318,0,1,0-2.637,0,5.7,5.7,0,0,0,4.368,5.53v.294a1.318,1.318,0,1,0,2.637,0v-.294a5.685,5.685,0,0,0,0-11.061v-5.952a3.051,3.051,0,0,1,1.731,2.746,1.318,1.318,0,0,0,2.637,0,5.7,5.7,0,0,0-4.368-5.53v-.293a1.318,1.318,0,0,0-2.637,0v.293a5.685,5.685,0,0,0,0,11.061v5.952A3.051,3.051,0,0,1,135.168,140.129Zm4.368-2.746a3.043,3.043,0,0,1,0,5.492Zm-4.368-5.991a3.051,3.051,0,0,1,1.731-2.746v5.492A3.05,3.05,0,0,1,135.168,131.392Z" transform="translate(-112.146 -102.409)"/>
          <path id="Path_115" data-name="Path 115" class="cls-2" d="M242.891,132.53H216.681a1.318,1.318,0,0,0,0,2.637h26.209a1.318,1.318,0,0,0,0-2.637Z" transform="translate(-180.418 -109.234)"/>
          <path id="Path_116" data-name="Path 116" class="cls-2" d="M242.891,182.23H216.681a1.318,1.318,0,0,0,0,2.637h26.209a1.318,1.318,0,0,0,0-2.637Z" transform="translate(-180.418 -150.197)"/>
          <path id="Path_117" data-name="Path 117" class="cls-2" d="M242.891,231.929H216.681a1.318,1.318,0,0,0,0,2.637h26.209a1.318,1.318,0,0,0,0-2.637Z" transform="translate(-180.418 -191.16)"/>
          <path id="Path_118" data-name="Path 118" class="cls-2" d="M206.846,33.132h-23.3a1.318,1.318,0,0,0-1.318,1.318v5.824a1.318,1.318,0,0,0,1.318,1.318h23.3a1.318,1.318,0,0,0,1.318-1.318V34.45A1.318,1.318,0,0,0,206.846,33.132Zm-21.979,5.824V35.769h20.66v3.188Z" transform="translate(-153.11 -27.308)"/>
        </g>
      </g>
    </g>
  </g>
</svg>
