<svg xmlns="http://www.w3.org/2000/svg" xmlns:xlink="http://www.w3.org/1999/xlink" viewBox="0 0 100 100">
  <defs>
    <style>
      .cls-1 {
        clip-path: url(#clip-iPhone_6_7_8_1);
      }

      .cls-2 {
        fill: #707070;
      }

      .cls-3 {
        fill: none;
      }
    </style>
    <clipPath id="clip-iPhone_6_7_8_1">
      <rect width="100" height="100"/>
    </clipPath>
  </defs>
  <g id="iPhone_6_7_8_1" data-name="iPhone 6/7/8 – 1" class="cls-1">
    <rect class="cls-3" width="100" height="100"/>
    <g id="money" transform="translate(0 -7.982)">
      <g id="Group_3081" data-name="Group 3081" transform="translate(0 40.827)">
        <g id="Group_3080" data-name="Group 3080">
          <path id="Path_125" data-name="Path 125" class="cls-2" d="M84.968,160.017H1.432A1.455,1.455,0,0,0,0,161.495v41.482a1.455,1.455,0,0,0,1.428,1.481H58.234a1.482,1.482,0,0,0,0-2.962H2.864V162.979H83.532v3.7a1.456,1.456,0,0,0,1.428,1.481h0a1.455,1.455,0,0,0,1.432-1.478V161.5A1.456,1.456,0,0,0,84.968,160.017Z" transform="translate(0 -160.017)"/>
        </g>
      </g>
      <g id="Group_3083" data-name="Group 3083" transform="translate(3.34 18.36)">
        <g id="Group_3082" data-name="Group 3082">
          <path id="Path_126" data-name="Path 126" class="cls-2" d="M87.909,71.609,21.083,56.055A1.4,1.4,0,0,0,20,56.248a1.49,1.49,0,0,0-.632.93L16.03,72.733A1.483,1.483,0,0,0,17.117,74.5a1.433,1.433,0,0,0,1.709-1.125l3.029-14.1L87.281,74.5a1.307,1.307,0,0,0,.316.036,1.487,1.487,0,0,0,.312-2.926Z" transform="translate(-15.995 -56.019)"/>
        </g>
      </g>
      <g id="Group_3085" data-name="Group 3085" transform="translate(21.692 7.982)">
        <g id="Group_3084" data-name="Group 3084" transform="translate(0 0)">
          <path id="Path_127" data-name="Path 127" class="cls-2" d="M149.322,25.379,109.227,8.1a1.416,1.416,0,0,0-1.838.707l-3.341,6.913a1.513,1.513,0,0,0,.581,2.014,1.413,1.413,0,0,0,1.947-.6q.022-.042.042-.087v0l2.742-5.676L148.216,28.12a1.419,1.419,0,0,0,1.878-.8A1.5,1.5,0,0,0,149.322,25.379Z" transform="translate(-103.875 -7.982)"/>
        </g>
      </g>
      <g id="Group_3087" data-name="Group 3087" transform="translate(53.461 47.74)">
        <g id="Group_3086" data-name="Group 3086">
          <path id="Path_128" data-name="Path 128" class="cls-2" d="M270.692,192.017h-13.26a1.482,1.482,0,0,0,0,2.962h13.26a1.482,1.482,0,0,0,0-2.962Z" transform="translate(-256 -192.017)"/>
        </g>
      </g>
      <g id="Group_3089" data-name="Group 3089" transform="translate(26.826 47.838)">
        <g id="Group_3088" data-name="Group 3088">
          <path id="Path_129" data-name="Path 129" class="cls-2" d="M143.158,192.473a15.218,15.218,0,1,0,14.7,15.209A14.962,14.962,0,0,0,143.158,192.473Zm0,27.652a12.451,12.451,0,1,1,12.029-12.444A12.241,12.241,0,0,1,143.158,220.125Z" transform="translate(-128.456 -192.473)"/>
        </g>
      </g>
      <g id="Group_3091" data-name="Group 3091" transform="translate(63.246 52.677)">
        <g id="Group_3090" data-name="Group 3090">
          <path id="Path_130" data-name="Path 130" class="cls-2" d="M321.233,214.873c-8.854,0-18.377,2.164-18.377,6.913v41.478c0,4.749,9.523,6.913,18.377,6.913s18.377-2.164,18.377-6.913V221.786C339.61,217.037,330.088,214.873,321.233,214.873Zm15.036,48.366c-.252.959-5.263,3.482-15.036,3.482S306.45,264.2,306.2,263.265v-2.717c3.555,1.853,9.427,2.717,15.036,2.717s11.482-.873,15.036-2.719Zm0-6.913c-.252.959-5.263,3.482-15.036,3.482s-14.784-2.523-15.036-3.457v-2.717c3.555,1.853,9.427,2.717,15.036,2.717s11.482-.873,15.036-2.719Zm0-6.913c-.252.959-5.263,3.482-15.036,3.482s-14.784-2.523-15.036-3.457v-2.717c3.555,1.853,9.427,2.717,15.036,2.717s11.482-.873,15.036-2.719Zm0-6.913c-.252.959-5.263,3.482-15.036,3.482s-14.784-2.523-15.036-3.457v-2.717c3.555,1.853,9.427,2.717,15.036,2.717s11.482-.873,15.036-2.719Zm0-6.913c-.252.959-5.263,3.482-15.036,3.482s-14.784-2.523-15.036-3.457V232.9c3.555,1.844,9.427,2.717,15.036,2.717s11.482-.873,15.036-2.719Zm0-6.913c-.252.959-5.263,3.482-15.036,3.482S306.45,229.632,306.2,228.7v-2.717c3.555,1.844,9.427,2.717,15.036,2.717s11.482-.873,15.036-2.719Zm-15.036-3.431c-9.758,0-14.767-2.516-15.036-3.425v-.01c.269-.963,5.278-3.477,15.036-3.477,9.69,0,14.7,2.478,15.036,3.457C335.935,222.764,330.923,225.243,321.233,225.243Z" transform="translate(-302.856 -214.873)"/>
        </g>
      </g>
      <g id="Group_3093" data-name="Group 3093" transform="translate(6.681 47.74)">
        <g id="Group_3092" data-name="Group 3092">
          <path id="Path_131" data-name="Path 131" class="cls-2" d="M53.473,219.668H40.845l-5.988-6.775V201.659l6.612-6.68h12a1.482,1.482,0,0,0,0-2.962H40.888a1.409,1.409,0,0,0-1,.42l-7.463,7.53a1.9,1.9,0,0,0-.431,1.21v12.291a1.511,1.511,0,0,0,.374,1l6.788,7.68a1.41,1.41,0,0,0,1.058.482H53.473a1.482,1.482,0,0,0,0-2.962Z" transform="translate(-31.992 -192.017)"/>
        </g>
      </g>
      <g id="Group_3095" data-name="Group 3095" transform="translate(36.515 55.27)">
        <g id="Group_3094" data-name="Group 3094">
          <path id="Path_132" data-name="Path 132" class="cls-2" d="M180.7,232.922h-1.671c-.52,0-.835-.3-.835-.432s.316-.432.835-.432h4.177a1.729,1.729,0,0,0,0-3.457h-1.671a1.672,1.672,0,1,0-3.341,0v.078a3.974,3.974,0,0,0-3.341,3.8,4.043,4.043,0,0,0,4.177,3.9H180.7c.52,0,.835.3.835.432s-.316.432-.835.432h-4.177a1.729,1.729,0,0,0,0,3.457H178.2a1.672,1.672,0,1,0,3.341,0v-.078a3.974,3.974,0,0,0,3.341-3.8A4.043,4.043,0,0,0,180.7,232.922Z" transform="translate(-174.856 -226.873)"/>
        </g>
      </g>
    </g>
  </g>
</svg>
