<?xml version="1.0" encoding="utf-8"?>
<!-- Generator: Adobe Illustrator 23.0.4, SVG Export Plug-In . SVG Version: 6.00 Build 0)  -->
<svg version="1.1" id="Layer_1" xmlns="http://www.w3.org/2000/svg" xmlns:xlink="http://www.w3.org/1999/xlink" x="0px" y="0px"
	 viewBox="0 0 100 100" style="enable-background:new 0 0 100 100;" xml:space="preserve">
<style type="text/css">
	.st0{fill:none;}
	.st1{fill:#707070;}
</style>
<rect class="st0" width="100" height="100"/>
<rect class="st0" width="100" height="100"/>
<g>
	<path class="st1" d="M97,38h-8.6h-2.3l13.8-13.8L89.6,14l-5.2,5.2L81.2,16L69.1,28.1l2.2,2.2l9.9-9.9l1,1L65.6,38H51.3H3
		c-1.7,0-3,1.3-3,3v40c0,1.7,1.3,3,3,3h94c1.7,0,3-1.3,3-3V41C100,39.3,98.7,38,97,38z M89.6,18.3l5.9,5.9l-3,3l-5.9-5.9L89.6,18.3z
		 M69.9,38l14.5-14.5l5.9,5.9L81.8,38l-3,3l-18,18l-5.9-5.9L66.9,41L69.9,38z M57.9,60.5l-6.7,2.2l2.2-6.7L57.9,60.5z M97,81H3V41
		h48.3h11.3l-5.9,5.9H29.9V50h23.8L51.6,52l-0.3,0.3l-1.1,3.4H12v3.1h37.2l-2.8,8.7l15.2-4.9l3.8-3.8H88v-3.1H68.4l5.7-5.7H88v-3.1
		H77.2l5.7-5.7l0.2-0.2h5.3H97V81z"/>
	<rect x="12" y="64.5" class="st1" width="31" height="3.1"/>
	<rect x="23.3" y="46.9" class="st1" width="3.1" height="3.1"/>
	<rect x="62" y="73.3" class="st1" width="19.2" height="3.1"/>
	<rect x="84.9" y="73.3" class="st1" width="3.1" height="3.1"/>
</g>
</svg>
