<svg xmlns="http://www.w3.org/2000/svg" xmlns:xlink="http://www.w3.org/1999/xlink" width="130" height="130" viewBox="0 0 130 130"><defs><style>.a{fill:#fff;stroke:#707070;}.b{clip-path:url(#a);}.c{fill:#dddaec;}.d{fill:#da4a54;}.e{fill:#f9f6f6;}.f{fill:#e7a561;}.g{fill:#e49542;}.h{fill:#ffe07d;}.i{fill:#ffd064;}.j{fill:#80b4fb;}</style><clipPath id="a"><rect class="a" width="130" height="130" transform="translate(1654 314)"/></clipPath></defs><g class="b" transform="translate(-1654 -314)"><g transform="translate(1654 314)"><path class="c" d="M18.823,77.718H48.574V81.64H18.823Z" transform="translate(-46.479 47.173) rotate(-45)"/><path class="c" d="M94.321,64.8h3.923V94.555H94.321Z" transform="translate(-28.146 91.433) rotate(-45)"/><path class="d" d="M26.356,21.326h-1.3a4.4,4.4,0,0,0-4.4,4.4V33.5h10.09V25.721a4.4,4.4,0,0,0-4.4-4.4Z"/><path class="e" d="M105.054,3.5h9.916V61.4h-9.916Z"/><path class="c" d="M105.054,3.5h4.958V61.4h-4.958Z"/><path class="e" d="M19.53,99.565h90.481v9.046H19.53Z"/><path class="c" d="M19.53,104.088h90.481v4.523H19.53Z"/><path class="e" d="M14.8,61.8h9.916v66.662H14.8Z"/><path class="c" d="M14.8,61.8h4.958v66.662H14.8Z"/><path class="e" d="M105.283,61.8H115.2v66.662h-9.916Z"/><path class="c" d="M105.283,61.8h4.958v66.662h-4.958Z"/><path class="f" d="M121.128,70.558H8.872a8.872,8.872,0,1,1,0-17.744H121.128a8.872,8.872,0,0,1,0,17.744Z"/><path class="g" d="M28.357,70.558H8.873a8.872,8.872,0,0,1,0-17.745H28.357a8.872,8.872,0,1,0,0,17.745Z"/><path class="h" d="M29.252,29.328H22.16a6.718,6.718,0,0,0-6.718,6.718V47.232a5.581,5.581,0,0,0,5.581,5.581h9.366a5.581,5.581,0,0,0,5.581-5.581V36.046a6.718,6.718,0,0,0-6.718-6.718Z"/><path class="i" d="M29.41,52.816H21.024a5.584,5.584,0,0,1-5.582-5.582V36.046a6.719,6.719,0,0,1,6.72-6.717h7.091c.22,0,.434.01.649.031a6.717,6.717,0,0,0-6.074,6.686V47.234A5.582,5.582,0,0,0,29.41,52.816Z"/><path class="j" d="M87.958,23.833l-3.577-3.577V3.5c0-1.083-3.924-1.083-3.924,0V20.256L76.88,23.833a7.833,7.833,0,1,0,11.078,0Zm-2.774,8.3a3.91,3.91,0,1,1-5.529-5.529l2.765-2.765,2.765,2.765a3.91,3.91,0,0,1,0,5.529Z"/><path class="c" d="M114.97,5.46h-36.2a1.962,1.962,0,1,1,0-3.923h36.2a1.962,1.962,0,1,1,0,3.923Z"/></g></g></svg>