<svg xmlns="http://www.w3.org/2000/svg" xmlns:xlink="http://www.w3.org/1999/xlink" width="130" height="130" viewBox="0 0 130 130"><defs><style>.a{fill:#fff;stroke:#707070;}.b{clip-path:url(#a);}.c{fill:#c4c2c2;}.d{fill:#f2721c;}.e{fill:#ef8032;}.f{fill:#e67323;}.g{fill:#ed4a3e;}.h{fill:#d81d3c;}.i{fill:#9b9797;}.j{fill:#a0c64e;}.k{fill:#409337;}.l{fill:#d8d7d7;}.m{fill:#848080;}.n{fill:#ea5513;}.o{fill:#ed253f;}.p{fill:#d7493c;}</style><clipPath id="a"><rect class="a" width="130" height="130" transform="translate(1654 651)"/></clipPath></defs><g class="b" transform="translate(-1654 -651)"><g transform="translate(1654 651)"><path class="c" d="M75.559,54.3a2.165,2.165,0,0,1-1.848-1.032L48.167,11.734a2.167,2.167,0,0,1,3.691-2.27L77.4,51a2.169,2.169,0,0,1-1.844,3.3"/><path class="c" d="M52.71,34.616A2.169,2.169,0,0,1,51.573,30.6l12.621-7.762a2.166,2.166,0,0,1,2.27,3.691c-13.69,8.42-12.911,8.084-13.753,8.084"/><path class="d" d="M27.683,80.919,12.38,55.944c.009-.005,18.66-11.05,18.772-11.12C53.931,30.814,49.384,33.3,53.171,30.968c.3.489,9.972,16.214,10.353,16.834,4.189,6.8.756,1.248,5.173,8.43L27.682,80.921"/><rect class="e" width="8.66" height="15.961" transform="translate(104.936 84.664) rotate(58.406)"/><rect class="f" width="6.074" height="8.66" transform="translate(101.049 97.222) rotate(148.406)"/><path class="e" d="M87.788,87.252l-4.307-7,13.6-8.361,4.307,7Z"/><rect class="f" width="6.074" height="8.222" transform="translate(92.963 84.067) rotate(148.406)"/><path class="g" d="M51.064,2.458a5.161,5.161,0,1,1-7.1-1.692,5.161,5.161,0,0,1,7.1,1.692"/><path class="h" d="M50.6,8.507A5.162,5.162,0,1,1,45.455.143,5.168,5.168,0,0,0,50.6,8.507"/><path class="i" d="M7.63,51.18,44.452,28.533a6.151,6.151,0,0,1,8.463,2.017l.79,1.286L11.643,57.706A3.076,3.076,0,0,1,7.411,56.7L6.62,55.412A3.076,3.076,0,0,1,7.63,51.18"/><rect class="j" width="13.493" height="9.576" transform="translate(83.355 55.676) rotate(58.406)"/><rect class="k" width="4.44" height="13.493" transform="translate(86.05 69.854) rotate(148.406)"/><path class="c" d="M115,109.049l8.737,19.537a1,1,0,0,1-1.686,1.037l-13.5-16.61c.06-.023,6.419-3.94,6.445-3.964"/><path class="l" d="M120.663,121.7,115,109.049c-.036.034-3.227,1.992-3.185,1.966a21.327,21.327,0,0,0,8.843,10.687"/><path class="j" d="M110.847,100.371l4.439,7.216a1.106,1.106,0,0,1-.363,1.519c-.045.028-6.313,3.887-6.363,3.906a1.1,1.1,0,0,1-1.431-.409l-4.438-7.216Z"/><path class="k" d="M111.1,111.456c-.044.027-2.494,1.539-2.543,1.556a1.1,1.1,0,0,1-1.431-.409l-4.438-7.216,2.455-1.51,4.439,7.216a1.106,1.106,0,0,0,1.519.362"/><path class="i" d="M101.478,77.613a2.383,2.383,0,0,1,3.3.7l2.339,3.8a2.383,2.383,0,0,1-.863,3.258L91.377,94.52a2.382,2.382,0,0,1-3.3-.7l-2.339-3.8a2.382,2.382,0,0,1,.863-3.258Z"/><path class="m" d="M95.231,92.152l-3.853,2.37a2.384,2.384,0,0,1-3.3-.7l-2.34-3.8a2.381,2.381,0,0,1,.864-3.256l3.853-2.37a2.381,2.381,0,0,0-.864,3.256l2.339,3.8a2.384,2.384,0,0,0,3.3.7"/><path class="i" d="M87.285,68.36l6.168-3.794a2.382,2.382,0,0,1,3.3.7l2.338,3.8a2.382,2.382,0,0,1-.864,3.258L83.353,81.474a2.384,2.384,0,0,1-3.3-.7l-2.338-3.8a2.383,2.383,0,0,1,.863-3.258Z"/><path class="m" d="M87.207,79.1l-3.853,2.37a2.383,2.383,0,0,1-3.3-.7l-2.34-3.8a2.382,2.382,0,0,1,.865-3.256l3.853-2.37a2.383,2.383,0,0,0-.864,3.257l2.339,3.8a2.385,2.385,0,0,0,3.3.7"/><path class="i" d="M109.432,90.546a2.383,2.383,0,0,1,3.3.7l2.338,3.8a2.382,2.382,0,0,1-.863,3.258l-14.873,9.148a2.383,2.383,0,0,1-3.3-.7l-2.338-3.8a2.383,2.383,0,0,1,.863-3.258Z"/><path class="m" d="M103.185,105.085l-3.853,2.369a2.384,2.384,0,0,1-3.3-.7l-2.34-3.8a2.382,2.382,0,0,1,.865-3.256l3.853-2.37a2.382,2.382,0,0,0-.864,3.256l2.34,3.8a2.384,2.384,0,0,0,3.3.7"/><path class="i" d="M26.4,81.706,74.1,52.371a6.151,6.151,0,0,1,8.463,2.017l.791,1.285L30.417,88.232a3.076,3.076,0,0,1-4.232-1.009l-.79-1.285A3.077,3.077,0,0,1,26.4,81.706"/><path class="m" d="M37.087,84.131l-6.025,3.706a3.831,3.831,0,1,1-4.014-6.526L33.073,77.6a3.831,3.831,0,0,0,4.014,6.526"/><path class="m" d="M18.312,53.6,12.287,57.31a3.83,3.83,0,1,1-4.014-6.525L14.3,47.079A3.83,3.83,0,0,0,18.312,53.6"/><rect class="n" width="6.711" height="28.175" transform="translate(33.397 77.407) rotate(148.411)"/><path class="o" d="M58.648,39.872C43.89,48.949,44.764,48.555,43.92,48.555a2.167,2.167,0,0,1-1.135-4.013l13.594-8.359Z"/><path class="o" d="M62.222,45.681c-14.846,9.131-13.832,8.683-14.729,8.683a2.164,2.164,0,0,1-1.987-1.3h0a2.172,2.172,0,0,1,.853-2.712l13.6-8.359Z"/><path class="o" d="M65.8,51.49c-14.766,9.079-13.883,8.683-14.729,8.683a2.167,2.167,0,0,1-1.138-4.012l13.6-8.36Z"/><path class="p" d="M49,53.813a2.6,2.6,0,0,1-1.508.551,2.164,2.164,0,0,1-1.988-1.3q1.729.459,3.5.749"/></g></g></svg>