<svg xmlns="http://www.w3.org/2000/svg" xmlns:xlink="http://www.w3.org/1999/xlink" width="130" height="130" viewBox="0 0 130 130"><defs><style>.a{fill:#fff;stroke:#707070;}.b{clip-path:url(#a);}.c{fill:#d9ccbc;}.d{fill:#cc7400;}.e{fill:#ee8700;}.f{fill:#ffa733;}.g{fill:#eebf00;}.h{fill:#ffcd00;}.i{fill:#ffb655;}.j{fill:#ff9811;}</style><clipPath id="a"><rect class="a" width="130" height="130" transform="translate(600 583)"/></clipPath></defs><g class="b" transform="translate(-600 -583)"><g transform="translate(600 583)"><path class="c" d="M39.44,130h0a3.765,3.765,0,0,1-3.754-3.754V44.184a3.765,3.765,0,0,1,3.754-3.754h0a3.765,3.765,0,0,1,3.754,3.754v82.062A3.766,3.766,0,0,1,39.44,130Z"/><path class="d" d="M39.44,130h0a3.765,3.765,0,0,1-3.754-3.754V110.291a3.765,3.765,0,0,1,3.754-3.754h0a3.765,3.765,0,0,1,3.754,3.754v15.955A3.766,3.766,0,0,1,39.44,130Z"/><path class="d" d="M109.706,130h0a3.765,3.765,0,0,1-3.754-3.754V110.291a3.765,3.765,0,0,1,3.754-3.754h0a3.765,3.765,0,0,1,3.754,3.754v15.955A3.766,3.766,0,0,1,109.706,130Z"/><path class="e" d="M78.133,48.126v4.4a9.458,9.458,0,0,1-9.52,9.52,9.341,9.341,0,0,1-9.14-8.812.555.555,0,0,0-1.109,0,9.337,9.337,0,0,1-18.644.01.566.566,0,0,0-1.129,0,9.336,9.336,0,0,1-18.642-.01.558.558,0,0,0-.556-.525.557.557,0,0,0-.556.525A9.339,9.339,0,0,1,9.7,62.048a9.458,9.458,0,0,1-9.52-9.52v-4.4a4.067,4.067,0,0,1,.589-2.109,3.969,3.969,0,0,1,.744-.91l35.728-39.8a2.8,2.8,0,0,1,3.771,0L76.8,45.107a4,4,0,0,1,.747.91A4.071,4.071,0,0,1,78.133,48.126Z"/><path class="f" d="M77.543,46.016a9.307,9.307,0,0,1-18.071-2.6.555.555,0,0,0-1.109,0,9.337,9.337,0,0,1-18.644.01.566.566,0,0,0-1.129,0,9.336,9.336,0,0,1-18.642-.01.558.558,0,0,0-.556-.525.557.557,0,0,0-.556.525,9.307,9.307,0,0,1-18.071,2.6,3.969,3.969,0,0,1,.744-.91l35.728-39.8a2.8,2.8,0,0,1,3.771,0L76.8,45.106A4.01,4.01,0,0,1,77.543,46.016Z"/><path class="g" d="M114.8,23.467a8.327,8.327,0,1,1-5.224-7.723A8.327,8.327,0,0,1,114.8,23.467Z"/><path class="h" d="M114.8,23.467a8.327,8.327,0,0,1-5.224,7.729,8.327,8.327,0,0,1,0-15.452A8.319,8.319,0,0,1,114.8,23.467Z"/><path class="h" d="M106.975,10.966a1.938,1.938,0,0,1-1.939-1.939V1.939a1.939,1.939,0,0,1,3.877,0V9.027A1.938,1.938,0,0,1,106.975,10.966Z"/><path class="h" d="M99.683,12.65A1.937,1.937,0,0,1,98,11.68L94.458,5.541A1.939,1.939,0,0,1,97.815,3.6l3.544,6.139a1.939,1.939,0,0,1-1.677,2.908Z"/><path class="h" d="M94.2,17.755a1.93,1.93,0,0,1-.967-.26L87.1,13.95a1.939,1.939,0,0,1,1.939-3.358l6.139,3.544a1.939,1.939,0,0,1-.971,3.618Z"/><path class="h" d="M92.016,24.913H84.927a1.939,1.939,0,1,1,0-3.877h7.089a1.939,1.939,0,1,1,0,3.877Z"/><path class="h" d="M87.562,35.752a1.939,1.939,0,0,1-.971-3.618L92.73,28.59a1.939,1.939,0,0,1,1.939,3.358L88.53,35.492A1.926,1.926,0,0,1,87.562,35.752Z"/><path class="h" d="M95.258,43.822a1.939,1.939,0,0,1-1.677-2.908l3.544-6.139a1.939,1.939,0,0,1,3.358,1.939l-3.544,6.139A1.938,1.938,0,0,1,95.258,43.822Z"/><path class="h" d="M105.963,46.961a1.938,1.938,0,0,1-1.939-1.939V37.934a1.939,1.939,0,1,1,3.877,0v7.089A1.939,1.939,0,0,1,105.963,46.961Z"/><path class="h" d="M116.8,44.328a1.937,1.937,0,0,1-1.681-.97l-3.544-6.139a1.939,1.939,0,1,1,3.358-1.939l3.544,6.139a1.939,1.939,0,0,1-1.677,2.908Z"/><path class="h" d="M124.87,36.629a1.93,1.93,0,0,1-.967-.26l-6.139-3.544a1.939,1.939,0,0,1,1.939-3.358l6.139,3.544a1.939,1.939,0,0,1-.971,3.618Z"/><path class="h" d="M128.011,25.925h-7.089a1.939,1.939,0,1,1,0-3.877h7.089a1.939,1.939,0,0,1,0,3.877Z"/><path class="h" d="M119.241,18.631a1.939,1.939,0,0,1-.971-3.618l6.139-3.544a1.939,1.939,0,1,1,1.939,3.358l-6.139,3.544A1.932,1.932,0,0,1,119.241,18.631Z"/><path class="h" d="M114.132,13.155a1.939,1.939,0,0,1-1.677-2.908L116,4.108a1.939,1.939,0,0,1,3.358,1.939l-3.544,6.139A1.938,1.938,0,0,1,114.132,13.155Z"/><path class="i" d="M127.844,107.77a5.929,5.929,0,0,1-.121,1.2,6.062,6.062,0,0,1-5.917,4.839H24.358a6.478,6.478,0,0,1-5.126-2.668L1.126,85.089A6.037,6.037,0,0,1,.05,81.656,6.034,6.034,0,0,1,11.041,78.2L27.4,101.732h94.408a6.054,6.054,0,0,1,6.038,6.038Z"/><path class="j" d="M127.722,108.97a6.062,6.062,0,0,1-5.917,4.839H24.358a6.478,6.478,0,0,1-5.126-2.668L1.126,85.089a5.953,5.953,0,0,1-.915-2.057,6.052,6.052,0,0,1,6.436,2.4L23,108.97H127.722Z"/></g></g></svg>