<svg xmlns="http://www.w3.org/2000/svg" xmlns:xlink="http://www.w3.org/1999/xlink" width="130" height="130" viewBox="0 0 130 130"><defs><style>.a{fill:#fff;stroke:#707070;}.b{clip-path:url(#a);}.c{fill:#d6e8fd;}.d{fill:#bcdefd;}.e{fill:#edf5ff;}.f{fill:#384e75;}.g{fill:#2a3860;}.h{fill:#fed943;}.i{fill:#fcbe2c;}.j{fill:#232e41;}</style><clipPath id="a"><rect class="a" width="130" height="130" transform="translate(600 269)"/></clipPath></defs><g class="b" transform="translate(-600 -269)"><g transform="translate(600 269)"><path class="c" d="M60.667,10.083h8.667v14.5H60.667Z"/><path class="d" d="M63.317,10.083h6.016v14.5H63.317Z"/><path class="e" d="M115.6,41.167H89.415V32.5H117Z"/><path class="e" d="M14.4,41.167H40.585V32.5H13Z"/><path class="f" d="M93.167,60.367V58.036A4.333,4.333,0,0,0,97.5,53.7V25.628a4.333,4.333,0,0,1,1.269-3.064l3.022-3.022a4.333,4.333,0,0,0,.812-5L98.7,6.729a4.333,4.333,0,0,0-3.876-2.4H88.833A4.333,4.333,0,0,0,84.5,8.667v8.667a4.333,4.333,0,0,1-4.333,4.333H49.833A4.333,4.333,0,0,1,45.5,17.333V8.667a4.333,4.333,0,0,0-4.333-4.333H35.178a4.333,4.333,0,0,0-3.876,2.4L27.4,14.54a4.333,4.333,0,0,0,.812,5l3.022,3.022A4.333,4.333,0,0,1,32.5,25.628V53.7a4.333,4.333,0,0,0,4.333,4.333v2.331H93.167Z"/><path class="g" d="M78,60a1.962,1.962,0,0,0,1.962-1.962V21.667H76.038V58.036A1.962,1.962,0,0,0,78,60Z"/><path class="g" d="M52,60a1.962,1.962,0,0,0,1.962-1.962V21.667H50.038V58.036A1.962,1.962,0,0,0,52,60Z"/><path class="g" d="M60.667,60a1.962,1.962,0,0,0,1.962-1.962V21.667H58.7V58.036A1.962,1.962,0,0,0,60.667,60Z"/><path class="g" d="M69.333,60a1.962,1.962,0,0,0,1.962-1.962V21.667H67.371V58.036A1.962,1.962,0,0,0,69.333,60Z"/><path class="g" d="M39.484,8.667v8.667a4.333,4.333,0,0,0,4.333,4.333h6.016A4.333,4.333,0,0,1,45.5,17.333V8.667a4.333,4.333,0,0,0-4.333-4.333h-6a4.333,4.333,0,0,1,4.322,4.333Z"/><path class="g" d="M102.6,14.54,98.7,6.729a4.333,4.333,0,0,0-3.876-2.4h-6a4.332,4.332,0,0,1,3.86,2.395l3.906,7.811a4.333,4.333,0,0,1-.812,5l-3.022,3.022a4.333,4.333,0,0,0-1.269,3.064V53.7a4.334,4.334,0,0,1-4.333,4.333h6.016A4.333,4.333,0,0,0,97.5,53.7V25.628a4.333,4.333,0,0,1,1.269-3.064l3.022-3.022a4.333,4.333,0,0,0,.812-5Z"/><path class="e" d="M99.667,62.833H110.5a2.167,2.167,0,0,0,2.167-2.167V43.333h8.667V67.167A4.333,4.333,0,0,1,117,71.5H13a4.333,4.333,0,0,1-4.333-4.333V43.333h8.667V60.667A2.166,2.166,0,0,0,19.5,62.833H99.667Z"/><path class="c" d="M13.484,62.833H19.5a2.167,2.167,0,0,1-2.167-2.167V43.333H11.317V60.667a2.167,2.167,0,0,0,2.167,2.167Z"/><path class="c" d="M115.317,43.333V67.167a4.333,4.333,0,0,1-4.333,4.333H117a4.333,4.333,0,0,0,4.333-4.333V43.333Z"/><path class="d" d="M121.333,53.962V50.038h-8.667v3.924h8.667Z"/><path class="c" d="M56.333,70.529H73.667V85.471H56.333Z"/><path class="d" d="M67.651,70.529h6.016V85.471H67.651Z"/><path class="e" d="M56.333,111.365H73.667v11.27H56.333Z"/><path class="c" d="M67.651,111.365h6.016v11.27H67.651Z"/><path class="c" d="M60.667,93.651h8.667v12.032H60.667Z"/><path class="c" d="M43.333,93.651H52v12.032H43.333Z"/><path class="c" d="M78,93.651h8.667v12.032H78Z"/><path class="d" d="M63.317,93.651h6.016v12.032H63.317Z"/><path class="d" d="M80.651,93.651h6.016v12.032H80.651Z"/><path class="d" d="M45.984,93.651H52v12.032H45.984Z"/><path class="h" d="M36.7,104H93.3a2.031,2.031,0,0,1,2.031,2.031V108.6a4.062,4.062,0,0,1-4.062,4.063H38.729a4.062,4.062,0,0,1-4.062-4.062v-2.573A2.031,2.031,0,0,1,36.7,104Z"/><path class="f" d="M88.969,95.333H41.031A2.031,2.031,0,0,1,39,93.3V84.365a2.031,2.031,0,0,1,2.031-2.031H88.969A2.031,2.031,0,0,1,91,84.365V93.3A2.031,2.031,0,0,1,88.969,95.333Z"/><path class="g" d="M97.635,73.667H32.365a2.031,2.031,0,0,1-2.031-2.031V62.1A4.062,4.062,0,0,1,34.4,58.036H95.6A4.062,4.062,0,0,1,99.667,62.1v9.537A2.031,2.031,0,0,1,97.635,73.667Z"/><path class="f" d="M73.8,13H56.2a2.031,2.031,0,0,1-2.031-2.031V2.031A2.031,2.031,0,0,1,56.2,0H73.8a2.031,2.031,0,0,1,2.031,2.031v8.938A2.031,2.031,0,0,1,73.8,13Z"/><path class="f" d="M19.635,43.333H6.365A2.031,2.031,0,0,1,4.333,41.3V34.4A4.062,4.062,0,0,1,8.4,30.333H17.6A4.062,4.062,0,0,1,21.667,34.4V41.3A2.032,2.032,0,0,1,19.635,43.333Z"/><path class="f" d="M110.365,43.333h13.271a2.031,2.031,0,0,0,2.031-2.031V34.4a4.062,4.062,0,0,0-4.062-4.062H112.4a4.062,4.062,0,0,0-4.062,4.062V41.3A2.031,2.031,0,0,0,110.365,43.333Z"/><path class="c" d="M93.3,130H36.7a2.031,2.031,0,0,1-2.031-2.031V125.4a4.062,4.062,0,0,1,4.063-4.062H91.271a4.062,4.062,0,0,1,4.063,4.063v2.573A2.031,2.031,0,0,1,93.3,130Z"/><path class="d" d="M91.148,121.333H85.132a4.185,4.185,0,0,1,4.185,4.185v2.389A2.093,2.093,0,0,1,87.225,130h6.016a2.092,2.092,0,0,0,2.092-2.092v-2.389A4.185,4.185,0,0,0,91.148,121.333Z"/><path class="i" d="M93.241,104H87.225a2.092,2.092,0,0,1,2.092,2.092v2.389a4.185,4.185,0,0,1-4.185,4.185h6.016a4.185,4.185,0,0,0,4.185-4.185v-2.389A2.092,2.092,0,0,0,93.241,104Z"/><path class="g" d="M88.908,82.333H82.892a2.092,2.092,0,0,1,2.092,2.092v8.815a2.092,2.092,0,0,1-2.092,2.092h6.016A2.092,2.092,0,0,0,91,93.241V84.426A2.093,2.093,0,0,0,88.908,82.333Z"/><path class="j" d="M95.481,58.036H89.465a4.185,4.185,0,0,1,4.185,4.185v9.353a2.093,2.093,0,0,1-2.092,2.092h6.016a2.092,2.092,0,0,0,2.092-2.092V62.221A4.185,4.185,0,0,0,95.481,58.036Z"/><path class="g" d="M73.741,0H67.725a2.092,2.092,0,0,1,2.092,2.092v8.815A2.092,2.092,0,0,1,67.725,13h6.016a2.093,2.093,0,0,0,2.093-2.092V2.092A2.093,2.093,0,0,0,73.741,0Z"/><path class="d" d="M8.667,50.038v3.924h8.667V50.038Z"/><path class="g" d="M121.481,30.333h-6.016a4.185,4.185,0,0,1,4.185,4.185v6.722a2.093,2.093,0,0,1-2.092,2.093h6.016a2.092,2.092,0,0,0,2.092-2.093V34.519a4.185,4.185,0,0,0-4.185-4.185Z"/><path class="g" d="M17.481,30.333H11.465a4.185,4.185,0,0,1,4.185,4.185v6.722a2.093,2.093,0,0,1-2.092,2.093h6.016a2.093,2.093,0,0,0,2.093-2.093V34.519a4.185,4.185,0,0,0-4.185-4.185Z"/><path class="j" d="M91,66.962A1.962,1.962,0,0,0,92.962,65V58.036H89.038V65A1.962,1.962,0,0,0,91,66.962Z"/><path class="j" d="M82.333,66.962A1.962,1.962,0,0,0,84.3,65V58.036H80.371V65A1.962,1.962,0,0,0,82.333,66.962Z"/><path class="j" d="M73.667,66.962A1.962,1.962,0,0,0,75.629,65V58.036H71.7V65A1.962,1.962,0,0,0,73.667,66.962Z"/><path class="j" d="M39,66.962A1.962,1.962,0,0,0,40.962,65V58.036H37.038V65A1.962,1.962,0,0,0,39,66.962Z"/><path class="j" d="M47.667,66.962A1.962,1.962,0,0,0,49.628,65V58.036H45.7V65A1.962,1.962,0,0,0,47.667,66.962Z"/><path class="j" d="M56.333,66.962A1.962,1.962,0,0,0,58.3,65V58.036H54.371V65A1.962,1.962,0,0,0,56.333,66.962Z"/><path class="j" d="M65,66.962A1.962,1.962,0,0,0,66.962,65V58.036H63.038V65A1.962,1.962,0,0,0,65,66.962Z"/><path class="j" d="M80.371,82.333v4.333a1.962,1.962,0,0,0,3.923,0V82.333Z"/><path class="j" d="M71.7,82.333v4.333a1.962,1.962,0,0,0,3.923,0V82.333Z"/><path class="j" d="M63.038,82.333v4.333a1.962,1.962,0,1,0,3.923,0V82.333Z"/><path class="j" d="M54.371,82.333v4.333a1.962,1.962,0,1,0,3.923,0V82.333Z"/><path class="j" d="M45.7,82.333v4.333a1.962,1.962,0,1,0,3.923,0V82.333Z"/></g></g></svg>