<svg xmlns="http://www.w3.org/2000/svg" xmlns:xlink="http://www.w3.org/1999/xlink" width="130" height="130" viewBox="0 0 130 130"><defs><style>.a{fill:#fff;stroke:#707070;}.b{clip-path:url(#a);}.c{fill:#cdbfba;}.d{fill:#f9f3f1;}.e{fill:#efe2dd;}.f{fill:#fece85;}.g{fill:#fdb441;}.h{fill:#554e56;}.i{fill:#fedba6;}</style><clipPath id="a"><rect class="a" width="130" height="130" transform="translate(457 151)"/></clipPath></defs><g class="b" transform="translate(-457 -151)"><g transform="translate(457 151)"><path class="c" d="M114.7,130H15.3a7.73,7.73,0,0,1-7.73-7.73V111.516L122.43,90.644V122.27A7.73,7.73,0,0,1,114.7,130Z"/><path class="d" d="M93.67,122.27H15.313a7.743,7.743,0,0,1-7.743-7.743V18.508a7.743,7.743,0,0,1,7.743-7.743h99.374a7.743,7.743,0,0,1,7.743,7.743v75c0,2.054-4.681,4.023-6.133,5.475L99.145,116.136C97.693,117.589,95.723,122.27,93.67,122.27Z"/><path class="e" d="M93.633,122.27A7.743,7.743,0,0,0,99.109,120l21.053-21.053a7.743,7.743,0,0,0,2.268-5.475V90.336a6.344,6.344,0,0,1-6.344,6.344h-12.9a6.344,6.344,0,0,0-6.344,6.344v12.9a6.344,6.344,0,0,1-6.344,6.344h3.137Z"/><path class="f" d="M122.429,18.494V38.382H7.571V18.494a7.732,7.732,0,0,1,7.73-7.73h99.4A7.732,7.732,0,0,1,122.429,18.494Z"/><path class="g" d="M29.453,24.256H25.66a5.883,5.883,0,0,1-5.878-5.875V10.763h3.865V18.38a2.013,2.013,0,0,0,2.012,2.01C26.727,20.39,30.52,24.256,29.453,24.256Z"/><path class="g" d="M99.66,24.256H95.865A5.882,5.882,0,0,1,89.99,18.38V10.763h3.865V18.38a2.012,2.012,0,0,0,2.01,2.01C96.934,20.39,99.66,23.189,99.66,24.256Z"/><path class="h" d="M32.352,10.764V5.877A2.014,2.014,0,0,0,30.34,3.865h-.887a2.014,2.014,0,0,0-2.012,2.012v12.5a2.014,2.014,0,0,0,2.012,2.012,1.933,1.933,0,1,1,0,3.865,5.884,5.884,0,0,1-5.877-5.877V5.877A5.884,5.884,0,0,1,29.453,0h.887a5.884,5.884,0,0,1,5.877,5.877v4.887Z"/><path class="h" d="M102.559,10.764V5.877a2.014,2.014,0,0,0-2.012-2.012H99.66a2.014,2.014,0,0,0-2.012,2.012v12.5a2.014,2.014,0,0,0,2.012,2.012,1.933,1.933,0,1,1,0,3.865,5.884,5.884,0,0,1-5.877-5.877V5.877A5.884,5.884,0,0,1,99.66,0h.887a5.884,5.884,0,0,1,5.877,5.877v4.887Z"/><path class="i" d="M30.209,62.858h-9.2a1.841,1.841,0,0,1-1.841-1.841v-9.2a1.841,1.841,0,0,1,1.841-1.841h9.2a1.841,1.841,0,0,1,1.841,1.841v9.2A1.841,1.841,0,0,1,30.209,62.858Z"/><path class="i" d="M56.471,62.858h-9.2a1.841,1.841,0,0,1-1.841-1.841v-9.2a1.841,1.841,0,0,1,1.841-1.841h9.2a1.841,1.841,0,0,1,1.841,1.841v9.2A1.841,1.841,0,0,1,56.471,62.858Z"/><path class="i" d="M82.732,62.858h-9.2a1.841,1.841,0,0,1-1.841-1.841v-9.2a1.841,1.841,0,0,1,1.841-1.841h9.2a1.841,1.841,0,0,1,1.841,1.841v9.2A1.841,1.841,0,0,1,82.732,62.858Z"/><path class="i" d="M108.994,62.858h-9.2a1.841,1.841,0,0,1-1.841-1.841v-9.2a1.841,1.841,0,0,1,1.841-1.841h9.2a1.841,1.841,0,0,1,1.841,1.841v9.2A1.841,1.841,0,0,1,108.994,62.858Z"/><path class="i" d="M30.209,86.764h-9.2a1.841,1.841,0,0,1-1.841-1.841v-9.2a1.841,1.841,0,0,1,1.841-1.841h9.2a1.841,1.841,0,0,1,1.841,1.841v9.2A1.841,1.841,0,0,1,30.209,86.764Z"/><path class="i" d="M56.471,86.764h-9.2a1.841,1.841,0,0,1-1.841-1.841v-9.2a1.841,1.841,0,0,1,1.841-1.841h9.2a1.841,1.841,0,0,1,1.841,1.841v9.2A1.841,1.841,0,0,1,56.471,86.764Z"/><path class="i" d="M82.732,86.764h-9.2a1.841,1.841,0,0,1-1.841-1.841v-9.2a1.841,1.841,0,0,1,1.841-1.841h9.2a1.841,1.841,0,0,1,1.841,1.841v9.2A1.841,1.841,0,0,1,82.732,86.764Z"/><path class="i" d="M108.994,87.338h-9.2A1.841,1.841,0,0,1,97.951,85.5v-9.2a1.841,1.841,0,0,1,1.841-1.841h9.2a1.841,1.841,0,0,1,1.841,1.841v9.2A1.841,1.841,0,0,1,108.994,87.338Z"/><path class="i" d="M30.209,110.67h-9.2a1.841,1.841,0,0,1-1.841-1.841v-9.2a1.841,1.841,0,0,1,1.841-1.841h9.2a1.841,1.841,0,0,1,1.841,1.841v9.2A1.841,1.841,0,0,1,30.209,110.67Z"/><path class="i" d="M56.471,110.67h-9.2a1.841,1.841,0,0,1-1.841-1.841v-9.2a1.841,1.841,0,0,1,1.841-1.841h9.2a1.841,1.841,0,0,1,1.841,1.841v9.2A1.841,1.841,0,0,1,56.471,110.67Z"/><path class="i" d="M82.732,110.67h-9.2a1.841,1.841,0,0,1-1.841-1.841v-9.2a1.841,1.841,0,0,1,1.841-1.841h9.2a1.841,1.841,0,0,1,1.841,1.841v9.2A1.841,1.841,0,0,1,82.732,110.67Z"/></g></g></svg>