<svg xmlns="http://www.w3.org/2000/svg" xmlns:xlink="http://www.w3.org/1999/xlink" width="130" height="130" viewBox="0 0 130 130"><defs><style>.a{fill:#fff;stroke:#707070;}.b{clip-path:url(#a);}.c{fill:#bce8f1;}.d{fill:#95dae8;}.e{fill:#607882;}.f{fill:#495959;}.g{fill:#fc9842;}.h{fill:#ffe046;}.i{fill:#7cd2e3;}.j{fill:#f0feff;}.k{fill:#def4f8;}.l{fill:#738c96;}.m{fill:#eec707;}</style><clipPath id="a"><rect class="a" width="130" height="130" transform="translate(1656 772)"/></clipPath></defs><g class="b" transform="translate(-1656 -772)"><g transform="translate(1656 787.339)"><path class="c" d="M127.715,99.322H2.285A2.285,2.285,0,0,1,0,97.037V7.647H130v89.39A2.286,2.286,0,0,1,127.715,99.322Zm0,0"/><path class="d" d="M112.221,7.647V89.462a2.388,2.388,0,0,1-2.388,2.388H0v5.083a2.388,2.388,0,0,0,2.388,2.388H127.612A2.388,2.388,0,0,0,130,96.934V7.647Zm0,0"/><path class="e" d="M130,17.146H0V2.285A2.285,2.285,0,0,1,2.285,0h125.43A2.285,2.285,0,0,1,130,2.285Zm0,0"/><path class="f" d="M127.612,0H112.221V17.146H130V2.388A2.388,2.388,0,0,0,127.612,0Zm0,0"/><path class="g" d="M15.273,8.664a3.994,3.994,0,1,1-3.994-3.994A3.994,3.994,0,0,1,15.273,8.664Zm0,0"/><path class="h" d="M26.637,8.664a3.994,3.994,0,1,1-3.994-3.994A3.994,3.994,0,0,1,26.637,8.664Zm0,0"/><path class="i" d="M38.377,8.664a3.994,3.994,0,1,1-3.994-3.994A3.994,3.994,0,0,1,38.377,8.664Zm0,0"/><path class="j" d="M93.447,36.234H35.817a4.943,4.943,0,0,1-4.943-4.943v-.445A4.943,4.943,0,0,1,35.817,25.9H93.447a4.943,4.943,0,0,1,4.943,4.943v.445A4.943,4.943,0,0,1,93.447,36.234Zm0,0"/><path class="k" d="M93.224,25.9H86.283a5.166,5.166,0,1,1,0,10.332h6.941a5.166,5.166,0,1,0,0-10.332Zm0,0"/><path class="h" d="M60.424,44.045l-23.08,34.9a4.67,4.67,0,0,0,3.895,7.246H88.761a4.67,4.67,0,0,0,3.895-7.246l-23.08-34.9A5.487,5.487,0,0,0,60.424,44.045Zm0,0"/><path class="i" d="M21.582,30.139H8.469a1.99,1.99,0,0,1,0-3.98H21.582a1.99,1.99,0,1,1,0,3.98Zm0,0"/><path class="i" d="M21.582,35.888H8.469a1.99,1.99,0,0,1,0-3.98H21.582a1.99,1.99,0,1,1,0,3.98Zm0,0"/><path class="i" d="M21.582,41.638H8.469a1.99,1.99,0,0,1,0-3.98H21.582a1.99,1.99,0,1,1,0,3.98Zm0,0"/><path class="l" d="M64.632,69.809a3.981,3.981,0,0,1-3.98-3.98V55.3a3.98,3.98,0,0,1,7.96,0V65.829A3.981,3.981,0,0,1,64.632,69.809Zm0,0"/><path class="l" d="M68.546,77.148a3.914,3.914,0,1,1-3.914-3.914A3.913,3.913,0,0,1,68.546,77.148Zm0,0"/><path class="m" d="M92.44,78.618,69.783,44.357a5.733,5.733,0,0,0-9.565,0l-1.762,2.665,20.895,31.6a4.88,4.88,0,0,1-4.07,7.573h13.09A4.88,4.88,0,0,0,92.44,78.618Zm0,0"/><path class="e" d="M68.612,62.382V55.3a3.975,3.975,0,0,0-6.639-2.956Zm0,0"/></g></g></svg>