<svg xmlns="http://www.w3.org/2000/svg" xmlns:xlink="http://www.w3.org/1999/xlink" width="130" height="130" viewBox="0 0 130 130"><defs><style>.a{fill:#fff;stroke:#707070;}.b{clip-path:url(#a);}.c{fill:#e8679c;}.d{fill:#ff7bac;}.e{fill:#ffb125;}.f{fill:#ff901d;}.g{fill:#dd7219;}</style><clipPath id="a"><rect class="a" width="130" height="130" transform="translate(1333 151)"/></clipPath></defs><g class="b" transform="translate(-1333 -151)"><g transform="translate(1333 151)"><path class="c" d="M2.358,81.879c-.15,0-.294,0-.432-.01a2.01,2.01,0,0,1-1.926-2v-.009a2.016,2.016,0,0,1,1.965-2.006,9.421,9.421,0,0,0,7.173-3.8q.2-.257.375-.512c-4.125-.886-6.61-2.3-7.577-4.288-.573-1.181-.871-3.1.96-5.516a5.306,5.306,0,0,1,5-2.225A7.864,7.864,0,0,1,13.722,66.6a9.557,9.557,0,0,1,.7,3.83c1.157.12,2.333.2,3.47.22a1.972,1.972,0,0,1,1.959,1.9A1.919,1.919,0,0,1,17.9,74.5c-.1,0-1.956-.041-4.354-.312a10.954,10.954,0,0,1-1.4,2.264C8.5,81.009,4.717,81.879,2.358,81.879ZM7.191,65.3a1.531,1.531,0,0,0-1.233.75c-.3.393-.766,1.113-.567,1.523.448.924,2.513,1.718,5.171,2.27a5.83,5.83,0,0,0-.4-1.811,4.185,4.185,0,0,0-2.775-2.718A1.417,1.417,0,0,0,7.191,65.3Z"/><path class="d" d="M126.295,70.907l-5.4-1.731a4.175,4.175,0,0,1-2.7-2.73c-6.218-19.773-29.308-28.853-52.549-28.853C38.447,37.593,16.4,50.018,16.4,77.458c0,15.814,7.757,26.891,19.74,33.288a1.106,1.106,0,0,1,.568.765L39.4,125.456a2.782,2.782,0,0,0,2.734,2.265H51.2a2.783,2.783,0,0,0,2.734-2.265L55.4,117.7a1.106,1.106,0,0,1,1.22-.89,78.282,78.282,0,0,0,9.02.51,82.155,82.155,0,0,0,12.247-.911,1.107,1.107,0,0,1,1.257.885l1.545,8.159a2.782,2.782,0,0,0,2.734,2.265h9.066a2.783,2.783,0,0,0,2.734-2.265l2.789-14.765a1.1,1.1,0,0,1,.578-.774c7.117-3.7,13-8.791,16.759-15.28a4.017,4.017,0,0,1,2.243-1.829L126.3,90.02a5.331,5.331,0,0,0,3.7-5.076v-8.96A5.332,5.332,0,0,0,126.295,70.907Z"/><path class="c" d="M129.321,73.388a5.337,5.337,0,0,0-.863-1.153l-.021-.023a5.32,5.32,0,0,0-2.142-1.306l-4.006-1.283v4.712a13.662,13.662,0,0,1-9.274,12.938h0a12.83,12.83,0,0,0-6.3,4.516,38.337,38.337,0,0,1-6.9,6.97,15.462,15.462,0,0,0-5.766,9.793c-.425,2.77-.753,5.725-.963,7.819a3.15,3.15,0,0,1-3.134,2.837H83.42a2.783,2.783,0,0,1-2.734-2.265l-1.545-8.159a1.107,1.107,0,0,0-1.257-.885,82.151,82.151,0,0,1-12.247.911,78.279,78.279,0,0,1-9.02-.51,1.107,1.107,0,0,0-1.22.89l-1.468,7.753a2.782,2.782,0,0,1-2.734,2.265H42.131a2.783,2.783,0,0,1-2.734-2.265L36.712,103a1.106,1.106,0,0,0-.568-.765C25.255,96.423,17.857,86.745,16.6,73.16h0q-.045.5-.079,1.007c0,.007,0,.013,0,.02,0,.033,0,.067-.006.1q-.03.456-.052.918c-.006.128-.01.257-.015.385-.009.235-.018.469-.024.706-.009.384-.015.771-.015,1.161a44.652,44.652,0,0,0,.357,5.709,38.541,38.541,0,0,0,1.369,6.388c.034.11.069.22.1.33q.129.407.268.811c.037.107.073.215.111.322q.382,1.078.826,2.112c.031.073.063.147.094.219q.219.5.451.99c.026.054.053.107.078.161q.217.451.448.895l.078.153q.251.477.515.943l.116.2a33.738,33.738,0,0,0,1.849,2.866c.063.088.128.175.192.262q.241.328.489.65c.065.085.13.169.2.253.224.285.451.567.683.844l.006.008c.233.278.472.55.713.82.073.082.148.163.222.244q.27.3.548.588c.075.078.149.157.224.234q.38.391.771.772l0,0q.437.424.89.833.9.82,1.868,1.584t1.983,1.474q.51.355,1.033.7.471.307.954.6l.279.169q.364.22.732.432l.292.168q.5.281,1,.552a1.065,1.065,0,0,1,.354.3c.013.017.025.035.037.053a1.089,1.089,0,0,1,.082.14c.01.02.02.039.028.059a1.088,1.088,0,0,1,.067.213L39.4,125.458a2.773,2.773,0,0,0,.134.475q.043.114.1.222t.114.211q.061.1.131.2t.148.187c.059.068.121.133.186.194l.063.057c.047.042.094.083.144.122l.075.057q.076.056.156.106l.072.045c.077.046.156.089.237.127l0,0c.082.038.166.071.251.1l.082.026c.061.019.122.037.185.052l.095.021c.063.013.127.023.192.032l.087.012c.093.009.187.015.282.016H51.2a2.781,2.781,0,0,0,2.734-2.265L55.4,117.7h0a1.1,1.1,0,0,1,.054-.185c.007-.018.014-.034.022-.052a1.1,1.1,0,0,1,.063-.123c.009-.016.018-.031.028-.047a1.1,1.1,0,0,1,.113-.144,1.108,1.108,0,0,1,.411-.269l.045-.017a1.138,1.138,0,0,1,.113-.032c.029-.007.059-.011.09-.015s.058-.009.087-.011a1.087,1.087,0,0,1,.192,0c.487.057.978.107,1.47.154l.37.035c.492.045.986.087,1.483.122h.007c.5.035,1,.064,1.5.09l.379.019c.5.024,1.008.044,1.515.058q1.142.032,2.3.032,1.544,0,3.086-.057.789-.029,1.577-.074l.16-.01q.715-.042,1.429-.094l.033,0q1.565-.119,3.117-.3h.009q.71-.081,1.417-.174c.228-.03.454-.064.681-.1.25-.035.5-.068.75-.106a1.1,1.1,0,0,1,1.174.66c0,.006.006.011.009.017a1.118,1.118,0,0,1,.062.21l.772,4.08.772,4.08a2.782,2.782,0,0,0,2.734,2.265h9.068a2.722,2.722,0,0,0,.282-.016l.087-.012c.064-.009.128-.019.192-.032l.095-.021q.094-.023.185-.052l.082-.026c.086-.03.17-.063.252-.1h0c.082-.038.161-.082.238-.127l.072-.045c.053-.034.105-.069.156-.106l.075-.057c.05-.039.1-.08.144-.122.021-.019.042-.037.063-.057.065-.062.127-.126.186-.194.023-.027.043-.055.065-.083a2.655,2.655,0,0,0,.423-.737,2.8,2.8,0,0,0,.134-.475l.611-3.236.635-3.362.4-2.109,1.144-6.059h0l.1-.543.451-.224a.018.018,0,0,0,.015,0l.009-.006c.218-.113.43-.232.645-.347s.452-.239.675-.363c.193-.107.381-.22.572-.329.24-.138.482-.273.719-.414.195-.116.385-.237.578-.356.227-.14.457-.277.681-.42.2-.128.4-.262.595-.392s.424-.275.631-.416.387-.273.58-.409.411-.285.612-.432.369-.279.554-.418c.2-.152.405-.3.6-.456.179-.14.352-.285.529-.428.2-.159.4-.316.591-.478.178-.149.35-.3.525-.456s.374-.319.556-.483.333-.311.5-.466.365-.334.542-.506c.162-.157.317-.318.476-.478.175-.176.354-.349.525-.527.156-.163.306-.331.459-.5.167-.181.337-.359.5-.542.149-.167.291-.34.436-.51.16-.187.323-.371.479-.561.142-.172.277-.35.415-.525.152-.192.308-.382.456-.578.136-.18.265-.365.4-.547s.289-.39.427-.589.251-.378.377-.566.271-.4.4-.6c.161-.253.308-.515.468-.767.1-.15.185-.3.274-.457a3.927,3.927,0,0,1,2.191-1.782l.031-.01h0l4.441-1.423,4.264-1.366a5.331,5.331,0,0,0,3.7-5.076v-8.96a5.311,5.311,0,0,0-.5-2.237C129.446,73.624,129.386,73.505,129.321,73.388Z"/><path class="c" d="M86.756,42.433a4.232,4.232,0,0,1,2.4-2.954c4.673-2.139,16.578-7.286,19.639-5.683,3.833,2.008,1.825,23.681-4.015,26.989C99.136,63.98,82.767,61.365,86.756,42.433Z"/><path class="c" d="M104.5,76.962a6.284,6.284,0,0,1-6.277-6.277,1.92,1.92,0,1,1,3.84,0,2.438,2.438,0,0,0,4.875,0,1.92,1.92,0,0,1,3.84,0A6.284,6.284,0,0,1,104.5,76.962Z"/><path class="c" d="M76.281,53.567a1.916,1.916,0,0,1-.609-.1,51.521,51.521,0,0,0-32.473,0,1.92,1.92,0,0,1-1.217-3.642,55.383,55.383,0,0,1,34.908,0,1.92,1.92,0,0,1-.609,3.741Z"/><circle class="e" cx="24.283" cy="24.283" r="24.283" transform="translate(35.153 2.278)"/><path class="d" d="M107.168,36.307c-2.665,0-9.119,2.2-16.842,5.732a1.418,1.418,0,0,0-.814.974c-1.126,5.342-.524,9.641,1.741,12.432a8.684,8.684,0,0,0,.868.921.654.654,0,0,0,1.073-.332C95.878,45.4,108.9,36.307,107.168,36.307Z"/><path class="f" d="M76.9,9.7,42.57,44.031A24.282,24.282,0,0,0,76.9,9.7Z"/><path class="g" d="M58.886,38.328c-4.136-.067-6.937-2.3-6.937-3.936,0-.8.7-1.9,1.534-1.9,1.1,0,2,2.335,5.4,2.6V27.255c-3-1.067-6.337-2.268-6.337-6.537,0-4.2,3.168-5.87,6.337-6.2v-.967a.88.88,0,0,1,.967-.767c.5,0,1,.367,1,.767v.9c2.268.067,5.47.767,5.47,2.4,0,.634-.467,1.9-1.468,1.9-.8,0-1.668-1.067-4-1.234v6.77c2.9,1.067,6.07,2.535,6.07,7.071,0,4.1-2.468,6.37-6.07,6.871v1.134c0,.4-.5.767-1,.767a.88.88,0,0,1-.967-.767V38.328Zm.2-14.675v-6.07c-1.868.233-3.2,1.067-3.2,2.8C55.884,22.285,57.318,22.986,59.086,23.653Zm1.568,4.336v7.037a3.172,3.172,0,0,0,2.935-3.3C63.588,29.623,62.288,28.689,60.653,27.989Z"/></g></g></svg>