<svg height="512pt" viewBox="0 -10 512 512" width="512pt" xmlns="http://www.w3.org/2000/svg"><path d="m457.773438 405.96875c0 44.503906-5.824219 93.332031-69.5625 85.65625-40.550782-4.886719-40.085938-35.628906-132.214844-35.628906-92.210938 0-91.246094 30.695312-132.214844 35.628906-63.730469 7.675781-69.554688-41.152344-69.554688-85.65625 0-95.394531 90.625-80.082031 90.625-156.734375 0-38.328125 55.574219-66.253906 111.148438-66.253906s111.140625 27.925781 111.140625 66.253906c0 76.652344 90.632813 61.339844 90.632813 156.734375zm0 0" fill="#bf6024"/><path d="m367.140625 249.234375c0-38.328125-55.566406-66.253906-111.140625-66.253906-5.167969 0-10.332031.242187-15.453125.710937 49.972656 4.574219 100.988281 31.125 100.988281 65.890625 0 76.652344 85.332032 79.488281 85.332032 156.386719 0 37.148438-4.066407 77.304688-42.480469 85.097656 1.234375.210938 2.507812.398438 3.824219.558594 63.738281 7.675781 69.5625-41.152344 69.5625-85.65625 0-95.394531-90.632813-80.082031-90.632813-156.734375zm0 0" fill="#a34a18"/><path d="m113.636719 193.351562c0 41.582032-19.550781 84.003907-50.933594 84.003907-31.378906 0-62.703125-42.421875-62.703125-84.003907 0-41.582031 33.234375-76.09375 64.613281-76.09375 31.382813 0 49.023438 34.511719 49.023438 76.09375zm0 0" fill="#bf6024"/><path d="m64.613281 117.257812c-5.359375 0-10.769531 1.027344-16.058593 2.902344 22.035156 9.113282 34.175781 38.710938 34.175781 73.191406 0 34.480469-13.445313 69.542969-35.933594 80.507813 5.199219 2.257813 10.550781 3.496094 15.910156 3.496094 31.378907 0 50.929688-42.421875 50.929688-84.003907 0-41.578124-17.644531-76.09375-49.023438-76.09375zm0 0" fill="#a34a18"/><path d="m398.363281 193.351562c0 41.582032 19.550781 84.003907 50.933594 84.003907 31.378906 0 62.703125-42.421875 62.703125-84.003907 0-41.582031-33.234375-76.09375-64.613281-76.09375-31.382813 0-49.023438 34.511719-49.023438 76.09375zm0 0" fill="#bf6024"/><path d="m447.386719 117.257812c-5.359375 0-10.308594 1.027344-14.84375 2.902344 25.695312 9.113282 48.550781 38.710938 48.550781 73.191406 0 34.480469-21.542969 69.542969-46.796875 80.507813 4.628906 2.257813 9.640625 3.496094 14.996094 3.496094 31.378906 0 62.707031-42.421875 62.707031-84.003907 0-41.578124-33.234375-76.09375-64.613281-76.09375zm0 0" fill="#a34a18"/><path d="m239.460938 76.09375c0 41.582031-19.550782 84.003906-50.933594 84.003906-31.378906 0-62.703125-42.421875-62.703125-84.003906 0-41.578125 33.234375-76.09375 64.613281-76.09375s49.023438 34.515625 49.023438 76.09375zm0 0" fill="#bf6024"/><path d="m190.4375 0c-5.359375 0-10.769531 1.027344-16.0625 2.90625 22.039062 9.109375 34.179688 38.710938 34.179688 73.1875 0 34.484375-13.449219 69.542969-35.933594 80.507812 5.199218 2.257813 10.550781 3.496094 15.910156 3.496094 31.378906 0 50.929688-42.421875 50.929688-84 0-41.582031-17.644532-76.097656-49.023438-76.097656zm0 0" fill="#a34a18"/><path d="m272.539062 76.09375c0 41.582031 19.550782 84.003906 50.933594 84.003906 31.378906 0 62.703125-42.421875 62.703125-84.003906 0-41.578125-33.234375-76.09375-64.613281-76.09375s-49.023438 34.515625-49.023438 76.09375zm0 0" fill="#bf6024"/><path d="m321.5625 0c-5.359375 0-10.304688 1.027344-14.84375 2.90625 25.695312 9.109375 48.550781 38.710938 48.550781 73.1875 0 34.484375-21.542969 69.542969-46.792969 80.507812 4.628907 2.257813 9.636719 3.496094 14.996094 3.496094 31.378906 0 62.703125-42.421875 62.703125-84 0-41.582031-33.234375-76.097656-64.613281-76.097656zm0 0" fill="#a34a18"/></svg>