<svg xmlns="http://www.w3.org/2000/svg" xmlns:xlink="http://www.w3.org/1999/xlink" width="130" height="130" viewBox="0 0 130 130"><defs><style>.a{fill:#fff;stroke:#707070;}.b{clip-path:url(#a);}.c{fill:#ffe07d;}.d{fill:#ffd064;}.e{fill:#f0f7ff;}.f{fill:#e0f2ff;}.g{fill:#e28086;}</style><clipPath id="a"><rect class="a" width="130" height="130" transform="translate(768 688)"/></clipPath></defs><g class="b" transform="translate(-768 -688)"><g transform="translate(768 688)"><path class="c" d="M92.03,18.669H12.046A12.046,12.046,0,0,0,0,30.715V84.259A12.046,12.046,0,0,0,12.046,96.305h5.076a4.376,4.376,0,0,1,3.787,2.183L29.022,112.5a2.276,2.276,0,0,0,1.969-1.135l7.456-12.873a4.376,4.376,0,0,1,3.787-2.183h49.8a12.046,12.046,0,0,0,12.046-12.046V30.715A12.046,12.046,0,0,0,92.03,18.669Z"/><path class="d" d="M37.136,98.488,29.023,112.5l5.252,9.067a3.5,3.5,0,0,0,6.058,0L53.7,98.488a4.376,4.376,0,0,1,3.787-2.183H40.923a4.376,4.376,0,0,0-3.787,2.183Z"/><path class="d" d="M107.279,18.669H90.718a12.046,12.046,0,0,1,12.046,12.046V84.259A12.046,12.046,0,0,1,90.718,96.305h16.561a12.046,12.046,0,0,0,12.046-12.046V30.715a12.046,12.046,0,0,0-12.046-12.046Z"/><path class="e" d="M115.064,35.164A25.232,25.232,0,0,0,94.1,10.3a2.679,2.679,0,0,0-1.92.4,24.415,24.415,0,0,0,10.887,44.689,4.062,4.062,0,0,0,3.029-.94,25.17,25.17,0,0,0,8.968-19.285Z"/><path class="f" d="M105.587,6.692a24.3,24.3,0,0,0-13.5,4.072,24.415,24.415,0,0,1,10.833,44.609,24.414,24.414,0,1,0,2.67-48.682Z"/><path class="e" d="M104.273,77.433H15.051a1.962,1.962,0,0,1,0-3.923h89.222a1.962,1.962,0,0,1,0,3.923Z"/><path class="e" d="M69.346,59.171h-54.3a1.962,1.962,0,0,1,0-3.923h54.3a1.962,1.962,0,1,1,0,3.923Z"/><path class="e" d="M69.346,40.908h-54.3a1.962,1.962,0,0,1,0-3.923h54.3a1.962,1.962,0,1,1,0,3.923Z"/><path class="g" d="M105.611,39.6a1.962,1.962,0,0,1-1.962-1.962v-21.4a1.962,1.962,0,0,1,3.923,0v21.4a1.962,1.962,0,0,1-1.962,1.962Z"/><path class="g" d="M107.843,44.626a2.256,2.256,0,1,1-2.256-2.256A2.256,2.256,0,0,1,107.843,44.626Z"/></g></g></svg>