<svg xmlns="http://www.w3.org/2000/svg" xmlns:xlink="http://www.w3.org/1999/xlink" width="130" height="130" viewBox="0 0 130 130"><defs><style>.a{fill:#fff;stroke:#707070;}.b{clip-path:url(#a);}.c{fill:#6b61b1;}.d{fill:#5e54ac;}.e{fill:#e49542;}.f{fill:#e27d47;}.g{fill:#f0f7ff;}</style><clipPath id="a"><rect class="a" width="130" height="130" transform="translate(1060 688)"/></clipPath></defs><g class="b" transform="translate(-1060 -688)"><g transform="translate(1060 688)"><path class="c" d="M57.506,7.877H8.225A8.225,8.225,0,0,0,0,16.1V57a8.224,8.224,0,0,0,8.118,8.222v0l2.292,1.3H23.486l3.068-1.3H57.5A8.225,8.225,0,0,0,65.73,57V16.1a8.225,8.225,0,0,0-8.224-8.225Z"/><path class="d" d="M73.267,7.877H56.775A8.225,8.225,0,0,1,65,16.1V57a8.225,8.225,0,0,1-8.225,8.225H73.267A8.225,8.225,0,0,0,81.492,57V16.1a8.225,8.225,0,0,0-8.225-8.225Z"/><path class="d" d="M8.118,84.333a1.264,1.264,0,0,0,2.255.783L25.1,66.478a3.291,3.291,0,0,1,2.583-1.251H8.118Z"/><path class="e" d="M101.171,100.157l2.954,3.741a1.036,1.036,0,0,0,.985-.907,6.683,6.683,0,0,1,3.826-5.167,9.446,9.446,0,0,0,5.43-8.552V42.29a9.448,9.448,0,0,0-9.448-9.448H45.835a9.448,9.448,0,0,0-9.448,9.448V89.272a9.448,9.448,0,0,0,9.448,9.448H98.2a3.781,3.781,0,0,1,2.967,1.437Z"/><path class="f" d="M120.551,32.841H104a9.448,9.448,0,0,1,9.448,9.448V89.272a9.446,9.446,0,0,1-5.43,8.552,6.725,6.725,0,0,0-3.9,6.074l13.957,17.67a1.452,1.452,0,0,0,2.591-.9V98.717A9.447,9.447,0,0,0,130,89.271V42.29a9.449,9.449,0,0,0-9.449-9.448Z"/><path class="g" d="M114.32,51.96H52.067a1.962,1.962,0,1,1,0-3.923H114.32a1.962,1.962,0,1,1,0,3.923Z"/><path class="g" d="M114.32,66.956H52.067a1.962,1.962,0,1,1,0-3.923H114.32a1.962,1.962,0,1,1,0,3.923Z"/><path class="g" d="M114.32,81.953H52.067a1.962,1.962,0,0,1,0-3.923H114.32a1.962,1.962,0,0,1,0,3.923Z"/></g></g></svg>