<svg xmlns="http://www.w3.org/2000/svg" xmlns:xlink="http://www.w3.org/1999/xlink" width="130" height="130" viewBox="0 0 130 130"><defs><style>.a{fill:#fff;stroke:#707070;}.b{clip-path:url(#a);}.c{fill:#e4e3e1;}.d{fill:#d1d0cf;}.e{fill:#c1c1c1;}.f{fill:#72bdf6;}.g{fill:#4b98d4;}.h{fill:#525468;}.i{fill:#3e4151;}.j{fill:#353744;}</style><clipPath id="a"><rect class="a" width="130" height="130" transform="translate(184 536)"/></clipPath></defs><g class="b" transform="translate(-184 -536)"><g transform="translate(184 548.082)"><path class="c" d="M109.285,37.485H3.8a3.8,3.8,0,0,0-3.8,3.8V101.91a3.8,3.8,0,0,0,3.8,3.8H109.285a3.8,3.8,0,0,0,3.8-3.8V41.283A3.8,3.8,0,0,0,109.285,37.485Zm0,0"/><path class="d" d="M102.438,81.984H46.908a.787.787,0,0,0-.787.788v5.659a.787.787,0,0,0,.787.788h55.53a.788.788,0,0,0,.788-.788V82.771A.788.788,0,0,0,102.438,81.984Zm0,0"/><path class="d" d="M102.438,53.975H46.908a.787.787,0,0,0-.787.788v5.66a.787.787,0,0,0,.787.788h55.53a.788.788,0,0,0,.788-.788v-5.66A.788.788,0,0,0,102.438,53.975Zm0,0"/><path class="d" d="M102.438,67.979H46.908a.787.787,0,0,0-.787.788v5.66a.787.787,0,0,0,.787.787h55.53a.788.788,0,0,0,.788-.787v-5.66A.788.788,0,0,0,102.438,67.979Zm0,0"/><path class="d" d="M5.154,101.91V41.283a3.8,3.8,0,0,1,3.8-3.8H3.8a3.8,3.8,0,0,0-3.8,3.8V101.91a3.8,3.8,0,0,0,3.8,3.8H8.953A3.8,3.8,0,0,1,5.154,101.91Zm0,0"/><path class="e" d="M51.275,88.431V82.771a.788.788,0,0,1,.788-.788H46.908a.787.787,0,0,0-.787.788v5.659a.787.787,0,0,0,.787.788h5.154A.788.788,0,0,1,51.275,88.431Zm0,0"/><path class="e" d="M51.275,60.423v-5.66a.788.788,0,0,1,.788-.788H46.908a.787.787,0,0,0-.787.788v5.66a.787.787,0,0,0,.787.788h5.154A.788.788,0,0,1,51.275,60.423Zm0,0"/><path class="e" d="M51.275,74.427v-5.66a.788.788,0,0,1,.788-.788H46.908a.787.787,0,0,0-.787.788v5.66a.787.787,0,0,0,.787.787h5.154A.788.788,0,0,1,51.275,74.427Zm0,0"/><path class="d" d="M34.515,55.908H11.268a1.933,1.933,0,1,1,0-3.865H34.515a1.933,1.933,0,1,1,0,3.865Zm0,0"/><path class="d" d="M34.515,64.719H11.268a1.933,1.933,0,0,1,0-3.866H34.515a1.933,1.933,0,1,1,0,3.866Zm0,0"/><path class="d" d="M34.515,73.53H11.268a1.933,1.933,0,1,1,0-3.865H34.515a1.933,1.933,0,1,1,0,3.865Zm0,0"/><path class="d" d="M34.515,82.34H11.268a1.933,1.933,0,1,1,0-3.865H34.515a1.933,1.933,0,1,1,0,3.865Zm0,0"/><path class="d" d="M34.515,91.151H11.268a1.933,1.933,0,1,1,0-3.865H34.515a1.933,1.933,0,1,1,0,3.865Zm0,0"/><path class="f" d="M126.617,1.337a4.13,4.13,0,0,0-5.842,0l-1.909,1.909,5.841,5.842,1.91-1.91A4.13,4.13,0,0,0,126.617,1.337Zm0,0"/><path class="g" d="M127.815,4.022a4.125,4.125,0,0,0-7.04-2.685l-1.909,1.909L122.75,7.13l1.909-1.909A4.119,4.119,0,0,1,127.815,4.022Zm0,0"/><path class="h" d="M97.711,24.4l5.842,5.842L68.125,65.667l-5.841-5.841Zm0,0"/><path class="i" d="M62.283,59.828,97.711,24.4l3.884,3.884L66.167,63.712Zm0,0"/><path class="i" d="M129.4,15.844l-5.478-5.479A2.06,2.06,0,1,0,121,13.278l4.022,4.022L110.681,31.646a2.06,2.06,0,1,0,2.913,2.913l15.8-15.8A2.059,2.059,0,0,0,129.4,15.844Zm0,0"/><path class="i" d="M62.284,59.828,56.5,70.033a1.042,1.042,0,0,0,1.421,1.421l10.206-5.786Zm0,0"/><path class="j" d="M66.168,63.712l-3.884-3.884L56.5,70.033a1.042,1.042,0,0,0,1.421,1.421l5.686-3.223Zm0,0"/><path class="i" d="M102.673,31.755,96.2,25.279a1.818,1.818,0,0,1,0-2.573l20.36-20.36a1.818,1.818,0,0,1,2.573,0l6.476,6.476a1.818,1.818,0,0,1,0,2.573l-20.359,20.36A1.819,1.819,0,0,1,102.673,31.755Zm0,0"/><path class="j" d="M100.187,26.486l20.15-20.15a1.968,1.968,0,0,1,2.783,0l-3.884-3.884a1.968,1.968,0,0,0-2.783,0L96.3,22.6a1.968,1.968,0,0,0,0,2.783l3.885,3.884A1.967,1.967,0,0,1,100.187,26.486Zm0,0"/></g></g></svg>