<svg id="outline-textsms-24px" xmlns="http://www.w3.org/2000/svg" width="200" height="200" viewBox="0 0 200 200">
  <path id="Path_284" data-name="Path 284" d="M0,0H200V200H0Z" fill="none"/>
  <path id="Path_285" data-name="Path 285" d="M152.241,2H18.693A16.743,16.743,0,0,0,2,18.693V168.934l33.387-33.387H152.241a16.743,16.743,0,0,0,16.693-16.693V18.693A16.743,16.743,0,0,0,152.241,2Zm0,116.854H35.387L18.693,135.547V18.693H152.241ZM43.734,60.427H60.427V77.12H43.734Zm33.387,0H93.814V77.12H77.12Zm33.387,0H127.2V77.12H110.507Z" transform="translate(14.533 14.533)" fill="#656565"/>
</svg>
