<svg xmlns="http://www.w3.org/2000/svg" xmlns:xlink="http://www.w3.org/1999/xlink" width="130" height="130" viewBox="0 0 130 130"><defs><style>.a,.l{fill:#fff;}.a{stroke:#707070;}.b{clip-path:url(#a);}.c{fill:#ffe958;}.d{fill:#ffc964;}.e{fill:#fff8a9;}.f{fill:#ffba41;}.g{fill:#e5f4ff;}.h{fill:#c4daec;}.i{fill:#628db2;}.j{fill:#ff95c2;}.k{fill:#6464ff;}</style><clipPath id="a"><rect class="a" width="130" height="130" transform="translate(1041 151)"/></clipPath></defs><g class="b" transform="translate(-1041 -151)"><g transform="translate(1041 151.16)"><path class="c" d="M130,53V121.3a8.388,8.388,0,0,1-8.391,8.383H8.393A8.388,8.388,0,0,1,0,121.3V53a8.3,8.3,0,0,1,.588-3.083,8.4,8.4,0,0,1,7.8-5.3H121.609a8.575,8.575,0,0,1,1.567.147,8.394,8.394,0,0,1,6.237,5.154A8.3,8.3,0,0,1,130,53Zm0,0"/><path class="d" d="M129.412,49.924,114.237,60.857l-8.123,5.851L66.35,95.353a2.338,2.338,0,0,1-2.733,0L.588,49.921a8.4,8.4,0,0,1,7.8-5.3H121.609a8.575,8.575,0,0,1,1.567.147A8.39,8.39,0,0,1,129.412,49.924Zm0,0"/><path class="e" d="M64.983,110.735a2.141,2.141,0,0,1-1.256-.406L48.791,99.554a2.146,2.146,0,0,1,2.51-3.48l13.683,9.872L78.7,96.073a2.145,2.145,0,0,1,2.506,3.482L66.237,110.33A2.143,2.143,0,0,1,64.983,110.735Zm0,0"/><path class="f" d="M114.83,44.624v13a9.088,9.088,0,0,1-8.716,9.081c-.04,0-.078,0-.118,0l-1.273,0h-.134a9.1,9.1,0,0,1-8.144-5.053c-.459-.271-.92-.541-1.383-.8-.341-.2-.687-.394-1.038-.587-1.084-.607-2.189-1.2-3.288-1.766-1.979-1.023-4.014-2-6.05-2.9-1.756-.782-3.555-1.526-5.347-2.214-1.509-.58-3.051-1.136-4.583-1.653-1.449-.485-2.926-.949-4.39-1.375-.7-.2-1.406-.4-2.112-.6-.347-.1-.69-.186-1.034-.276-.48-.126-.962-.247-1.445-.368a5.813,5.813,0,0,1-2.988.821h-.014V79.71a5.667,5.667,0,0,1-5.659,5.659H55.173A11.725,11.725,0,0,1,43.461,74.25L42.17,49.432A9.163,9.163,0,0,1,36.9,44.623H114.83Zm0,0"/><path class="g" d="M100.748,58.128A119.272,119.272,0,0,0,63.389,43.19c0-.833-.982-1.666-.982-2.5V20.5c0-.739.982-1.477.982-2.216a118.315,118.315,0,0,0,17.925-5.321,118.265,118.265,0,0,0,19.434-9.618c0,.836,3.018,1.672,3.018,2.508V55C103.766,56.045,100.748,57.086,100.748,58.128Zm0,0"/><path class="h" d="M43.267,36.987H35.8a1.453,1.453,0,0,1-1.453-1.454v-9.6A1.453,1.453,0,0,1,35.8,24.482h7.463Zm0,0"/><path class="i" d="M57.113,80.122h-1.94A6.479,6.479,0,0,1,48.7,73.979L47.18,43.02,57.527,44.7V79.71A.413.413,0,0,1,57.113,80.122Zm0,0"/><path class="j" d="M62.787,44.7h-17.6a3.868,3.868,0,0,1-3.867-3.867V20.638a3.868,3.868,0,0,1,3.867-3.867h17.6a.6.6,0,0,1,.6.6V44.1A.6.6,0,0,1,62.787,44.7Zm0,0"/><path class="h" d="M94.886,6.718V9.971A24.721,24.721,0,0,1,63.507,33.816l-.118-.032V43.19a119.272,119.272,0,0,1,37.359,14.938V3.341C98.949,4.447,96.992,5.583,94.886,6.718Zm0,0"/><path class="k" d="M105.74,61.469h-1.15a3.842,3.842,0,0,1-3.842-3.841V3.842A3.842,3.842,0,0,1,104.591,0h1.15a3.842,3.842,0,0,1,3.842,3.842V57.628A3.842,3.842,0,0,1,105.74,61.469Zm0,0"/><path class="l" d="M56.043,30.735a3.69,3.69,0,1,1-3.69-3.69A3.69,3.69,0,0,1,56.043,30.735Zm0,0"/></g></g></svg>