<svg xmlns="http://www.w3.org/2000/svg" xmlns:xlink="http://www.w3.org/1999/xlink" width="130" height="130" viewBox="0 0 130 130"><defs><style>.a{fill:#fff;stroke:#707070;}.b{clip-path:url(#a);}.c{fill:#dddaec;}.d{fill:#da4a54;}.e{fill:#d82e3d;}.f{fill:#f9f6f6;}.g{fill:#ffe07d;}.h{fill:#80b4fb;}.i{fill:#61a2f9;}</style><clipPath id="a"><rect class="a" width="130" height="130" transform="translate(1129 314)"/></clipPath></defs><g class="b" transform="translate(-1129 -314)"><g transform="translate(1129 314)"><path class="c" d="M24.7,23.182V69.745h1.236A11.679,11.679,0,0,1,37.617,81.423V99.265L58.393,90.6V75.477A11.682,11.682,0,0,0,46.712,63.8H45.479l5.156-30.913L45.479,2.408A20.776,20.776,0,0,0,24.7,23.182Z"/><path class="d" d="M68.218,82.113a22.74,22.74,0,1,0,22.741,22.741A22.74,22.74,0,0,0,68.218,82.113Zm0,35.981a13.24,13.24,0,1,1,13.24-13.24A13.24,13.24,0,0,1,68.218,118.094Z"/><path class="e" d="M70.526,117.89a13.24,13.24,0,1,0,0-26.072,13.238,13.238,0,0,1,0,26.072Z"/><path class="e" d="M50.1,104.854a22.744,22.744,0,0,1,20.43-22.625,23.04,23.04,0,0,0-2.309-.116,22.74,22.74,0,0,0,0,45.479,23.039,23.039,0,0,0,2.309-.116A22.741,22.741,0,0,1,50.1,104.854Z"/><path class="f" d="M66.256,23.182V69.745H65.02A11.679,11.679,0,0,0,53.342,81.423V83.54A15.726,15.726,0,0,1,37.616,99.265l-5.051-9.291v-14.5A11.682,11.682,0,0,1,44.246,63.8h1.233V2.408A20.776,20.776,0,0,1,66.256,23.182Z"/><path class="d" d="M22.738,82.113a22.74,22.74,0,1,0,22.741,22.741A22.74,22.74,0,0,0,22.738,82.113Zm0,35.981a13.24,13.24,0,1,1,13.24-13.24,13.24,13.24,0,0,1-13.24,13.24Z"/><path class="e" d="M25.047,117.89a13.24,13.24,0,1,0,0-26.072,13.238,13.238,0,0,1,0,26.072Z"/><path class="e" d="M4.617,104.854a22.744,22.744,0,0,1,20.43-22.625,23.04,23.04,0,0,0-2.309-.116,22.74,22.74,0,0,0,0,45.479,23.039,23.039,0,0,0,2.309-.116,22.741,22.741,0,0,1-20.43-22.622Z"/><circle class="g" cx="3.93" cy="3.93" r="3.93" transform="translate(42.111 69.198)"/><path class="h" d="M107.556,2.408H79.337a4.853,4.853,0,1,0,0,9.706h28.218a4.853,4.853,0,1,1,0,9.706H79.337a4.853,4.853,0,1,0,0,9.706h28.218a4.853,4.853,0,1,1,0,9.706H79.337a4.853,4.853,0,1,0,0,9.706h28.218a4.853,4.853,0,1,1,0,9.706H79.337a4.853,4.853,0,0,0,0,9.706h22.4a4.691,4.691,0,0,1,4.691,4.691v40.652a11.785,11.785,0,0,0,23.569,0V11.6a9.188,9.188,0,0,0-9.188-9.188H107.556Z"/><path class="i" d="M119.454,36.378a4.853,4.853,0,0,0-4.853-4.853h-7.046a4.853,4.853,0,1,1,0,9.706H114.6A4.853,4.853,0,0,0,119.454,36.378Z"/><path class="i" d="M79.337,12.114h7.046a4.853,4.853,0,1,1,0-9.706H79.337a4.853,4.853,0,1,0,0,9.706Z"/><path class="i" d="M119.454,16.967a4.853,4.853,0,0,0-4.853-4.853h-7.046a4.853,4.853,0,1,1,0,9.706H114.6A4.853,4.853,0,0,0,119.454,16.967Z"/><path class="i" d="M107.556,60.643H114.6a4.853,4.853,0,1,0,0-9.706h-7.046a4.853,4.853,0,1,1,0,9.706Z"/><path class="i" d="M81.53,65.5a4.853,4.853,0,0,1,4.853-4.853H79.337a4.853,4.853,0,0,0,0,9.706h7.046A4.853,4.853,0,0,1,81.53,65.5Z"/><path class="i" d="M113.477,115.691V75.04a4.691,4.691,0,0,0-4.691-4.691H101.74a4.691,4.691,0,0,1,4.691,4.691v40.652a11.792,11.792,0,0,0,15.307,11.249,11.789,11.789,0,0,1-8.262-11.249Z"/><path class="i" d="M79.337,31.525h7.046a4.853,4.853,0,1,1,0-9.706H79.337a4.853,4.853,0,1,0,0,9.706Z"/><path class="i" d="M79.337,50.937h7.046a4.853,4.853,0,0,1,0-9.706H79.337a4.853,4.853,0,0,0,0,9.706Z"/></g></g></svg>