<svg xmlns="http://www.w3.org/2000/svg" xmlns:xlink="http://www.w3.org/1999/xlink" width="130" height="130" viewBox="0 0 130 130"><defs><style>.a{fill:#fff;stroke:#707070;}.b{clip-path:url(#a);}.c{fill:#6edcf9;}.d{fill:#2dc0e2;}.e{fill:#a5a0a0;}.f{fill:#877b7b;}.g{fill:#dbd9d9;}.h{fill:#c6c4c4;}.i{fill:#685e5a;}</style><clipPath id="a"><rect class="a" width="130" height="130" transform="translate(1129 651)"/></clipPath></defs><g class="b" transform="translate(-1129 -651)"><g transform="translate(1129 651)"><path class="c" d="M28.008,26.069c-4.434-8.13-2.781-5.1-7.5-13.75a4.585,4.585,0,0,0-6.22-1.829l-3.8,2.073,11.892,21.8,3.8-2.074A4.583,4.583,0,0,0,28.008,26.069Z"/><path class="d" d="M13.244,17.553l3.8-2.073a4.584,4.584,0,0,1,5.945,1.39l-2.482-4.551a4.585,4.585,0,0,0-6.22-1.829l-3.8,2.074,11.892,21.8.027-.015Z"/><path class="e" d="M125.844,87.76H109.067l1.943,3.331a5.716,5.716,0,0,1,.38,4.982h14.454a4.156,4.156,0,0,0,0-8.313Z"/><path class="f" d="M111.4,91.917a5.725,5.725,0,0,1-.015,4.156h14.454A4.156,4.156,0,0,0,130,91.916c0-.122-.008-.243-.018-.363C128.695,92.039,129.637,91.917,111.4,91.917Z"/><path class="e" d="M65.846,109.506V97.438a5.785,5.785,0,1,0-11.569,0v12.068Z"/><path class="e" d="M60.061,79.454a10.634,10.634,0,0,0,10.7-10.57H49.364A10.634,10.634,0,0,0,60.061,79.454Z"/><path class="f" d="M62.953,92.43a5.788,5.788,0,0,0-8.677,5.009v12.068h5.785V97.438A5.782,5.782,0,0,1,62.953,92.43Z"/><path class="f" d="M55.149,68.884H49.364A10.675,10.675,0,0,0,62.953,79.06,10.593,10.593,0,0,1,55.149,68.884Z"/><path class="g" d="M111.535,91.091c-3.941-6.756-13.846-23.737-17.828-30.562a5.729,5.729,0,0,0-4.949-2.843H35.375L10.769,12.3A5.73,5.73,0,1,0,.694,17.758l26.232,48.39a5.732,5.732,0,0,0,5.038,3h53.5l16.17,27.719a5.73,5.73,0,1,0,9.9-5.775Z"/><path class="h" d="M105.014,91.83,88.844,64.111h-53.5a5.731,5.731,0,0,1-5.038-3C1.806,8.543,3.312,12,3.387,9.8A5.721,5.721,0,0,0,.694,17.758l26.232,48.39a5.732,5.732,0,0,0,5.038,3h53.5l16.17,27.719a5.733,5.733,0,0,0,10.671-2.7A5.722,5.722,0,0,1,105.014,91.83Z"/><path class="h" d="M60.061,93.624a1.97,1.97,0,0,1-1.97-1.97v-12.2a1.97,1.97,0,1,1,3.94,0v12.2A1.971,1.971,0,0,1,60.061,93.624Z"/><path class="i" d="M81.627,59.656H35.375a1.969,1.969,0,0,1-1.732-1.031L25.291,43.216a1.971,1.971,0,0,1,1.732-2.908H76.767a6.838,6.838,0,0,1,6.83,6.83V57.686A1.969,1.969,0,0,1,81.627,59.656ZM36.548,55.717h43.11V47.138a2.894,2.894,0,0,0-2.89-2.891H30.33Z"/><path class="c" d="M73.143,109.243H46.979a5.731,5.731,0,0,0,0,11.461H73.143a5.731,5.731,0,1,0,0-11.461Z"/><path class="d" d="M78.181,112.24a5.73,5.73,0,0,1-5.038,3H46.979a5.729,5.729,0,0,1-5.038-3A5.733,5.733,0,0,0,46.98,120.7H73.143A5.736,5.736,0,0,0,78.181,112.24Z"/></g></g></svg>