<svg xmlns="http://www.w3.org/2000/svg" xmlns:xlink="http://www.w3.org/1999/xlink" width="130" height="130" viewBox="0 0 130 130"><defs><style>.a{fill:#fff;stroke:#707070;}.b{clip-path:url(#a);}.c{fill:#71adbf;}.d{fill:#8fc4d8;}.e{fill:#91b8d8;}.f{fill:#d8e4ef;}.g{fill:#e08ca4;}.h{fill:#c9508b;}.i{fill:#996136;}.j{fill:#c28e63;}.k{fill:#eda532;}.l{fill:#f7e680;}.m{fill:#55b774;}.n{fill:#9fd179;}</style><clipPath id="a"><rect class="a" width="130" height="130" transform="translate(75 583)"/></clipPath></defs><g class="b" transform="translate(-75 -583)"><g transform="translate(75 593.284)"><path class="c" d="M39.815,25.594V36.7L37.058,96.5c-.343.1-5.343,10.132-5.343,4.42L10.223,96.653A3.833,3.833,0,0,1,6.386,92.82V25.594a3.834,3.834,0,0,1,3.836-3.834H35.981A3.834,3.834,0,0,1,39.815,25.594Zm0,0"/><path class="d" d="M39.815,25.594V36.7L39.83,98c-.342.1-4.2.829-4.576.829l-13.49-2.175a3.834,3.834,0,0,1-3.836-3.834V25.594a3.833,3.833,0,0,1,3.836-3.833H35.981A3.833,3.833,0,0,1,39.815,25.594Zm0,0"/><path class="e" d="M124.84,56.833V80.844a15.81,15.81,0,0,1-15.81,15.81L80.565,98.829,39.719,96.654,48.569,80.1H62.387A13.816,13.816,0,0,1,48.569,66.289V56.833a15.81,15.81,0,0,1,15.81-15.81H109.03A15.81,15.81,0,0,1,124.84,56.833Zm0,0"/><path class="f" d="M124.84,56.833V75.272a15.81,15.81,0,0,1-15.81,15.81H60.243V80.1H74.06A13.811,13.811,0,0,1,60.243,66.289V56.833a15.81,15.81,0,0,1,15.81-15.81H109.03A15.81,15.81,0,0,1,124.84,56.833Zm0,0"/><path class="e" d="M100.137,82.093H62.387c-.294,0-.561-.007-.819-.022a1.99,1.99,0,1,1,.227-3.973c.182.01.375.016.592.016h37.751a6.173,6.173,0,0,0,6.165-6.166V69.483a6.173,6.173,0,0,0-6.165-6.166H65.822a1.99,1.99,0,0,1,0-3.979h34.315a10.157,10.157,0,0,1,10.145,10.145v2.465A10.157,10.157,0,0,1,100.137,82.093Zm0,0"/><path class="g" d="M62.548,73.823A22.829,22.829,0,1,1,30.937,52.745V36.7H48.5V52.745A22.833,22.833,0,0,1,62.548,73.823Zm0,0"/><path class="h" d="M39.719,96.653a22.833,22.833,0,0,1-8.783-43.908V36.7H35.3V52.745c-4.157,3.439-7.078,11.581-7.078,21.078C28.218,86.431,33.368,96.653,39.719,96.653Zm0,0"/><path class="f" d="M30.937,36.7H48.5v9.415H30.937Zm0,0"/><path class="e" d="M30.937,36.7H35.3v9.415H30.937Zm0,0"/><path class="i" d="M130,96.653a17.68,17.68,0,0,1-16.95,12.653H16.95A17.679,17.679,0,0,1,0,96.653Zm0,0"/><path class="j" d="M130,96.653a17.68,17.68,0,0,1-16.95,12.653H45.044a17.686,17.686,0,0,1-16.95-12.653Zm0,0"/><path class="k" d="M30.762,10.253V21.76H15.441V10.253a3.816,3.816,0,0,1,3.816-3.815h7.691A3.816,3.816,0,0,1,30.762,10.253Zm0,0"/><path class="l" d="M30.762,10.253V21.76h-9.84V10.253a3.815,3.815,0,0,1,3.815-3.815h2.21A3.816,3.816,0,0,1,30.762,10.253Zm0,0"/><path class="m" d="M86.294,40.913A26.527,26.527,0,0,1,57.452,12.073a26.92,26.92,0,0,1,5.617.079,26.525,26.525,0,0,1,23.225,28.76Zm0,0"/><path class="n" d="M86.294,40.913a26.523,26.523,0,0,1-23.225-28.76,26.525,26.525,0,0,1,23.225,28.76Zm0,0"/><path class="n" d="M107.476,33.256a26.463,26.463,0,0,1-21.181,7.657,26.513,26.513,0,0,1,28.841-28.839A26.468,26.468,0,0,1,107.476,33.256Zm0,0"/><path class="m" d="M99.326,22.54A26.476,26.476,0,0,1,86.294,40.913,26.549,26.549,0,0,1,99.639,15.4,26.516,26.516,0,0,1,99.326,22.54Zm0,0"/><path class="n" d="M95.859,20.52a26.473,26.473,0,0,1-9.564,20.394,26.522,26.522,0,0,1,0-40.787A26.472,26.472,0,0,1,95.859,20.52Zm0,0"/><path class="m" d="M80.826,20.521c0,8.2,2.127,15.526,5.468,20.392a26.521,26.521,0,0,1,0-40.786C82.954,4.993,80.826,12.32,80.826,20.521Zm0,0"/></g></g></svg>