<svg xmlns="http://www.w3.org/2000/svg" xmlns:xlink="http://www.w3.org/1999/xlink" width="130" height="130" viewBox="0 0 130 130"><defs><style>.a{fill:#fff;stroke:#707070;}.b{clip-path:url(#a);}.c{fill:#b5dcff;}.d{fill:#8bcaff;}.e{fill:#dbedff;}.f{fill:#ff7f87;}.g{fill:#ff636e;}.h{fill:#ff4654;}</style><clipPath id="a"><rect class="a" width="130" height="130" transform="translate(75 269)"/></clipPath></defs><g class="b" transform="translate(-75 -269)"><g transform="translate(75 269)"><path class="c" d="M79.369,64.128H74.575a3.207,3.207,0,0,0-3.2,3.2v6.4a3.207,3.207,0,0,0,3.2,3.2h4.861C79.307,72.793,79.274,68.511,79.369,64.128Z"/><path class="d" d="M74.531,70.858a3.374,3.374,0,0,1-3.154-2.208v5.072a3.207,3.207,0,0,0,3.2,3.2h4.861q-.093-2.979-.115-6.061Z"/><path class="e" d="M104.442,75.409a27.827,27.827,0,0,1,.952-18.228l.8-2.484H85.656a32.7,32.7,0,0,1-6.642-.682c-1.744,26.311,1.75,51.067,3.735,62.108a7.622,7.622,0,0,0,7.5,6.273h5.457a7.637,7.637,0,0,0,7.6-7.023,131.778,131.778,0,0,1,2.188-14.881,52.2,52.2,0,0,0-.994-24.874Z"/><path class="c" d="M90.995,118.647c-1.968-11.394-5.42-36.824-3.777-63.95H85.656a32.7,32.7,0,0,1-6.642-.682c-1.744,26.311,1.75,51.067,3.735,62.108a7.622,7.622,0,0,0,7.5,6.273H92.7a8.045,8.045,0,0,1-1.707-3.749Z"/><path class="c" d="M105.551,79.939h-3.419a9.287,9.287,0,0,0-9.26,9.26v33.2h2.837a7.637,7.637,0,0,0,7.6-7.023,131.779,131.779,0,0,1,2.188-14.881A52.346,52.346,0,0,0,105.551,79.939Z"/><path class="d" d="M99.707,89.2a9.293,9.293,0,0,1,5.958-8.645c-.038-.2-.073-.41-.114-.614h-3.419a9.287,9.287,0,0,0-9.26,9.26v33.2h2.837a7.57,7.57,0,0,0,4-1.137V89.2Z"/><path class="c" d="M94.648,66.061H87.72a1.932,1.932,0,1,1,0-3.865h6.928a1.932,1.932,0,1,1,0,3.865Z"/><path class="f" d="M106.711,7.61c-.171,0-.343-.007-.515-.007H85.656a32.7,32.7,0,0,0-14.648,3.464A32.7,32.7,0,0,1,56.36,14.532H32.853a2.687,2.687,0,0,1,.214,1.055V47.23a2.687,2.687,0,0,1-.214,1.055H56.36a32.7,32.7,0,0,1,14.648,3.464,32.7,32.7,0,0,0,14.648,3.464H106.2c.172,0,.344,0,.515-.007Z"/><path class="g" d="M85.656,42.5a32.7,32.7,0,0,1-14.648-3.464A32.7,32.7,0,0,0,56.36,35.569H33.067V47.23a2.687,2.687,0,0,1-.214,1.055H56.36a32.7,32.7,0,0,1,14.648,3.464,32.7,32.7,0,0,0,14.648,3.464H106.2c.172,0,.344,0,.515-.007V42.491c-.171,0-.343.007-.515.007Z"/><path class="g" d="M33.067,14.532h-.214a2.687,2.687,0,0,1,.214,1.055Z"/><path class="g" d="M106.2,7.6V55.213a23.8,23.8,0,1,0,0-47.609Z"/><path class="h" d="M106.2,42.5V55.213A23.82,23.82,0,0,0,129.14,25.05,23.814,23.814,0,0,1,106.2,42.5Z"/><path class="e" d="M17.591,21.141H1.932a1.932,1.932,0,0,1,0-3.865H17.591a1.932,1.932,0,0,1,0,3.865Z"/><path class="e" d="M17.591,29.274H1.932a1.932,1.932,0,1,1,0-3.865H17.591a1.932,1.932,0,0,1,0,3.865Z"/><path class="e" d="M17.591,37.408H1.932a1.932,1.932,0,1,1,0-3.865H17.591a1.932,1.932,0,0,1,0,3.865Z"/><path class="e" d="M17.591,45.541H1.932a1.932,1.932,0,1,1,0-3.865H17.591a1.932,1.932,0,0,1,0,3.865Z"/><circle class="c" cx="15.81" cy="15.81" r="15.81" transform="translate(90.385 15.598)"/><path class="d" d="M103.784,31.408A15.829,15.829,0,0,1,112.9,17.092a15.81,15.81,0,1,0,0,28.633A15.829,15.829,0,0,1,103.784,31.408Z"/><path class="e" d="M106.2,49.151a17.743,17.743,0,1,1,17.743-17.743A17.763,17.763,0,0,1,106.2,49.151Zm0-31.621a13.878,13.878,0,1,0,13.878,13.878A13.893,13.893,0,0,0,106.2,17.53Z"/><path class="e" d="M122.006,33.341H90.385a1.932,1.932,0,1,1,0-3.865h31.621a1.932,1.932,0,1,1,0,3.865Z"/><path class="e" d="M119.883,25.436H92.507a1.932,1.932,0,0,1,0-3.865h27.376a1.932,1.932,0,0,1,0,3.865Z"/><path class="e" d="M119.884,41.246H92.507a1.932,1.932,0,0,1,0-3.865h27.376a1.932,1.932,0,0,1,0,3.865Z"/><path class="e" d="M63.05,33.04V29.776a2.7,2.7,0,0,0-2.7-2.7H46.162a2.7,2.7,0,0,0-2.7,2.7V33.04a2.7,2.7,0,0,0,2.7,2.7h14.19A2.7,2.7,0,0,0,63.05,33.04Z"/><path class="c" d="M52.87,33.04V29.776a2.7,2.7,0,0,1,2.7-2.7H46.162a2.7,2.7,0,0,0-2.7,2.7V33.04a2.7,2.7,0,0,0,2.7,2.7h9.405A2.7,2.7,0,0,1,52.87,33.04Z"/><path class="e" d="M30.885,12.889H27.621a2.7,2.7,0,0,0-2.7,2.7V47.23a2.7,2.7,0,0,0,2.7,2.7h3.264a2.7,2.7,0,0,0,2.7-2.7V15.587A2.7,2.7,0,0,0,30.885,12.889Z"/><path class="c" d="M30.885,37.381H27.621a2.7,2.7,0,0,1-2.7-2.7V47.23a2.7,2.7,0,0,0,2.7,2.7h3.264a2.7,2.7,0,0,0,2.7-2.7V34.683A2.7,2.7,0,0,1,30.885,37.381Z"/></g></g></svg>